<svg xmlns="http://www.w3.org/2000/svg" viewBox="0 0 38.89 38.61"><defs><style>.cls-1{fill:#eb881e}</style></defs><g id="Слой_2" data-name="Слой 2"><g id="landing"><path class="cls-1" d="M5.23 0a5.22 5.22 0 0 1 5.23 5.23 5.22 5.22 0 0 1-5.23 5.23 5.23 5.23 0 0 1-3.7-8.93A5.19 5.19 0 0 1 5.23 0zm28.42 27.9a5.24 5.24 0 0 1 5.24 5.24 5.16 5.16 0 0 1-1.53 3.69 5.23 5.23 0 1 1-3.71-8.93zM33.52 0a5.22 5.22 0 0 1 5.23 5.23 5.19 5.19 0 0 1-1.53 3.7 4.69 4.69 0 0 1-.74.6l-.26.17a6 6 0 0 1-.56.29l-.31.13a6.23 6.23 0 0 1-.64.19h-.21l-1.16.08h-1.09a7.73 7.73 0 0 0-7.62 7.82v.12a1.11 1.11 0 0 1 0 .17 1.23 1.23 0 0 0 0 .2v.42l-.09 1.17a.24.24 0 0 1 0 .08v.07a6.36 6.36 0 0 1-.2.66 1.52 1.52 0 0 1-.13.31A6.36 6.36 0 0 1 24 22l-.15.25a6.34 6.34 0 0 1-.61.74 5.23 5.23 0 0 1-7.4-7.4 4.69 4.69 0 0 1 .74-.6l.25-.16.57-.3.3-.13a6 6 0 0 1 .64-.19h.21l1.13-.21.44.05h.65a7.72 7.72 0 0 0 7.62-7.75v-.12a1 1 0 0 1 0-.17v-.2a1.62 1.62 0 0 0 0-.18 1.94 1.94 0 0 1 0-.24l.09-1.12s0-.15.05-.19a6.46 6.46 0 0 1 .19-.65 2.71 2.71 0 0 1 .13-.3c.09-.19.19-.39.3-.58l.17-.26a4.94 4.94 0 0 1 .59-.73A5.19 5.19 0 0 1 33.52 0z"/><path class="cls-1" d="M19.39 0a5.22 5.22 0 0 1 5.23 5.23 5.19 5.19 0 0 1-1.53 3.7 4.9 4.9 0 0 1-.74.6l-.25.16-.57.3-.3.13a5.79 5.79 0 0 1-.63.18l-.21.06-1.18.09h-1.1a7.72 7.72 0 0 0-7.61 7.82v.59a1.24 1.24 0 0 1 0 .27l-.08 1.14-.06.21a3.87 3.87 0 0 1-.19.64 2.71 2.71 0 0 1-.13.3 5.39 5.39 0 0 1-.3.58 2.39 2.39 0 0 1-.13.21 5 5 0 0 1-.6.75 5.24 5.24 0 0 1-7.41-7.4 5.47 5.47 0 0 1 .74-.6.87.87 0 0 1 .18-.11l.09-.06c.17-.1.36-.2.55-.29l.31-.13a4.57 4.57 0 0 1 .64-.19h.21L5.56 14l.53.06h.56a7.65 7.65 0 0 0 5.43-2.34 7.58 7.58 0 0 0 2.18-5.42v-.12a1.1 1.1 0 0 1 0-.18 1.1 1.1 0 0 0 0-.18v-.44l.09-1.15.05-.18c.06-.24.12-.45.19-.65l.12-.28a4.14 4.14 0 0 1 .29-.55 2.26 2.26 0 0 1 .16-.26 5.35 5.35 0 0 1 .61-.74A5.15 5.15 0 0 1 19.39 0zm14.13 14.13a5.23 5.23 0 0 1 3.7 8.93 5.47 5.47 0 0 1-.74.6l-.26.16a5 5 0 0 1-.56.3l-.31.13a4.73 4.73 0 0 1-.63.18h-.2l-1.19.09-.49-.06h-.6a7.72 7.72 0 0 0-7.61 7.82v.12a.58.58 0 0 1 0 .19.81.81 0 0 1 0 .16v.16a2.85 2.85 0 0 1 0 .29l-.08 1.1v.05l-.05.17a4.18 4.18 0 0 1-.19.66c0 .1-.08.2-.13.3a3.91 3.91 0 0 1-.3.57c0 .08-.09.15-.14.23a4.78 4.78 0 0 1-.6.73 5.23 5.23 0 0 1-7.4 0 5.24 5.24 0 0 1 0-7.4 4.69 4.69 0 0 1 .74-.6l.22-.14a4.41 4.41 0 0 1 .56-.3l.3-.13a5.36 5.36 0 0 1 .64-.19h.22l1.16-.08.47.05h.63a7.72 7.72 0 0 0 7.61-7.83v-.11a1.1 1.1 0 0 1 0-.18 1.1 1.1 0 0 0 0-.18 1.41 1.41 0 0 0 0-.18 2.11 2.11 0 0 1 0-.26l.09-1.14a.29.29 0 0 1 0-.09v-.1a6 6 0 0 1 .19-.66c0-.09.08-.2.13-.3a6 6 0 0 1 .3-.56 1.64 1.64 0 0 1 .16-.26 4.9 4.9 0 0 1 .6-.74 5.19 5.19 0 0 1 3.7-1.53z"/></g></g></svg>