<svg xmlns="http://www.w3.org/2000/svg" viewBox="0 0 94.14 85.79"><defs><style>.cls-2{fill:#efa440}</style></defs><g id="Слой_2" data-name="Слой 2"><g id="landing"><ellipse cx="47.07" cy="48" rx="47.07" ry="37.79" fill="#fff"/><path class="cls-2" d="M34.27 56.81A1.24 1.24 0 0 0 33 58v5.29a1.24 1.24 0 0 0 2.48 0V58a1.24 1.24 0 0 0-1.24-1.23zm26.42 0A1.23 1.23 0 0 0 59.46 58v5.29a1.24 1.24 0 0 0 2.47 0V58a1.24 1.24 0 0 0-1.24-1.23zM23.15 32.73a1.2 1.2 0 0 0 .55.13 1.23 1.23 0 0 0 .55-2.34c-2.87-1.44-8.25-1.46-8.48-1.46a1.24 1.24 0 0 0 0 2.48c1.39 0 5.43.21 7.38 1.19zM11.81 54.16a1.25 1.25 0 0 0-1.24 1.24v7.93a1.24 1.24 0 0 0 2.48 0V55.4a1.25 1.25 0 0 0-1.24-1.24z"/><path class="cls-2" d="M74.67 49.27l-1.15-1.09a2.64 2.64 0 0 0 .3-1.21v-1.32a9.05 9.05 0 0 0 5.45 0V47a2.64 2.64 0 0 0 .3 1.21l-1.15 1.09a2.72 2.72 0 0 1-3.75 0zm-13-2.85a27.25 27.25 0 0 0 5.61-2.69 2.54 2.54 0 0 0 1.12-2.56V41a9.13 9.13 0 0 0 3 3.45V47a.1.1 0 0 1 0 .08L67.43 49l-.14-.06-5.65-2.5zm-14.19 6.42A10.64 10.64 0 0 1 38 47.06l1.8-.8a3.88 3.88 0 0 0 2.31-3.55v-3a14.51 14.51 0 0 0 10.74 0v3a3.88 3.88 0 0 0 2.31 3.55l1.8.8a10.61 10.61 0 0 1-9.48 5.78zm-22.54-6.69v-1.7a9.8 9.8 0 0 0 1.18-1 8.4 8.4 0 0 0 .7-.76 2.54 2.54 0 0 0 .89 1 27.25 27.25 0 0 0 5.61 2.69L29.86 48 26 46.83c-1-.29-1-.4-1-.68zm-5.48-.09h.28a9.14 9.14 0 0 0 2.72-.41v.49a3.43 3.43 0 0 0 .08.74l-2.8 2.8-2.82-2.82a2.84 2.84 0 0 0 .09-.72v-.52a8.35 8.35 0 0 0 2.45.43zm-6.41-9.49v-2.31a1.31 1.31 0 0 0-.13-.55l-.77-1.53a4 4 0 0 1-.42-1.81v-.07a5.37 5.37 0 0 1 5.37-5.37h10.65v5.13a5.4 5.4 0 0 1-.57 2.4l-.62 1.25a1.17 1.17 0 0 0-.13.55v2.65a6.68 6.68 0 0 1-6.9 6.68 6.91 6.91 0 0 1-6.48-7zM36.5 6.72a15.26 15.26 0 0 1 11-4.25 15.26 15.26 0 0 1 11 4.25c2.89 2.84 4.6 6.92 5 11.78 1 13.18 2.08 20.54 2.51 23.08a.06.06 0 0 1 0 .08 27.08 27.08 0 0 1-7.7 3.24l-2-.9a1.4 1.4 0 0 1-.84-1.29v-4.25a14.44 14.44 0 0 0 6.61-12.12V24a5.14 5.14 0 0 0-1.76-3.9c-2.48-2.16-8.1-5.93-17.85-6.9A1.22 1.22 0 0 0 41 14.32a1.24 1.24 0 0 0 1.1 1.36c9.07.9 14.22 4.34 16.48 6.31a2.67 2.67 0 0 1 .91 2v2.32a12 12 0 0 1-24 0v-1a1.34 1.34 0 0 1 .7-1.16 9.8 9.8 0 0 0 4.52-5.34 1.24 1.24 0 0 0-2.33-.81A7.4 7.4 0 0 1 35 22a3.83 3.83 0 0 0-2 3.3v1a14.44 14.44 0 0 0 6.61 12.12v4.25A1.4 1.4 0 0 1 38.8 44l-2 .9a27.08 27.08 0 0 1-7.7-3.24.06.06 0 0 1 0-.08c.43-2.54 1.54-9.9 2.51-23.08.36-4.86 2.07-8.94 5-11.78zm40 18.21a8 8 0 0 1 8 8 7.84 7.84 0 0 1-.41 2.5c-3.51-3.56-9.68-5-10-5a1.22 1.22 0 0 0-1 .25 1.23 1.23 0 0 0-.46 1 3 3 0 0 1-1 1.77 1.23 1.23 0 0 0 0 1.75 1.24 1.24 0 0 0 1.75 0 6.07 6.07 0 0 0 1.34-2c2.08.62 6.4 2.18 8.33 4.92a6.68 6.68 0 0 1-13.23-.43 1.2 1.2 0 0 0-.18-.51 8 8 0 0 1 6.82-12.19zm-4-1.9c0-1.86 1.81-3.38 4-3.38s4 1.52 4 3.38a1.93 1.93 0 0 1 0 .24 10.46 10.46 0 0 0-8.07 0 1.93 1.93 0 0 1 0-.24zm14.3 26.52l-5-2.5a.1.1 0 0 1-.05-.08v-2.52a9.13 9.13 0 0 0 3.88-6.27 10.46 10.46 0 0 0-2.78-13.62 5.2 5.2 0 0 0 .22-1.56c0-3.23-2.93-5.86-6.53-5.86S70 19.8 70 23a5.32 5.32 0 0 0 .23 1.54A10.46 10.46 0 0 0 66.82 29c-.31-3-.63-6.57-.93-10.72C65.48 12.85 63.52 8.23 60.2 5a17.65 17.65 0 0 0-12.72-5 17.67 17.67 0 0 0-12.72 5c-3.32 3.27-5.28 7.89-5.69 13.36-.1 1.45-.21 2.83-.32 4.14H17.1a7.85 7.85 0 0 0-7.85 7.8v.07a6.56 6.56 0 0 0 .69 2.92l.63 1.27v2a9.65 9.65 0 0 0 4 7.8v1.78a.52.52 0 0 1-.38.5l-5.1 1.46a5.22 5.22 0 0 0-3.77 5v10.23a1.24 1.24 0 0 0 2.47 0V53.11a2.75 2.75 0 0 1 2-2.63L14.84 49a4.18 4.18 0 0 0 .53-.21L18.5 52v11.33a1.24 1.24 0 0 0 2.47 0V52l3.16-3.15a7.41 7.41 0 0 0 1.15.41l1.25.36a6.51 6.51 0 0 0-2.74 5.31v8.45a1.24 1.24 0 0 0 2.47 0v-8.5a4 4 0 0 1 2.41-3.7l7.07-3.12a13.13 13.13 0 0 0 23.49 0l7.06 3.12a4 4 0 0 1 2.41 3.7v8.45a1.24 1.24 0 0 0 2.48 0v-8.45a6.52 6.52 0 0 0-1.57-4.23l1.92-.95L73 51.06a5.21 5.21 0 0 0 7.17 0l1.43-1.36 4.13 2.06a2.71 2.71 0 0 1 1.47 2.44v9.13a1.24 1.24 0 0 0 2.47 0V54.2a5.18 5.18 0 0 0-2.87-4.65z"/><path class="cls-2" d="M83.15 55.8a1.24 1.24 0 0 0-1.24 1.2v6.3a1.24 1.24 0 0 0 2.48 0V57a1.24 1.24 0 0 0-1.24-1.23z"/></g></g></svg>