<svg xmlns="http://www.w3.org/2000/svg" viewBox="0 0 76.27 76.27"><defs><style>.cls-1{fill:#efa440;stroke:#fff;stroke-miterlimit:10;stroke-width:.45px}</style></defs><g id="Слой_2" data-name="Слой 2"><g id="landing"><path class="cls-1" d="M60.37 44.67a15.69 15.69 0 1 0 15.68 15.7 15.73 15.73 0 0 0-15.68-15.7zm0 28.77a13.08 13.08 0 1 1 13.07-13.07 13.1 13.1 0 0 1-13.07 13.07z"/><path class="cls-1" d="M68.21 59.06h-6.53v-6.54a1.31 1.31 0 0 0-2.62 0v7.85a1.31 1.31 0 0 0 1.31 1.31h7.84a1.31 1.31 0 0 0 0-2.62zM35.53 27.68H9.38V65.6h26.15V42.06h23.53V27.68zm11.76 2.61h9.15v9.16h-9.15zm-23.54 0h9.16v9.16h-9.16zm-11.75 0h9.15v9.16H12zm0 11.77h9.15v9.15H12zM21.14 63H12v-9.17h9.15zm11.77 0h-9.16v-9.17h9.16zm0-11.77h-9.16v-9.17h9.16zm11.76-11.78h-9.14v-9.16h9.14z"/><path class="cls-1" d="M43.37 72.13H2.84v-51H65.6v17a1.31 1.31 0 1 0 2.61 0V6.76a1.31 1.31 0 0 0-1.31-1.31h-6.53V1.53A1.31 1.31 0 0 0 59.06.22H49.9a1.31 1.31 0 0 0-1.3 1.31v3.92H19.83V1.53a1.31 1.31 0 0 0-1.3-1.31H9.38a1.31 1.31 0 0 0-1.31 1.31v3.92H1.53A1.31 1.31 0 0 0 .22 6.76v66.68a1.31 1.31 0 0 0 1.31 1.31h41.84a1.31 1.31 0 0 0 0-2.62zm7.84-69.29h6.54v7.84h-6.54zm-40.53 0h6.54v7.84h-6.54zM2.84 8.07h5.23V12a1.31 1.31 0 0 0 1.31 1.3h9.15a1.31 1.31 0 0 0 1.3-1.3V8.07H48.6V12a1.31 1.31 0 0 0 1.3 1.31h9.16A1.31 1.31 0 0 0 60.37 12V8.07h5.23v10.46H2.84z"/></g></g></svg>