<svg xmlns="http://www.w3.org/2000/svg" viewBox="0 0 67.47 75.03"><defs><style>.cls-1{fill:#efa440;stroke:#fff;stroke-miterlimit:10;stroke-width:.67px}</style></defs><g id="Слой_2" data-name="Слой 2"><g id="landing"><path class="cls-1" d="M64.24 30.64A42.14 42.14 0 0 1 50.4 62.16 47.2 47.2 0 0 1 40 69.52c-3.24 1.66-5.49 2.27-6.21 2.27s-3-.61-6.22-2.27a47.67 47.67 0 0 1-10.45-7.36A42.13 42.13 0 0 1 3.24 30.64V15.73a134.71 134.71 0 0 0 30.5-12.28 139 139 0 0 0 30.5 12.28v14.91zm1.81-17.44A135.24 135.24 0 0 1 34.45.52a1.44 1.44 0 0 0-1.45 0A131.43 131.43 0 0 1 1.42 13.2a1.46 1.46 0 0 0-1.09 1.41v16A45 45 0 0 0 15.1 64.29c7.23 6.7 15.61 10.4 18.64 10.4S45.15 71 52.37 64.29a45 45 0 0 0 14.77-33.65v-16a1.46 1.46 0 0 0-1.09-1.41z"/><path class="cls-1" d="M33.74 9.22a143.47 143.47 0 0 0 25.41 10.35v11.07a36.55 36.55 0 0 1-11.66 27.27 42.54 42.54 0 0 1-9.15 6.71 25.81 25.81 0 0 1-4.6 2 26.29 26.29 0 0 1-4.61-2A42.54 42.54 0 0 1 20 57.91 36.55 36.55 0 0 1 8.32 30.64V19.57A141.63 141.63 0 0 0 33.74 9.22zM6.46 17.09a1.45 1.45 0 0 0-1 1.4v12.15a40.39 40.39 0 0 0 3.19 16A40.83 40.83 0 0 0 18 60a45.75 45.75 0 0 0 9.78 7.18 26.07 26.07 0 0 0 5.72 2.38 1.24 1.24 0 0 0 .27 0h.26a26.07 26.07 0 0 0 5.72-2.38A45.8 45.8 0 0 0 49.51 60a40.94 40.94 0 0 0 9.35-13.35 40.4 40.4 0 0 0 3.2-16V18.48A1.46 1.46 0 0 0 61 17.09a140.51 140.51 0 0 1-26.58-10.8 1.48 1.48 0 0 0-1.36 0 138.52 138.52 0 0 1-26.6 10.8z"/><path class="cls-1" d="M19.54 54.32a1.4 1.4 0 0 0 1.07.47 1.45 1.45 0 0 0 1.08-2.42 1.45 1.45 0 1 0-2.13 2zM29.52 59a37.59 37.59 0 0 1-5-3.78 1.45 1.45 0 0 0-1.93 2.17A40.52 40.52 0 0 0 28 61.42 1.45 1.45 0 0 0 29.52 59z"/></g></g></svg>