<svg xmlns="http://www.w3.org/2000/svg" viewBox="0 0 70.48 70.48"><g stroke-miterlimit="10" data-name="Слой 2"><path d="M67.16 24.63c-.11-1.82-2.27-3.24-6.61-4.33a2.31 2.31 0 0 0 .23-1v-7.44h0C60.38 5.65 35 5.47 32.05 5.47s-28.34.18-28.73 6.39h0v7.45c0 2 2.61 3.6 6.49 4.78a2.54 2.54 0 0 0-.09.54h0v7.43c-4.19 1.09-6.28 2.49-6.38 4.28h0v7.45c0 1.41 1.27 2.6 3.35 3.6a2.44 2.44 0 0 0-.15.66h0v7.45c0 3.54 8 5.74 16.84 6.76a1.06 1.06 0 0 0 .19 0h.06c1.71.19 3.44.34 5.16.45h.16c2.18.13 4.32.19 6.33.19s4.15-.06 6.33-.19h.16c1.71-.11 3.45-.26 5.16-.45H47a1.29 1.29 0 0 0 .19 0C56 61.23 64 59 64 55.49v-7.44h0c-.08-1.31-1.19-2.4-3.39-3.31a2.28 2.28 0 0 0 .21-1v-7c3.82-1.18 6.38-2.75 6.39-4.75v-7.36zm-8.62 19.5l-.36.32a9.37 9.37 0 0 1-2.72 1.46v-5.07a16.32 16.32 0 0 0 3.2-1.46v4.4a.73.73 0 0 1-.12.35zm-23.81 4.94h-1.62v-5.29h1c1.07 0 2.14 0 3.21-.1V49h-.69q-1 0-2 .06zm-4.64 0h-1.64L26.73 49v-5.34c1.06.06 2.13.09 3.2.11H31v5.33h-.89zm-19.23-2.41h-.1v-5.17c1 .27 2.06.52 3.19.74v5.19c-1-.21-1.87-.42-2.7-.65l-.39-.11zm22.43 8.82h.88v5.32c-1.47 0-2.89-.05-4.25-.12v-5.31c1.06.06 2.13.09 3.21.11zm4.06 0c1.07 0 2.14-.06 3.21-.11v5.31c-1.37.07-2.79.12-4.26.13v-5.32h1.05zm8.53-.48v5.29c-1 .11-2.09.2-3.19.28v-5.32c1.08-.07 2.14-.16 3.19-.26zm2.12-.23c1.1-.14 2.16-.29 3.19-.46v5.23c-1 .18-2.07.34-3.19.49zm5.32-.84c1.13-.22 2.2-.46 3.19-.73v5.14c-.94.28-2 .54-3.19.79zm-36.19 0v5.2c-1.17-.25-2.24-.51-3.19-.79V53.2c1 .27 2.06.52 3.19.73zm2.13.38c1 .17 2.1.33 3.19.46V60a74.87 74.87 0 0 1-3.19-.49zm5.32.68c1.05.1 2.12.19 3.19.26v5.31c-1.1-.08-2.16-.17-3.19-.28zM22 48.63h-.56v-5.34c1.05.1 2.11.18 3.19.25v5.31L22 48.63zm-2.69-5.57v5.26c-1.12-.15-2.19-.31-3.19-.49V42.6c1 .18 2.1.33 3.19.46zm20.9 5.74l-.72.05v-5.31c1.09-.07 2.15-.15 3.2-.25v5.28c-.66.07-1.33.14-2 .19h-.46zm4.61-.48v-5.26c1.09-.13 2.16-.28 3.19-.46v5.23c-1 .18-2.07.35-3.19.49zm5.32-6.09c1.13-.22 2.2-.47 3.19-.74v5.14c-.95.28-2 .54-3.19.79zm-14.55-4.86c-.8 0-1.59-.06-2.36-.09h-.12V32c1.07 0 2.14.08 3.21.1h1.04v5.31h-1.54zM10.76 22.15V17c1 .26 2.06.5 3.19.73v5.19l-.39-.08q-.86-.18-1.65-.39c-.4-.1-.79-.21-1.15-.32zm19.34-2.86h.9v5.32c-1.43 0-2.86-.05-4.25-.12v-5.3c1.06 0 2.13.08 3.2.1zm4.06 0l3.21-.1v5.3h-.54 0l-2.19.07h-1.53V19.3h1zm24.25.53h0l-.39.3a10.57 10.57 0 0 1-2.53 1.31v-5.07a16.32 16.32 0 0 0 3.2-1.46v4.4a.83.83 0 0 1-.25.52zm-13.59 4v-5.25c1.09-.13 2.16-.28 3.19-.44v5.22c-1 .17-2.07.34-3.19.48zm5.32-.9v-5.17c1.13-.23 2.2-.47 3.19-.73v5.12c-.95.28-2 .54-3.19.79zm-7.45-4.12v5.28c-1 .1-2.09.2-3.2.28v-5.3c1.09-.08 2.15-.16 3.2-.26zM21.4 24.09v-5.28c1.05.1 2.11.18 3.19.26v5.29c-1.08-.07-2.15-.16-3.19-.27zm-2.13-5.52v5.26l-.64-.07-.4-.06-1.8-.28-.35-.07v-5.22c1 .16 2.1.31 3.19.44zm11.45 18.56h-.44c-.68-.05-1.34-.11-2-.18h-.51v-5.37c1.06.1 2.12.18 3.2.26v5.3zm-7-.8l-1.22-.21V30.9c1 .17 2.1.32 3.2.45v5.26c-.65-.08-1.29-.17-1.9-.27zm-3.34-5.81v5.19c-1.18-.26-2.25-.53-3.2-.8v-5.13c1 .27 2.07.52 3.2.74zM15 29.13v5.06a6.56 6.56 0 0 1-3.11-1.89l-.07-.12a.3.3 0 0 0 0-.1v-4.41A16.06 16.06 0 0 0 15 29.13zm25.52 2.93c1.07 0 2.15-.05 3.21-.1v5.31q-2.1.09-4.26.12v-5.31h.88zm13.75 4.09l-1.41.23-.86.12-.83.11v-5.26c1.1-.13 2.16-.28 3.2-.45v5.22h-.11zm-7.2.9c-.4 0-.81.06-1.21.09v-5.3c1.08-.08 2.15-.16 3.19-.26v5.28c-.62.06-1.23.13-1.87.18zm12.16-2l-1.66.42-.81.18-.26.05v-5.18c1.14-.22 2.2-.47 3.2-.74v5.15l-.47.13zM65 24.7c-.1.72-1.74 1.69-4.66 2.59a72.18 72.18 0 0 1-17.13 2.56h-9.7a71.57 71.57 0 0 1-17.13-2.57c-2.9-.89-4.53-1.85-4.65-2.56a.11.11 0 0 1 0-.07l.22.06 1.28.28c2.11.45 4.46.83 7 1.11h0c1.7.19 3.47.34 5.28.45h.06c1.31.07 2.63.13 4 .16h4.12a81.72 81.72 0 0 0 19.88-2.46l.68-.2.4-.12 1.11-.39.18-.06.87-.36.24-.1.85-.41.33-.19.38-.23.2-.12c4.77 1 6 2.16 6.15 2.6zM32 7.6c17.6 0 26.47 2.76 26.64 4.4-.13.72-1.77 1.67-4.66 2.57a71.15 71.15 0 0 1-17.12 2.55l-1.15.05h-7.39l-1.15-.05a71.15 71.15 0 0 1-17.12-2.55c-2.89-.9-4.53-1.85-4.66-2.57.17-1.59 9.05-4.35 26.6-4.35zM5.44 19.31V14.9a16 16 0 0 0 3.19 1.46v5.1c-2.07-.78-3.19-1.56-3.19-2.15zM10.59 34h.06c1.46 1.47 4.47 2.63 8.23 3.49l.26.06.84.18A81 81 0 0 0 32 39.34h0c1.44.08 2.91.14 4.42.17h4.25c1.4 0 2.77-.08 4.12-.16h0a83.25 83.25 0 0 0 12.29-1.57A18.94 18.94 0 0 1 54 39a73.27 73.27 0 0 1-18.41 2.6h-7.21l-1.15-.05A71.06 71.06 0 0 1 10.11 39c-2.93-.9-4.57-1.86-4.66-2.59C5.57 36 6.64 35 10.59 34zm-5.15 9.78v-4.4a16 16 0 0 0 3.19 1.46v5.07L8 45.68h0c-1.66-.68-2.56-1.36-2.56-1.9zm3.19 11.71v-4.4a16.21 16.21 0 0 0 3.19 1.46v5.09c-2.07-.77-3.19-1.55-3.19-2.15zm50 2.15v-5.09a16.49 16.49 0 0 0 3.19-1.46v4.4c0 .6-1.13 1.38-3.19 2.15zm3.17-9.51c-.11.72-1.75 1.67-4.66 2.57a71 71 0 0 1-17.12 2.56h-9.69A71.07 71.07 0 0 1 13.3 50.7c-2.81-.87-4.44-1.79-4.64-2.5l1 .32h.1l.89.25.34.1.52.13a77.19 77.19 0 0 0 14.17 2h0c1.65.09 3.34.16 5 .18h3.14c1.55 0 3.09-.08 4.58-.17h0c1.83-.11 3.59-.27 5.3-.46h.08c1.89-.22 3.68-.49 5.35-.8l1-.2h.22A28.64 28.64 0 0 0 58.14 47l.29-.17.34-.21c.1-.07.22-.13.31-.2 2.11.75 2.68 1.42 2.75 1.69zm0-13.9v-5.1a16.21 16.21 0 0 0 3.2-1.46v4.41c0 .59-1.13 1.37-3.19 2.15z" fill="#efa440" stroke="#fff" stroke-width=".5"/><path d="M.83.83l68.82 68.82m-68.82 0L69.65.83" fill="none" stroke="#efa440" stroke-width="2.35"/></g></svg>