<svg xmlns="http://www.w3.org/2000/svg" viewBox="0 0 78.83 78.83"><defs><style>.cls-1{fill:#efa440;stroke:#fff;stroke-miterlimit:10;stroke-width:.47px}</style></defs><g id="Слой_2" data-name="Слой 2"><g id="landing"><path class="cls-1" d="M65.51 8.35l8.9 8.9h-8.9v-8.9zm11.86 54.54a1.23 1.23 0 0 0 1.23-1.23V18.48a1.23 1.23 0 0 0-.36-.87L65.15 4.52a1.23 1.23 0 0 0-.87-.36H36.72v-.24A3.69 3.69 0 0 0 33 .24H3.92A3.68 3.68 0 0 0 .24 3.92v39.59a3.69 3.69 0 0 0 3.68 3.68h9.4v30.18a1.23 1.23 0 0 0 1.23 1.23h62.82a1.23 1.23 0 0 0 1.23-1.23v-9.16a1.23 1.23 0 1 0-2.46 0v7.93H15.78V47.19H33a3.7 3.7 0 0 0 3.68-3.68V22.4a1.23 1.23 0 1 0-2.46 0v21.11A1.22 1.22 0 0 1 33 44.73H3.92a1.23 1.23 0 0 1-1.23-1.22V3.92a1.23 1.23 0 0 1 1.23-1.23H33a1.23 1.23 0 0 1 1.22 1.23v11.94a1.23 1.23 0 1 0 2.46 0V6.62h26.38v11.86a1.23 1.23 0 0 0 1.23 1.22h11.85v42a1.23 1.23 0 0 0 1.23 1.23z"/><path class="cls-1" d="M30.58 56.51H22.4a1.23 1.23 0 0 0 0 2.45h8.18a1.23 1.23 0 1 0 0-2.45zm0 6.54H22.4a1.23 1.23 0 0 0 0 2.46h8.18a1.23 1.23 0 0 0 0-2.46zm10.01-15.56a1.22 1.22 0 0 0-1.65.52 18.24 18.24 0 1 0 3-4.21 1.23 1.23 0 1 0 1.77 1.7 15.65 15.65 0 0 1 11.39-4.86 15.79 15.79 0 1 1-15.77 15.79 15.65 15.65 0 0 1 1.78-7.29 1.22 1.22 0 0 0-.52-1.65zM30.34 10.71H6.62V6.62h23.72v4.09zm2.45-5.32a1.23 1.23 0 0 0-1.23-1.23H5.39a1.23 1.23 0 0 0-1.23 1.23v6.54a1.23 1.23 0 0 0 1.23 1.23h26.17a1.23 1.23 0 0 0 1.23-1.23V5.39zM9.4 19.87H6.62v-2.78H9.4v2.78zm2.45-4a1.23 1.23 0 0 0-1.23-1.23H5.39a1.23 1.23 0 0 0-1.23 1.23v5.23a1.23 1.23 0 0 0 1.23 1.23h5.23a1.23 1.23 0 0 0 1.23-1.23v-5.24zm8.02 4h-2.78v-2.78h2.78v2.78zm2.45-4a1.23 1.23 0 0 0-1.23-1.23h-5.23a1.23 1.23 0 0 0-1.23 1.23v5.23a1.23 1.23 0 0 0 1.23 1.23h5.23a1.23 1.23 0 0 0 1.23-1.23v-5.24zm8.02 4h-2.78v-2.78h2.78v2.78zm2.45-4a1.23 1.23 0 0 0-1.23-1.23h-5.23a1.23 1.23 0 0 0-1.23 1.23v5.23a1.23 1.23 0 0 0 1.23 1.23h5.23a1.23 1.23 0 0 0 1.23-1.23v-5.24zM9.4 30.34H6.62v-2.78H9.4v2.78zm2.45-4a1.23 1.23 0 0 0-1.23-1.23H5.39a1.23 1.23 0 0 0-1.23 1.23v5.23a1.23 1.23 0 0 0 1.23 1.23h5.23a1.23 1.23 0 0 0 1.23-1.23v-5.24zm8.02 4h-2.78v-2.78h2.78v2.78zm2.45-4a1.23 1.23 0 0 0-1.23-1.23h-5.23a1.23 1.23 0 0 0-1.23 1.23v5.23a1.23 1.23 0 0 0 1.23 1.23h5.23a1.23 1.23 0 0 0 1.23-1.23v-5.24zM9.4 40.81H6.62V38H9.4v2.79zm1.22-5.24H5.39a1.23 1.23 0 0 0-1.23 1.23V42a1.23 1.23 0 0 0 1.23 1.23h5.23A1.23 1.23 0 0 0 11.85 42v-5.2a1.23 1.23 0 0 0-1.23-1.23zm9.25 5.24h-2.78V38h2.78v2.79zm1.22-5.24h-5.23a1.23 1.23 0 0 0-1.23 1.23V42a1.23 1.23 0 0 0 1.23 1.23h5.23A1.23 1.23 0 0 0 22.32 42v-5.2a1.23 1.23 0 0 0-1.23-1.23zm9.25 5.24h-2.78V27.56h2.78v13.25zm1.22-15.71h-5.23a1.23 1.23 0 0 0-1.23 1.23V42a1.23 1.23 0 0 0 1.23 1.23h5.23A1.23 1.23 0 0 0 32.79 42V26.33a1.23 1.23 0 0 0-1.23-1.23zm37.97 11.38l-.23.23a1.23 1.23 0 0 1-1.74 0L61.84 31l2-2 5.73 5.72a1.23 1.23 0 0 1 0 1.74zM47.79 15l2.45.5 11.83 11.78-2 2-11.79-11.86-.49-2.42zm3.93-1.5a1.26 1.26 0 0 0-.63-.34l-4.55-.91-2.19-2.45a1.22 1.22 0 1 0-1.81 1.65s2.52 2.76 2.6 2.81l.8 4a1.27 1.27 0 0 0 .34.62l19.55 19.56a3.67 3.67 0 0 0 5.2 0l.24-.23a3.69 3.69 0 0 0 0-5.2l-.18-.18L73 30.92a1.23 1.23 0 0 0 0-1.75l-6.69-6.35a1.23 1.23 0 0 0-1.71 1.78l5.77 5.48-1 1-17.65-17.62z"/><path class="cls-1" d="M47.44 57h2.27V45.53a16.19 16.19 0 0 1 2.62-.38c.93-.07 1.85-.1 2.77-.1a14.8 14.8 0 0 1 2.91.29 6.58 6.58 0 0 1 2.53 1.06 5.58 5.58 0 0 1 1.78 2.08 8.63 8.63 0 0 1 0 6.74 6 6 0 0 1-1.83 2.18 7.27 7.27 0 0 1-2.6 1.19 14 14 0 0 1-3 .38h-2.53v2.27h5.34v2h-5.32v4.49h-2.67v-4.46h-2.27v-2h2.27V59h-2.27zm7.73-9.65h-1.59a8.81 8.81 0 0 0-1.2.15v9.27h2.43a9.64 9.64 0 0 0 1.93-.19 4.39 4.39 0 0 0 1.73-.74 3.88 3.88 0 0 0 1.25-1.48 5.27 5.27 0 0 0 .45-2.48 4.92 4.92 0 0 0-.37-2.19 3.53 3.53 0 0 0-1.09-1.41 4.3 4.3 0 0 0-1.6-.75 8.12 8.12 0 0 0-1.94-.23z"/></g></g></svg>