<svg xmlns="http://www.w3.org/2000/svg" viewBox="0 0 76.1 75.51"><path d="M72.34 11.43L60.1 21.49a1.4 1.4 0 0 0 .38 2.39l8.67 3.34a2 2 0 0 1 .6 3.31A101 101 0 0 0 44 65.13c.77-9.45 2.35-24.54 5.24-35.14a257.37 257.37 0 0 1 8.8-26.58.58.58 0 0 1 .56-.41.49.49 0 0 1 .21 0l13 5A2 2 0 0 1 73 9.6a1.92 1.92 0 0 1-.69 1.83zm3.46-2.28a4.72 4.72 0 0 0-3-3.69l-13-5a3.39 3.39 0 0 0-4.36 1.91 259.78 259.78 0 0 0-8.9 26.88C42 46 40.64 73.52 40.63 73.8a1.39 1.39 0 0 0 1.13 1.44 1.24 1.24 0 0 0 .27 0 1.41 1.41 0 0 0 1.32-.94 98.41 98.41 0 0 1 28.24-41.65 4.76 4.76 0 0 0-1.43-8l-6.43-2.48 10.39-8.57a4.73 4.73 0 0 0 1.68-4.45zm-46.26 20.1a259.78 259.78 0 0 0-8.9-26.88A3.39 3.39 0 0 0 16.28.46l-13 5A4.77 4.77 0 0 0 2 13.6l10.39 8.53-6.45 2.48a4.76 4.76 0 0 0-1.43 8c1.49 1.39 3 2.73 4.42 4.13a1.4 1.4 0 0 0 2-2c-1.47-1.45-3-2.86-4.55-4.22a2 2 0 0 1 .59-3.31l8.68-3.34a1.4 1.4 0 0 0 .35-2.38L3.76 11.43a1.92 1.92 0 0 1-.69-1.83A2 2 0 0 1 4.3 8.07l13-5a.58.58 0 0 1 .75.33A256.49 256.49 0 0 1 26.84 30c2.88 10.56 4.46 25.58 5.23 35-3.23-7.26-8.14-16.23-15-23.66A1.4 1.4 0 0 0 15 43.29c10 10.72 15.74 25.28 17.76 31a1.41 1.41 0 0 0 1.32.94 1.24 1.24 0 0 0 .27 0 1.38 1.38 0 0 0 1.13-1.44c0-.28-1.36-27.81-5.93-44.55zm.33-26.01l5 2.67-5 2.81V3.24zm15.87 0v5.49l-5-2.81 5-2.67zm-17.43 8.14a2.41 2.41 0 0 0 1.27.35 2.53 2.53 0 0 0 1.22-.32l7-3.92 7 3.93a2.53 2.53 0 0 0 1.22.32 2.41 2.41 0 0 0 1.27-.35 2.47 2.47 0 0 0 1.24-2.16V2.77A2.5 2.5 0 0 0 44.85.55l-7 3.75-7-3.76a2.52 2.52 0 0 0-3.69 2.22v6.46a2.47 2.47 0 0 0 1.24 2.16z" fill="#efa440" stroke="#fff" stroke-miterlimit="10" stroke-width=".47" data-name="Слой 2"/></svg>