<svg xmlns="http://www.w3.org/2000/svg" viewBox="0 0 75.46 67.68"><g stroke-miterlimit="10" data-name="Слой 2"><path d="M.23 65.03h75v2.42h-75v-2.42zm6.06-18.15h4.84v13.3H6.29v-13.3zM3.86 62.61h9.67V44.46H3.86v18.15zM20.8 39.62h4.84v20.56H20.8V39.62zm7.26 23V37.2h-9.67v25.41zm7.25-30.25h4.84V60.2h-4.84V32.37zm7.26 30.24V30H32.9v32.61zm7.25-37.5h4.84v35.07h-4.84V25.11zm7.27 37.5V22.69h-9.67v39.92zm7.26-44.77h4.83v42.34h-4.85V17.84zm-2.42 44.77h9.67V15.44h-9.67v47.17z" fill="#efa440" stroke="#fff" stroke-width=".46"/><path stroke="#efa440" stroke-width="1.86" fill="#efa440" d="M.54 34.29L66.19 1.46"/><path fill="none" stroke="#efa440" stroke-width="1.86" d="M53.3 1.73l13.52-.7-7.83 9.88"/></g></svg>