<svg xmlns="http://www.w3.org/2000/svg" viewBox="0 0 68.78 78.5"><defs><style>.cls-1{fill:#efa440;stroke:#fff;stroke-miterlimit:10;stroke-width:.23px}</style></defs><g id="Слой_2" data-name="Слой 2"><g id="landing"><path class="cls-1" d="M29.17 28.1l.95-5.21a1.19 1.19 0 0 0-.36-1.07L26 18.14l5.22-.71c.35 0 .71-.35.95-.59l2.37-4.75 2.37 4.75a.94.94 0 0 0 .95.59l5.22.71-3.8 3.68a1.65 1.65 0 0 0-.36 1.07l1 5.21-4.62-2.49a.88.88 0 0 0-.59-.12 1.08 1.08 0 0 0-.6.12l-4.94 2.49zm11.5 3.21a1.36 1.36 0 0 0 1.33-.12 1.14 1.14 0 0 0 .45-1.19l-1.18-7 5.1-4.86a1.2 1.2 0 0 0 .35-1.14 1.13 1.13 0 0 0-.95-.83l-7-1.07-3.08-6.33a1.22 1.22 0 0 0-2.13 0l-3.08 6.29-7 1.07a1.13 1.13 0 0 0-.95.83 1.06 1.06 0 0 0 .36 1.18L28 23l-1.2 7a1.14 1.14 0 0 0 .47 1.19 1.32 1.32 0 0 0 1.31.12L34.86 28l5.81 3.33z"/><path class="cls-1" d="M17.91 76v-9.71H51V76zm6.52-16.84h19.8V64h-19.8v-4.83zm5.81-18.5c-5.22-1.54-9.84-5.81-12.93-12A44 44 0 0 1 13 9.13c0-1.66.12-4.86.24-6.64H55.5c.12 1.9.23 5.1.23 6.64a44 44 0 0 1-4.15 19.57c-3.08 6.16-7.7 10.43-12.92 12a2.76 2.76 0 0 0-2.14 2.61v13.4h-4.15V43.28a3.07 3.07 0 0 0-2.13-2.61zM5.45 9.6v-.47h5.22a47.91 47.91 0 0 0 3 17A20.47 20.47 0 0 1 5.45 9.6zm57.87 0a20.69 20.69 0 0 1-8.18 16.61 48.14 48.14 0 0 0 3-17.08h5.21v.47zM67.47 76H53.24V65.1a1.11 1.11 0 0 0-1.18-1.18H46.6v-6.05a1.12 1.12 0 0 0-1.18-1.19h-6.64v-13.4a.51.51 0 0 1 .35-.35c5.69-1.66 10.79-6.29 14.11-12.93A23 23 0 0 0 65.46 9.49V7.94a1.12 1.12 0 0 0-1.19-1.18h-6.4c0-1.9-.12-4.39-.24-5.58A1.25 1.25 0 0 0 56.45.12H12.21A1.25 1.25 0 0 0 11 1.18c-.12 1.19-.24 3.68-.24 5.58H4.27a1.12 1.12 0 0 0-1.19 1.18V9.6A22.78 22.78 0 0 0 15.3 30.12c3.44 6.64 8.42 11.15 14.11 12.93a.36.36 0 0 1 .35.35v13.4h-6.64a1.12 1.12 0 0 0-1.18 1.2v6h-5.46a1.12 1.12 0 0 0-1.18 1.19V76h-14a1.19 1.19 0 0 0 0 2.37h66.17a1.12 1.12 0 0 0 1.19-1.18A1.19 1.19 0 0 0 67.47 76z"/></g></g></svg>