<svg xmlns="http://www.w3.org/2000/svg" viewBox="0 0 70.75 78.07"><path d="M35.38.23c2 0 3.51 1.43 4.95 2.84a7.91 7.91 0 0 0 2.29 1.8 7.4 7.4 0 0 0 3-.12c1.92-.28 3.83-.57 5.39.57s1.86 3.06 2.16 5a7.33 7.33 0 0 0 .75 2.78 7.54 7.54 0 0 0 2.41 1.57c1.75.87 3.51 1.76 4.14 3.63s-.23 3.61-1.09 5.39a8.22 8.22 0 0 0-1 2.95 8.22 8.22 0 0 0 1 2.95c.86 1.78 1.7 3.54 1.09 5.39s-2.47 2.74-4.19 3.61a11 11 0 0 0-2.12 1.26l16.16 28a1.5 1.5 0 0 1-.55 2.06 1.46 1.46 0 0 1-1 .19h0l-8.59-1.27L57 76.88a1.51 1.51 0 0 1-2.74.17l-4.9-8.49h0a1.49 1.49 0 0 1-.28-.88 1.51 1.51 0 0 1 2.92-.63l3.36 5.82 2.46-6.22a1.5 1.5 0 0 1 1.64-1l6.68 1L53 43.83a5.9 5.9 0 0 1-2 4.09c-1.56 1.14-3.47.85-5.39.56a7.56 7.56 0 0 0-3-.11 3.3 3.3 0 0 0-1 .64l4.32 7.49a1.49 1.49 0 0 1 .28.88 1.51 1.51 0 0 1-2.91.62h0l-4-6.88A5.87 5.87 0 0 1 35.38 53a5.82 5.82 0 0 1-4-1.88l-15 25.92a1.51 1.51 0 0 1-2.73-.17l-3.19-8.06L2 70.09h0a1.47 1.47 0 0 1-1-.19 1.5 1.5 0 0 1-.55-2.06l5.25-9.08a1.49 1.49 0 0 1 1.37-.89 1.52 1.52 0 0 1 1.52 1.52 1.46 1.46 0 0 1-.28.87l-3.7 6.38 6.68-1a1.49 1.49 0 0 1 1.64 1l2.46 6.23L29.17 49a3.54 3.54 0 0 0-1-.64 7.61 7.61 0 0 0-3 .11c-1.92.29-3.83.58-5.39-.56a5.9 5.9 0 0 1-2-4.09l-3.4 5.89a1.52 1.52 0 0 1-2.9-.63 1.49 1.49 0 0 1 .14-.63h0a2 2 0 0 1 .14-.25l4.83-8.36a10.68 10.68 0 0 0-2.12-1.26c-1.75-.86-3.47-1.75-4.14-3.58s.23-3.61 1.09-5.4a7.93 7.93 0 0 0 1-2.94 8 8 0 0 0-1-2.95c-.86-1.78-1.7-3.54-1.09-5.39s2.39-2.76 4.14-3.63a7.54 7.54 0 0 0 2.41-1.57 7.33 7.33 0 0 0 .75-2.78c.3-1.92.6-3.83 2.16-5s3.47-.86 5.39-.57a7.45 7.45 0 0 0 3 .12 8 8 0 0 0 2.28-1.8c1.44-1.41 2.9-2.84 5-2.84zM47.65 61a1.52 1.52 0 1 0 1.51 1.51A1.52 1.52 0 0 0 47.65 61zm-37.59-8.34a1.52 1.52 0 1 0 1.52 1.51 1.52 1.52 0 0 0-1.52-1.51zm25.32-41.79a15.76 15.76 0 1 0 11.13 4.62 15.71 15.71 0 0 0-11.13-4.62zm9 6.76a12.71 12.71 0 1 0 3.73 9 12.64 12.64 0 0 0-3.73-9zM26.65 29.45l4.8 4.8a1.51 1.51 0 0 0 2.14 0l9.6-9.6a1.51 1.51 0 1 0-2.14-2.14L32.52 31l-3.73-3.73a1.51 1.51 0 0 0-2.14 2.14zm15 16.06a9.39 9.39 0 0 1 4.35 0c1.31.2 2.61.4 3.16 0s.76-1.7 1-3a9.22 9.22 0 0 1 1.3-4.11 9.14 9.14 0 0 1 3.5-2.47c1.19-.6 2.39-1.2 2.62-1.89s-.36-1.9-1-3.13a10.06 10.06 0 0 1-1.34-4.26 10.06 10.06 0 0 1 1.34-4.26c.59-1.23 1.18-2.44 1-3.13s-1.43-1.29-2.62-1.89a9.14 9.14 0 0 1-3.5-2.47 9.22 9.22 0 0 1-1.3-4.11c-.2-1.29-.4-2.59-1-3s-1.85-.21-3.16 0a9.39 9.39 0 0 1-4.35 0 9.45 9.45 0 0 1-3.45-2.51c-1-1-2-2-2.84-2s-1.85 1-2.85 2a9.45 9.45 0 0 1-3.45 2.51 9.39 9.39 0 0 1-4.35 0c-1.3-.2-2.6-.4-3.16 0s-.76 1.71-1 3a9.09 9.09 0 0 1-1.3 4.11 9.18 9.18 0 0 1-3.49 2.47c-1.2.6-2.4 1.2-2.63 1.89s.36 1.9 1 3.13a10.06 10.06 0 0 1 1.34 4.26 10.06 10.06 0 0 1-1.34 4.26c-.59 1.23-1.17 2.44-1 3.13s1.43 1.29 2.63 1.89a9.18 9.18 0 0 1 3.49 2.47 9.09 9.09 0 0 1 1.3 4.11c.2 1.3.41 2.59 1 3s1.86.21 3.16 0a9.39 9.39 0 0 1 4.35 0 8.33 8.33 0 0 1 3 2.08l.08.08.36.35c1 1 2 2 2.85 2s1.84-1 2.84-2a9.51 9.51 0 0 1 3.45-2.51z" fill="#efa440" stroke="#fff" stroke-miterlimit="10" stroke-width=".45" fill-rule="evenodd" data-name="Слой 2"/></svg>