<svg xmlns="http://www.w3.org/2000/svg" viewBox="0 0 74.09 75.26"><defs><style>.cls-1{fill:#efa440}</style></defs><g id="Слой_2" data-name="Слой 2"><g id="landing"><path class="cls-1" d="M20.22 12.58a3.64 3.64 0 0 0 3.42 2.47H33a3.63 3.63 0 0 0 3.42-2.47c.49-1.42 2-4.57 3.21-5.57a3.75 3.75 0 0 0 1.27-3.57A3.58 3.58 0 0 0 38.44.7c-3.77-1.25-7.1-.82-9.66 1.22a1.2 1.2 0 0 1-1.52 0C24.7-.12 21.37-.55 17.6.7a3.58 3.58 0 0 0-2.42 2.74A3.75 3.75 0 0 0 16.45 7a19.58 19.58 0 0 1 3.77 5.57zm-2.58-8.66a1.08 1.08 0 0 1 .75-.83 10.29 10.29 0 0 1 3.26-.59 6.29 6.29 0 0 1 4 1.37 3.69 3.69 0 0 0 4.66 0c1.89-1.5 4.34-1.76 7.3-.78a1.06 1.06 0 0 1 .75.83A1.22 1.22 0 0 1 38 5.09c-1.91 1.62-3.62 5.74-4 6.67a1.12 1.12 0 0 1-1 .78h-9.36a1.12 1.12 0 0 1-1.05-.78 21.91 21.91 0 0 0-4.51-6.67 1.22 1.22 0 0 1-.44-1.17zM39 17.56a1.26 1.26 0 0 0-1.25-1.26 1.24 1.24 0 0 0-.63.2 1.12 1.12 0 0 0-.62-.2H21.4a1.26 1.26 0 0 0 0 2.51h15.06v1.26h-13.8a1.25 1.25 0 1 0 0 2.5h15a6.23 6.23 0 0 0 8.34-.36 1.25 1.25 0 0 0-1.77-1.77 3.87 3.87 0 0 1-5.31 0zM26.42 32.61c-8 0-17.56 10.2-17.56 18.82a1.26 1.26 0 0 0 2.51 0c0-7.17 8.44-16.31 15.05-16.31a1.26 1.26 0 0 0 0-2.51z"/><path class="cls-1" d="M61.54 40.13a39.18 39.18 0 0 0-4.39.26 24.71 24.71 0 0 0-6.72-7.91l-9-6.14a11.12 11.12 0 0 0-6.58-2.51h-9.79a10.86 10.86 0 0 0-6.65 2.28l-8.88 6.47a24.6 24.6 0 0 0-7 30.32c1.9 3.74 5.07 8.26 9.41 8.56h25.4a10 10 0 0 0 16.4-1.09 27.13 27.13 0 0 0 7.73 1.09c6 0 12.55-1.92 12.55-5v-6.88H74a2.19 2.19 0 0 0 .11-.63V44.52c0-3.46-7.89-4.39-12.55-4.39zm9.94 4.38l-.08.09-.18.12-.29.16-.29.14-.44.18-.41.14-.6.18-.52.14-.77.17-.61.12c-.3.06-.64.1-1 .14l-.69.1-1.26.1c-.22 0-.42.05-.65.06-.68 0-1.41.06-2.18.06s-1.5 0-2.19-.06c-.23 0-.43 0-.65-.06l-1.26-.1-.69-.1c-.33 0-.66-.08-1-.14l-.62-.12-.77-.17-.51-.14-.61-.18-.4-.14a4.96 4.96 0 0 1-.44-.18l-.3-.14-.29-.16-.17-.12-.08-.08a1.25 1.25 0 0 1 .17-.12 3.9 3.9 0 0 1 .38-.22l.25-.12.33-.13.45-.16.34-.11c.28-.09.59-.17.92-.25l.51-.11.64-.13.77-.13a34.85 34.85 0 0 1 5.13-.36c5.92 0 9.24 1.23 9.94 1.87zM52.35 54.83l.35.14.67.25.37.12c.26.08.53.16.82.23l.28.08c.38.09.77.19 1.17.26l.25.05 1 .16.42.06.85.1h.45l.9.06h3.37l.88-.06h.47l.83-.1.44-.06 1-.16.27-.05 1.17-.26.3-.08.8-.23.37-.12.68-.25.34-.14c.23-.09.44-.2.65-.3a1.21 1.21 0 0 0 .2-.09v4.42c-.3.71-3.54 2.3-8.65 2.56h-1.4a23.57 23.57 0 0 1-7.6-1.13c-.15-.26-.3-.51-.47-.75l-.08-.11c-.16-.22-.32-.43-.5-.64l-.16-.18c-.15-.17-.31-.35-.48-.51s-.18-.15-.26-.24l-.44-.39v-3l.2.1.64.29zM35.78 69H12.13c-2.46-.16-5.07-2.71-7.33-7.19a22.06 22.06 0 0 1 6.24-27.18l8.87-6.46a8.32 8.32 0 0 1 5.13-1.78h9.76a8.78 8.78 0 0 1 5.11 2l9 6.14a22.19 22.19 0 0 1 5.57 6.28 11.72 11.72 0 0 0-4.18 1.55l-.08.07a3.13 3.13 0 0 0-.44.36 1.29 1.29 0 0 0-.16.17 2.16 2.16 0 0 0-.27.33c-.06.1-.11.2-.16.3a1.85 1.85 0 0 0-.13.29 2.08 2.08 0 0 0-.12.66v11.39a9.43 9.43 0 0 0-1.3-.43h-.18a10 10 0 0 0-1.35-.23H44.5c-.45 0-.89.09-1.32.17h-.09a11 11 0 0 0-1.16.33l-.4.15a10.64 10.64 0 0 0-1.08.51l-.38.23q-.37.23-.72.48l-.41.3a10 10 0 0 0-.83.76c-.12.12-.22.24-.33.37s-.37.43-.54.66l-.28.36a9.26 9.26 0 0 0-.6 1c-.07.13-.13.27-.19.41a7.89 7.89 0 0 0-.39 1l-.1.27a9 9 0 0 0-.3 1.27v.37c0 .3-.06.6-.07.9v1.05a12 12 0 0 0 .47 3.14zm9.45 3.75a7.52 7.52 0 0 1-7.52-7.43v-1.4a7.73 7.73 0 0 1 .23-.95.54.54 0 0 0 0-.1 7.41 7.41 0 0 1 .38-.92.59.59 0 0 0 0-.08 7.79 7.79 0 0 1 3-3.19 7.62 7.62 0 0 1 .91-.44l.25-.09a5.93 5.93 0 0 1 .85-.24.53.53 0 0 1 .12 0 6.78 6.78 0 0 1 1.09-.14H45a8.12 8.12 0 0 1 1.11 0h.06a9.21 9.21 0 0 1 1.13.23 7.08 7.08 0 0 1 1.13.43 7.56 7.56 0 0 1 1 .54l.13.09a7 7 0 0 1 .6.48 1.59 1.59 0 0 1 .13.13 5.71 5.71 0 0 1 .55.55v.06a7.16 7.16 0 0 1 1 1.53c.07.12.13.25.19.38s.18.44.25.67v.05c.07.22.13.45.18.68a.13.13 0 0 1 0 .06 5.37 5.37 0 0 1 .11.7.13.13 0 0 1 0 .06 6.51 6.51 0 0 1 0 .77 6.85 6.85 0 0 1 0 .79v.12c0 .23-.06.45-.1.67a.24.24 0 0 0 0 .08c-.06.24-.13.47-.2.71-.09.25-.18.49-.29.73a7.54 7.54 0 0 1-6.85 4.4zM61.54 69a24.57 24.57 0 0 1-6.7-.89 7.54 7.54 0 0 0 .28-1.25 2.87 2.87 0 0 0 .05-.31 9.39 9.39 0 0 0 .1-1.31c0-.33 0-.65-.05-1v-.35a3.93 3.93 0 0 0-.06-.48 36.15 36.15 0 0 0 6.43.54c3 0 7.33-.39 10-1.58v4c-.32.77-4.13 2.6-10.05 2.6zm0-15.06c-5.9 0-9.7-1.81-10-2.5v-4.09h.1c.29.13.61.25.94.36h.06c.34.11.7.21 1.06.3l.37.08c.27.06.54.13.82.17l.4.08.93.15h.28l1.22.15h.3l.92.07h5.22l.92-.07h.3l1.22-.14h.29l.92-.15.4-.08.82-.17.37-.09c.37-.09.74-.19 1.08-.3h.06c.32-.11.64-.23.93-.35l.11-.05v4c-.32.78-4.13 2.6-10.05 2.6z"/></g></g></svg>