<svg xmlns="http://www.w3.org/2000/svg" viewBox="0 0 55.61 57.5"><path d="M6.77 29.81c0-.45.06-1.82 1.08-2.21s2 .61 2.2.82a.81.81 0 0 1 0 1.15.83.83 0 0 1-1.16 0 1.68 1.68 0 0 0-.37-.3 3 3 0 0 0-.07.61 2.85 2.85 0 0 0 1.64 2.81.82.82 0 0 1 .52.69c.49 5.78 5 7.65 7.16 7.65s6.69-1.87 7.17-7.65a.83.83 0 0 1 .53-.7 2.83 2.83 0 0 0 1.63-2.8 3 3 0 0 0-.07-.61 1.74 1.74 0 0 0-.37.3.83.83 0 0 1-1.16 0 .82.82 0 0 1 0-1.15c.19-.2 1.19-1.19 2.2-.82s1.06 1.76 1.07 2.21A4.41 4.41 0 0 1 26.48 34c-.72 6-5.49 8.69-8.75 8.69S9.71 39.94 9 34a4.46 4.46 0 0 1-2.21-4.14zm11 16.79a2.68 2.68 0 0 0 2.29-2.6h-4.65a2.67 2.67 0 0 0 2.33 2.58zm1.48.3a.83.83 0 0 0-.61.13 2.8 2.8 0 0 1-.87.4 2.64 2.64 0 0 1-.88-.4.83.83 0 0 0-.61-.13.84.84 0 0 0-.53.34c-.33.49-1.94 8.79-2 8.87a.82.82 0 0 0 1.61.29c.28-1.54 1.13-5.65 1.55-7.5a3.66 3.66 0 0 0 .72.18h.17a3.65 3.65 0 0 0 .71-.18c.42 1.85 1.28 6 1.56 7.5a.81.81 0 0 0 .8.67H21a.83.83 0 0 0 .67-1c0-.08-1.62-8.38-1.95-8.87a.84.84 0 0 0-.53-.34zM7.59 53.68a.82.82 0 0 0-.82.81v1.76a.82.82 0 0 0 1.64 0v-1.76a.81.81 0 0 0-.82-.81zm3-30.82a6.35 6.35 0 0 0-1.39 3.27.8.8 0 0 0 .7.91h.1a.83.83 0 0 0 .81-.71 4.72 4.72 0 0 1 1-2.43.82.82 0 1 0-1.26-1.05zM24.2 27a.82.82 0 0 0 1.64 0c0-4.7-3.51-6-5.37-6H13a.82.82 0 1 0 0 1.63h7.45c.38 0 3.75.21 3.75 4.38zm2.72-1.82H27a.81.81 0 0 0 .72-.9 6.45 6.45 0 0 0-6.64-5.84h-7a.82.82 0 0 0 0 1.64h7c.18 0 4.49 0 5 4.39a.82.82 0 0 0 .81.72zM54.79 0H1a.82.82 0 0 0-.84.82V43.5a.82.82 0 0 0 .82.82H6a14.3 14.3 0 0 0-6 11.93.82.82 0 0 0 1.64 0 13.16 13.16 0 0 1 8.53-12.5l.11 2a.8.8 0 0 0 .4.66.79.79 0 0 0 .42.12.93.93 0 0 0 .35-.08l2.73-1.28a.83.83 0 0 0 .39-1.09.81.81 0 0 0-1.09-.39l-1.63.76-.18-3.22a.82.82 0 0 0-.86-.77.8.8 0 0 0-.77.86v.71c-.36.14-.87.34-1.47.64H1.79v-41H54v41H39.59c2.62-5.55 2.06-12.23 2-12.57a.82.82 0 0 0-.81-.75h-4a.82.82 0 0 0-.82.82c0 4.19-1.12 7.23-3.33 9-2.56 2.11-6 2-7.34 1.89a.8.8 0 0 0-.74-.64.81.81 0 0 0-.86.77l-.18 3.22-1.51-.65a.82.82 0 1 0-.7 1.48l2.59 1.22a.89.89 0 0 0 .35.08.79.79 0 0 0 .42-.12.8.8 0 0 0 .4-.66l.17-3a11.72 11.72 0 0 0 8.41-2.26c2.46-2 3.77-5.2 3.92-9.49H40c.08 2.37 0 9.8-4 14.14a10.58 10.58 0 0 1-8.16 3.29.82.82 0 1 0 0 1.64 12.15 12.15 0 0 0 9.37-3.83 13.25 13.25 0 0 0 1.45-1.92h4v12.35a.82.82 0 0 0 1.64 0V44.32h2v12.36a.82.82 0 1 0 1.64 0V44.32h6.75a.82.82 0 0 0 .82-.82V.82a.82.82 0 0 0-.72-.82zM27.88 51.11a.82.82 0 0 0-.82.82v4.32a.82.82 0 0 0 1.64 0v-4.32a.82.82 0 0 0-.82-.82zM24.52 6.72a.82.82 0 1 0 0-1.64H9.92a.82.82 0 1 0 0 1.64zM5.61 9.14a.82.82 0 0 0 .82.82h18.09a.82.82 0 0 0 0-1.64H6.43a.82.82 0 0 0-.82.82zm.82 4.06h18.09a.82.82 0 1 0 0-1.64H6.43a.82.82 0 0 0 0 1.64zm0 3.24h18.09a.82.82 0 1 0 0-1.64H6.43a.82.82 0 0 0 0 1.64zm45.68-9.06a.82.82 0 1 0-1-1.25l-8.87 7.5-4.69-4.87a.83.83 0 0 0-1.12-.15l-5.57 4.68a.82.82 0 0 0 1 1.32l4.93-4.21 4.67 4.91a.85.85 0 0 0 .57.3h.08a.81.81 0 0 0 .53-.2zm-14.24 8.27l-.26 6a9.28 9.28 0 0 1 1-.05c.88 0 3.58 0 3.58 2.64v1.13a3.58 3.58 0 1 1-7.16 0v-1.18a2.3 2.3 0 0 1 1-2l.28-6.57a.86.86 0 0 1 .86-.78.82.82 0 0 1 .78.85zm.69 7.54c-2 0-2 .53-2 1v1.13a1.95 1.95 0 0 0 3.89 0v-1.13c0-.47 0-1-1.94-1zm-20.73 7v4.15h-1a.82.82 0 0 0 0 1.64h1.83a.82.82 0 0 0 .82-.82v-5a.82.82 0 0 0-1.64 0z" fill="#efa440" data-name="Слой 2"/></svg>