<svg xmlns="http://www.w3.org/2000/svg" viewBox="0 0 71.88 72.26"><defs><style>.cls-1,.cls-2{fill:#efa440}.cls-2{stroke:#fff;stroke-miterlimit:10;stroke-width:.75px}</style></defs><g id="Слой_2" data-name="Слой 2"><g id="landing"><path class="cls-1" d="M69.07 69.45H53V65.2a11.81 11.81 0 0 0-.74-4.13 6.3 6.3 0 0 1 1.92-.64l3.8 3.8a1.41 1.41 0 0 0 2 0l3.8-3.8a6.35 6.35 0 0 1 5.31 6.26v2.76zm-21.62 0H21.7v-2.81h9.14a1.41 1.41 0 0 0 0-2.81h-9a9.15 9.15 0 0 1 7.81-7.68L35 61.49a1.38 1.38 0 0 0 2 0l5.34-5.34a9.15 9.15 0 0 1 7.91 9.05v4.25zM2.81 66.69a6.35 6.35 0 0 1 5.31-6.26l3.8 3.8a1.43 1.43 0 0 0 1 .41 1.41 1.41 0 0 0 1-.41l3.8-3.8a6.58 6.58 0 0 1 1.92.64 11.81 11.81 0 0 0-.74 4.13v4.25H2.81v-2.76zM9.25 49.3a2.46 2.46 0 0 1 2.46-2.46h4.87v1.71a1.52 1.52 0 0 1-1.52 1.52H9.25v-.77zm4.57 11.05l-.9.9-.91-.9zm2.76-6.47a3.67 3.67 0 0 1-7.33 0v-1h5.81a4.54 4.54 0 0 0 1.52-.27v1.27zm13.88-12.32a3.84 3.84 0 0 1 3.84-3.84h7.12v2.83a2.58 2.58 0 0 1-2.57 2.57h-8.39v-1.56zm7.93 14.51l-2.45 2.45-2.45-2.45zm-7.93-10.14h8.39a5.31 5.31 0 0 0 2.57-.66v2.51a5.48 5.48 0 0 1-11 0v-1.85zM55.3 49.3a2.46 2.46 0 0 1 2.46-2.46h4.87v1.71a1.53 1.53 0 0 1-1.52 1.52H55.3v-.77zm4.57 11.05l-.91.9-.9-.9zm2.76-6.47a3.67 3.67 0 0 1-7.33 0v-1h5.81a4.54 4.54 0 0 0 1.52-.27v1.27zm1.58 3.78a6.41 6.41 0 0 0 1.22-3.78v-8.44A1.4 1.4 0 0 0 64 44h-6.24a5.26 5.26 0 0 0-5.26 5.3v4.58a6.44 6.44 0 0 0 1.22 3.78 8.85 8.85 0 0 0-2.74.91 12 12 0 0 0-8.82-5.26 8.21 8.21 0 0 0 2.12-5.52V36.32a1.41 1.41 0 0 0-1.41-1.41H34.3a6.65 6.65 0 0 0-6.65 6.65v6.22a8.21 8.21 0 0 0 2.12 5.52h-.05a12 12 0 0 0-8.82 5.26 8.85 8.85 0 0 0-2.74-.91 6.45 6.45 0 0 0 1.23-3.78v-8.43A1.41 1.41 0 0 0 18 44h-6.29a5.27 5.27 0 0 0-5.26 5.3v4.58a6.41 6.41 0 0 0 1.22 3.78 9.17 9.17 0 0 0-7.67 9v4.16a1.41 1.41 0 0 0 1.4 1.41h69.08a1.41 1.41 0 0 0 1.4-1.41v-4.13a9.17 9.17 0 0 0-7.67-9z"/><path class="cls-2" d="M29 13.46a1.39 1.39 0 0 0 0 2l4 4a1.41 1.41 0 0 0 2 0l7.88-7.89a1.4 1.4 0 0 0-2-2L34 16.44l-3-3a1.41 1.41 0 0 0-2 0z"/><path class="cls-1" d="M35.94 28.59a14.11 14.11 0 0 0 5.74-27 1.41 1.41 0 0 0-1.14 2.57 11.3 11.3 0 1 1-9.24 0 1.41 1.41 0 1 0-1.16-2.56 14.11 14.11 0 0 0 5.8 27z"/><path class="cls-2" d="M35.94 3.18a1.4 1.4 0 1 0 0-2.8h-.05a1.4 1.4 0 1 0 0 2.8zm0 60.65a1.41 1.41 0 0 0-1 .41 1.43 1.43 0 0 0-.41 1 1.4 1.4 0 1 0 2.8 0 1.43 1.43 0 0 0-.41-1 1.41 1.41 0 0 0-1-.41z"/></g></g></svg>