<svg xmlns="http://www.w3.org/2000/svg" viewBox="0 0 65.5 46.56"><defs><style>.cls-1{fill:#efa440}</style></defs><g id="Слой_2" data-name="Слой 2"><g id="landing"><path class="cls-1" d="M53 36a1 1 0 0 1-.73-.29L40.16 24.28a1.05 1.05 0 1 1 1.44-1.54l12.16 11.4A1.05 1.05 0 0 1 53 36zm-40.53 0a1 1 0 0 1-.77-.33 1 1 0 0 1 0-1.49l12.16-11.4a1.06 1.06 0 0 1 1.46 1.54L13.19 35.67a1 1 0 0 1-.72.29z"/><path class="cls-1" d="M60.22 46.56H5.28A5.28 5.28 0 0 1 0 41.28v-36A5.29 5.29 0 0 1 5.28 0h54.94a5.29 5.29 0 0 1 5.28 5.28v36a5.29 5.29 0 0 1-5.28 5.28zM5.28 2.11a3.18 3.18 0 0 0-3.17 3.17v36a3.18 3.18 0 0 0 3.17 3.17h54.94a3.16 3.16 0 0 0 3.16-3.17v-36a3.17 3.17 0 0 0-3.16-3.17z"/><path class="cls-1" d="M32.75 28.59a5.87 5.87 0 0 1-3.87-1.4L1.75 3.54a1.06 1.06 0 0 1 1.39-1.6L30.26 25.6a4 4 0 0 0 5 0L62.32 2a1.06 1.06 0 1 1 1.39 1.59L36.63 27.18a5.87 5.87 0 0 1-3.88 1.41z"/></g></g></svg>