<svg xmlns="http://www.w3.org/2000/svg" viewBox="0 0 72.8 72.8"><defs><style>.cls-1{fill:#efa440}</style></defs><g id="Слой_2" data-name="Слой 2"><g id="landing"><path class="cls-1" d="M38.2 36.61a1.42 1.42 0 0 0-2-2 1.42 1.42 0 1 0 2 2zm10.05-18.1a4.27 4.27 0 1 1 0 6 4.29 4.29 0 0 1 0-6zm8 8a7.11 7.11 0 1 0-10.06 0 7.12 7.12 0 0 0 10.06 0z"/><path class="cls-1" d="M23.76 19.71c2.33-1.25 4.87-1.12 7.57.36a57.55 57.55 0 0 0-6 9.73 1.56 1.56 0 0 0-.75-.44 12.21 12.21 0 0 0-7.78 1.18c.88-4.28 3.45-9 6.93-10.83zM38.2 16.5a44.47 44.47 0 0 1 16.16-10l11.92 11.94a44.47 44.47 0 0 1-10 16.16 51.61 51.61 0 0 1-4.1 3.68 54.4 54.4 0 0 1-11.34 7L27.49 31.94a54.4 54.4 0 0 1 7-11.34 51.61 51.61 0 0 1 3.68-4.1zm29.1-1.06L57.36 5.5A64.51 64.51 0 0 1 69.84 3a64.22 64.22 0 0 1-2.54 12.44zM53.09 49c-1.86 3.48-6.55 6.05-10.83 6.93a12.05 12.05 0 0 0 1.17-7.81 1.62 1.62 0 0 0-.43-.72 57.55 57.55 0 0 0 9.73-6c1.48 2.7 1.61 5.24.36 7.57zm-20.47-.75a1.35 1.35 0 0 1-1.25-.41l-6.45-6.45a1.35 1.35 0 0 1-.41-1.25 46.39 46.39 0 0 1 1.78-5.43l11.76 11.8a46.39 46.39 0 0 1-5.43 1.78zm-6.49 4.45c-1.95 1.95-6.54 3-9.44 3.41.42-2.9 1.46-7.49 3.41-9.44a10.33 10.33 0 0 1 3.64-2.4l4.79 4.79a10.33 10.33 0 0 1-2.4 3.64zm-11.6-17.79a1.49 1.49 0 0 0 .54.11 1.44 1.44 0 0 0 1-.42 9.06 9.06 0 0 1 7.53-2.53l.5.5a49.9 49.9 0 0 0-2.35 6.91 4 4 0 0 0 .18 2.52 13.44 13.44 0 0 0-3.84 2.71c-3.66 3.66-4.4 12.58-4.43 13a1.37 1.37 0 0 0 .41 1.12 1.42 1.42 0 0 0 1 .42h.12c.37 0 9.29-.77 13-4.43a13.44 13.44 0 0 0 2.71-3.84 4 4 0 0 0 2.47.17 49.9 49.9 0 0 0 6.91-2.35l.5.5a9.06 9.06 0 0 1-2.53 7.53 1.42 1.42 0 0 0 1 2.43c5.62 0 13.49-3.35 16.39-8.77 1.22-2.49 2.07-6.18-.64-10.82 1.16-1 2.28-2 3.33-3.06a47.56 47.56 0 0 0 11-18.06A63.07 63.07 0 0 0 72.8 1.47 1.44 1.44 0 0 0 71.33 0a63.07 63.07 0 0 0-17.08 3.54 47.56 47.56 0 0 0-18.06 11c-1 1-2.08 2.17-3.06 3.33-4.64-2.73-8.36-1.88-10.71-.62C17 20.1 13.65 28 13.65 33.59a1.43 1.43 0 0 0 .88 1.32z"/><path class="cls-1" d="M30.16 64.76l4-4a1.42 1.42 0 0 0-2-2l-4 4a1.42 1.42 0 0 0 2 2zM10.05 44.65l4-4a1.42 1.42 0 1 0-2-2l-4 4a1.42 1.42 0 0 0 2 2zm12.06 16.09l-9.63 9.63a1.43 1.43 0 0 0 0 2 1.41 1.41 0 0 0 2 0l9.63-9.63a1.41 1.41 0 0 0 0-2 1.43 1.43 0 0 0-2 0zm-11.37 0l-9.63 9.63a1.42 1.42 0 0 0 2 2l9.63-9.63a1.42 1.42 0 0 0-2-2zm-8.31-.42l9.63-9.63a1.43 1.43 0 0 0 0-2 1.41 1.41 0 0 0-2 0L.42 58.31a1.41 1.41 0 0 0 0 2 1.43 1.43 0 0 0 2 0zm39.79-27.73l2-2a1.42 1.42 0 0 0-2-2l-2 2a1.42 1.42 0 0 0 2 2z"/></g></g></svg>