<svg xmlns="http://www.w3.org/2000/svg" viewBox="0 0 61.93 54.14"><path d="M5 23.11a1.29 1.29 0 0 0 1 0l10.07-4.58a1.3 1.3 0 0 0 .6-1.73 1.26 1.26 0 0 0-1.67-.63l-7 3.21A24.9 24.9 0 0 1 55.51 21a1.29 1.29 0 0 0 2.49-.71 27.49 27.49 0 0 0-52.52-1.75l-3-7.41a1.29 1.29 0 1 0-2.45.79.77.77 0 0 0 .07.16l4.14 10.31a1.3 1.3 0 0 0 .72.72zm56.82 18.95l-4.11-10.31A1.27 1.27 0 0 0 57 31a1.34 1.34 0 0 0-1 0l-10.1 4.63a1.3 1.3 0 0 0 1 2.39L47 38l7-3.23a24.92 24.92 0 0 1-47.6-1.58 1.29 1.29 0 0 0-2.49.66 27.49 27.49 0 0 0 52.52 1.76l3 7.41a1.29 1.29 0 1 0 2.42-.88.19.19 0 0 1 0-.08z" fill="#efa440" data-name="Слой 2"/></svg>