<svg width="491" height="448" xmlns="http://www.w3.org/2000/svg">
        <g>
            <g transform="rotate(90 245.333 224.019)" id="arrow-down">
                <g id="svg_2">
                    <path d="m466.2192,216.46679l-234.667,-234.666c-2.004,-2 -4.721,-3.12 -7.552,-3.115l-192,0c-5.891,-0.011 -10.675,4.757 -10.686,10.648c-0.005,2.84 1.123,5.565 3.134,7.571l227.136,227.115l-227.136,227.114c-4.171,4.16 -4.179,10.914 -0.019,15.085c2.006,2.011 4.731,3.139 7.571,3.134l192,0c2.831,0.005 5.548,-1.115 7.552,-3.115l234.667,-234.667c4.171,-4.16 4.179,-10.914 0.019,-15.085c-0.007,-0.006 -0.013,-0.012 -0.019,-0.019z" fill="#383838" id="svg_3" xmlns="http://www.w3.org/2000/svg"/>
                </g>
            </g>
        </g>
</svg>
