<?xml version="1.0"?>
<svg xmlns="http://www.w3.org/2000/svg" xmlns:xlink="http://www.w3.org/1999/xlink" xmlns:svgjs="http://svgjs.com/svgjs" version="1.1" width="512" height="512" x="0" y="0" viewBox="0 0 512 512" style="enable-background:new 0 0 512 512" xml:space="preserve" class=""><g><g xmlns="http://www.w3.org/2000/svg"><path d="m512 215v-30c0-36.537-20.737-68.318-51.057-84.205 9.954-10.714 16.057-25.052 16.057-40.795 0-33.084-26.916-60-60-60-29.59 0-54.229 21.537-59.107 49.755-31.517-15.607-66.237-23.755-101.893-23.755s-70.375 8.148-101.893 23.755c-4.878-28.218-29.517-49.755-59.107-49.755-33.084 0-60 26.916-60 60 0 15.743 6.103 30.081 16.057 40.795-30.32 15.887-51.057 47.668-51.057 84.205v30c0 8.284 6.716 15 15 15h12.481c-.976 8.635-1.481 17.328-1.481 26 0 24.083 3.711 47.783 11.034 70.524-1.32 4.94-2.034 10.125-2.034 15.476 0 15.743 6.103 30.081 16.057 40.795-30.32 15.887-51.057 47.668-51.057 84.205v30c0 8.284 6.716 15 15 15h160c8.284 0 15-6.716 15-15v-20.625c21.317 6.39 43.429 9.625 66 9.625s44.683-3.234 66-9.625v20.625c0 8.284 6.716 15 15 15h160c8.284 0 15-6.716 15-15v-30c0-36.537-20.737-68.318-51.057-84.205 9.954-10.714 16.057-25.052 16.057-40.795 0-5.35-.714-10.535-2.034-15.474 7.323-22.743 11.034-46.443 11.034-70.526 0-8.672-.505-17.365-1.481-26h12.481c8.284 0 15-6.716 15-15zm-95-185c16.542 0 30 13.458 30 30s-13.458 30-30 30-30-13.458-30-30 13.458-30 30-30zm-322 0c16.542 0 30 13.458 30 30s-13.458 30-30 30-30-13.458-30-30 13.458-30 30-30zm-65 170v-15c0-35.841 29.159-65 65-65s65 29.159 65 65v15zm130 282h-130v-15c0-35.841 29.159-65 65-65s65 29.159 65 65zm-95-140c0-16.542 13.458-30 30-30s30 13.458 30 30-13.458 30-30 30-30-13.458-30-30zm259.87 101.802c-22.021 8.089-45.148 12.198-68.87 12.198-23.721 0-46.848-4.11-68.87-12.198-6.674-26.495-24.506-48.598-48.187-61.007 9.954-10.714 16.057-25.052 16.057-40.795 0-33.084-26.916-60-60-60-13.256 0-25.516 4.329-35.457 11.637-2.354-12.345-3.543-24.928-3.543-37.637 0-8.677.58-17.38 1.702-26h117.298c8.284 0 15-6.716 15-15v-30c0-36.537-20.737-68.318-51.057-84.205 3.704-3.987 6.868-8.479 9.388-13.357 32.141-20.579 69.276-31.438 107.669-31.438s75.529 10.859 107.669 31.438c2.52 4.878 5.684 9.369 9.388 13.356-30.32 15.888-51.057 47.669-51.057 84.206v30c0 8.284 6.716 15 15 15h117.298c1.122 8.62 1.702 17.323 1.702 26 0 12.709-1.189 25.292-3.543 37.637-9.941-7.308-22.201-11.637-35.457-11.637-33.084 0-60 26.916-60 60 0 15.743 6.103 30.081 16.057 40.795-23.681 12.408-41.513 34.512-48.187 61.007zm122.13-101.802c0 16.542-13.458 30-30 30s-30-13.458-30-30 13.458-30 30-30 30 13.458 30 30zm35 125v15h-130v-15c0-35.841 29.159-65 65-65s65 29.159 65 65zm0-267h-130v-15c0-35.841 29.159-65 65-65s65 29.159 65 65z" fill="#ffffff" data-original="#000000" style="" class=""/></g></g></svg>
