<svg xmlns="http://www.w3.org/2000/svg" viewBox="0 0 238.86 47.9"><defs><style>.cls-1{fill:#9fcfa9;}.cls-2{fill:#026937;}.cls-3{fill:#00af41;}.cls-4{fill:#74b583;}</style></defs><title>21344prize</title><g id="Слой_2" data-name="Слой 2"><g id="Layer_1" data-name="Layer 1"><rect class="cls-1" x="2.92" y="2.92" width="8.15" height="8.15"/><rect class="cls-1" x="18.57" y="2.94" width="8.15" height="8.15"/><rect class="cls-1" x="33.97" y="2.94" width="8.15" height="8.15"/><rect class="cls-1" x="2.94" y="18.79" width="8.15" height="8.15"/><rect class="cls-1" x="33.97" y="18.79" width="8.15" height="8.15"/><rect class="cls-1" x="2.94" y="34.67" width="8.15" height="8.15"/><rect class="cls-1" x="18.57" y="34.69" width="8.15" height="8.15"/><rect class="cls-1" x="33.99" y="34.65" width="8.15" height="8.15"/><rect class="cls-2" x="18.57" y="18.79" width="8.15" height="8.15"/><rect class="cls-2" width="8.15" height="8.15"/><rect class="cls-2" x="18.57" width="8.15" height="8.15"/><rect class="cls-2" x="36.91" width="8.15" height="8.15"/><rect class="cls-2" y="18.79" width="8.15" height="8.15"/><rect class="cls-2" x="36.91" y="18.79" width="8.15" height="8.15"/><rect class="cls-2" y="37.59" width="8.15" height="8.15"/><rect class="cls-2" x="18.57" y="37.59" width="8.15" height="8.15"/><rect class="cls-2" x="36.91" y="37.59" width="8.15" height="8.15"/><path class="cls-3" d="M69.29,20.86q2.46,0,2.46,2.37v9.65A7,7,0,0,1,71,33l-1.6.17q-1,.09-2.19.17t-2.46.08a15.4,15.4,0,0,1-4.7-.68,10.34,10.34,0,0,1-3.71-2.05,9.4,9.4,0,0,1-2.45-3.42A12,12,0,0,1,53,22.44a11.7,11.7,0,0,1,.85-4.58,10,10,0,0,1,2.37-3.45,10.38,10.38,0,0,1,3.62-2.19,13.5,13.5,0,0,1,4.63-.76,14.51,14.51,0,0,1,2.22.15,13.21,13.21,0,0,1,1.73.38,7.7,7.7,0,0,1,1.29.5,9.3,9.3,0,0,1,.9.52,3.3,3.3,0,0,1,.88.93,1.9,1.9,0,0,1,.3,1,2.11,2.11,0,0,1-.2.93,3.36,3.36,0,0,1-.47.73,2.94,2.94,0,0,1-.56.52,4.25,4.25,0,0,1-.47.29l-.68-.65a5.79,5.79,0,0,0-1.13-.79,7.81,7.81,0,0,0-1.64-.65A7.93,7.93,0,0,0,64.51,15a7.56,7.56,0,0,0-2.81.5A6,6,0,0,0,59.52,17a6.63,6.63,0,0,0-1.41,2.34,9.11,9.11,0,0,0-.5,3.12,8.8,8.8,0,0,0,.52,3.15,5.93,5.93,0,0,0,1.48,2.25,6.25,6.25,0,0,0,2.31,1.35,9.44,9.44,0,0,0,3,.46q1.13,0,1.7-.06a5.44,5.44,0,0,0,.79-.12V24.73H65.15a2.16,2.16,0,0,1-1.61-.49,2,2,0,0,1-.46-1.4,3.66,3.66,0,0,1,.2-1.25,3.92,3.92,0,0,1,.32-.73Z"/><path class="cls-3" d="M90.86,25.12a8.75,8.75,0,0,1-.59,3.24A7.58,7.58,0,0,1,88.56,31a8.24,8.24,0,0,1-2.66,1.76,9.52,9.52,0,0,1-6.94,0A8.24,8.24,0,0,1,76.3,31a7.59,7.59,0,0,1-1.7-2.62,9.15,9.15,0,0,1,0-6.48,7.6,7.6,0,0,1,1.7-2.62A8.26,8.26,0,0,1,79,17.5a9.52,9.52,0,0,1,6.94,0,8.26,8.26,0,0,1,2.66,1.76,7.58,7.58,0,0,1,1.7,2.62A8.75,8.75,0,0,1,90.86,25.12Zm-4.32,0a7,7,0,0,0-.26-1.93,4.33,4.33,0,0,0-.79-1.55,3.95,3.95,0,0,0-6.12,0,4.3,4.3,0,0,0-.79,1.55,7.33,7.33,0,0,0,0,3.86,4.3,4.3,0,0,0,.79,1.55,3.95,3.95,0,0,0,6.12,0,4.33,4.33,0,0,0,.79-1.55A7,7,0,0,0,86.54,25.12Z"/><path class="cls-3" d="M109.81,25.12a8.75,8.75,0,0,1-.59,3.24,7.58,7.58,0,0,1-1.7,2.62,8.24,8.24,0,0,1-2.66,1.76,9.52,9.52,0,0,1-6.94,0A8.24,8.24,0,0,1,95.25,31a7.59,7.59,0,0,1-1.7-2.62,9.15,9.15,0,0,1,0-6.48,7.6,7.6,0,0,1,1.7-2.62,8.26,8.26,0,0,1,2.66-1.76,9.52,9.52,0,0,1,6.94,0,8.25,8.25,0,0,1,2.66,1.76,7.59,7.59,0,0,1,1.7,2.62A8.75,8.75,0,0,1,109.81,25.12Zm-4.32,0a7,7,0,0,0-.26-1.93,4.33,4.33,0,0,0-.79-1.55,3.95,3.95,0,0,0-6.12,0,4.3,4.3,0,0,0-.79,1.55,7.33,7.33,0,0,0,0,3.86,4.29,4.29,0,0,0,.79,1.55,3.95,3.95,0,0,0,6.12,0,4.33,4.33,0,0,0,.79-1.55A7,7,0,0,0,105.49,25.12Z"/><path class="cls-3" d="M127.82,32.88l-.71.11q-.53.08-1.32.14l-1.79.12q-1,.06-2.1.06-5,0-7.49-2.3a8.23,8.23,0,0,1-2.49-6.37,8.79,8.79,0,0,1,.58-3.32,7,7,0,0,1,1.57-2.4,6.64,6.64,0,0,1,2.28-1.48,7.54,7.54,0,0,1,2.75-.5,6.17,6.17,0,0,1,3.24.87,5,5,0,0,1,.87.65,4,4,0,0,1,.37.4V12.28a1.58,1.58,0,0,1,.61-1.43,2.92,2.92,0,0,1,1.61-.4,5.23,5.23,0,0,1,1.29.15q.59.15.75.21Zm-11.53-7.79a6.36,6.36,0,0,0,.29,2,4.33,4.33,0,0,0,.88,1.57,3.9,3.9,0,0,0,1.52,1,6,6,0,0,0,2.21.37,11.09,11.09,0,0,0,1.58-.09,3.24,3.24,0,0,0,.79-.18V24.42a4.63,4.63,0,0,0-.88-2.89A3.12,3.12,0,0,0,120,20.38a3.27,3.27,0,0,0-2.75,1.29A5.49,5.49,0,0,0,116.28,25.09Z"/><path class="cls-3" d="M130.55,21.41a10.88,10.88,0,0,1-.33-1.07,4.28,4.28,0,0,1-.15-1.1,2.08,2.08,0,0,1,.46-1.29,2,2,0,0,1,1.7-.59,4,4,0,0,1,1.38.18,3.82,3.82,0,0,1,.5.21q.52,1.89,1,3.64l.94,3.18q.43,1.43.75,2.46t.47,1.46q.3-.88,1-3.27l1.63-5.92a2.71,2.71,0,0,1,.84-1.51,2.6,2.6,0,0,1,1.63-.44,3.77,3.77,0,0,1,1.34.18,5.07,5.07,0,0,1,.61.27q.55,1.89,1,3.61t.85,3.13q.38,1.42.67,2.43t.44,1.45a9.15,9.15,0,0,0,.33-1q.21-.73.5-1.66t.59-2l.58-2,.49-1.64q.21-.72.3-1a3.32,3.32,0,0,1,.82-1.37,2.39,2.39,0,0,1,1.67-.49,3.59,3.59,0,0,1,.9.11,4.05,4.05,0,0,1,.7.24,2.79,2.79,0,0,1,.47.27l.21.17q-.21.91-.81,2.69t-1.38,3.91Q151.88,26.89,151,29t-1.64,3.83h-4.26l-.37-1.13q-.24-.76-.53-1.7l-.61-2q-.32-1-.59-1.95t-.49-1.63q-.21-.7-.3-1-.09.3-.29,1t-.47,1.69q-.27.94-.59,2l-.61,2-.52,1.66q-.23.73-.35,1h-4.26q-.73-1.67-1.49-3.55t-1.4-3.51q-.64-1.64-1.1-2.84T130.55,21.41Z"/><path class="cls-3" d="M161.42,12.77a2.23,2.23,0,0,1-.7,1.66,2.35,2.35,0,0,1-1.7.68,2.31,2.31,0,0,1-1.67-.68,2.23,2.23,0,0,1-.7-1.66,2.18,2.18,0,0,1,.7-1.64,2.34,2.34,0,0,1,1.67-.67,2.38,2.38,0,0,1,1.7.67A2.19,2.19,0,0,1,161.42,12.77Zm-4.5,6.42a1.58,1.58,0,0,1,.61-1.43,2.92,2.92,0,0,1,1.61-.4,5.23,5.23,0,0,1,1.29.15q.59.15.75.21V32.88h-4.26Z"/><path class="cls-3" d="M164.13,12.28a1.58,1.58,0,0,1,.61-1.43,2.93,2.93,0,0,1,1.61-.4,5.23,5.23,0,0,1,1.29.15q.59.15.75.21V32.88h-4.26Z"/><path class="cls-3" d="M171.18,12.28a1.58,1.58,0,0,1,.61-1.43,2.93,2.93,0,0,1,1.61-.4,5.23,5.23,0,0,1,1.29.15q.59.15.75.21V32.88h-4.26Z"/><path class="cls-2" d="M196.66,12.29a2.15,2.15,0,0,1,.64.66,1.28,1.28,0,0,1,.16.59,1.31,1.31,0,0,1-.34.85,2.16,2.16,0,0,1-.66.56,4.94,4.94,0,0,0-.9-.8,7.29,7.29,0,0,0-1.35-.75,9.92,9.92,0,0,0-1.75-.56,9.43,9.43,0,0,0-2.1-.22,8.75,8.75,0,0,0-3.45.67,8,8,0,0,0-2.76,1.93,9.05,9.05,0,0,0-1.85,3.05,11.47,11.47,0,0,0-.68,4,11.05,11.05,0,0,0,.71,4.1,8.45,8.45,0,0,0,1.94,3,8.3,8.3,0,0,0,2.89,1.83,9.94,9.94,0,0,0,3.55.63,10.87,10.87,0,0,0,2-.18,13.44,13.44,0,0,0,1.67-.42,10.24,10.24,0,0,0,1.3-.51,9.24,9.24,0,0,0,.92-.5l1,1.73a8.73,8.73,0,0,1-1.06.58,12.35,12.35,0,0,1-1.59.61,15.77,15.77,0,0,1-2,.48,13.48,13.48,0,0,1-2.35.19,12.35,12.35,0,0,1-4.37-.77,10.44,10.44,0,0,1-3.6-2.25,10.85,10.85,0,0,1-2.46-3.61,12.24,12.24,0,0,1-.92-4.87,12.68,12.68,0,0,1,.9-4.9,11.06,11.06,0,0,1,2.43-3.68,10.46,10.46,0,0,1,3.57-2.31,11.7,11.7,0,0,1,4.32-.8,12.86,12.86,0,0,1,2.2.18,13.82,13.82,0,0,1,1.82.43,9.1,9.1,0,0,1,1.37.55A6.21,6.21,0,0,1,196.66,12.29Z"/><path class="cls-2" d="M200.31,10.49a1,1,0,0,1,1.16-1.09,2,2,0,0,1,.56.08,2.64,2.64,0,0,1,.4.14V33.08h-2.12Z"/><path class="cls-2" d="M217.1,18.49a1,1,0,0,1,1.16-1.09,2,2,0,0,1,.56.08,2.76,2.76,0,0,1,.4.14V33.27l-.92.14-1.35.16q-.76.08-1.64.13t-1.75,0a11.25,11.25,0,0,1-4.71-.82,6.29,6.29,0,0,1-2.71-2.33,8.11,8.11,0,0,1-1-4.21v-7.9a1,1,0,0,1,1.16-1.09,2,2,0,0,1,.56.08,2.72,2.72,0,0,1,.4.14v8.55a8.87,8.87,0,0,0,.32,2.52,3.92,3.92,0,0,0,1.08,1.78,4.78,4.78,0,0,0,2,1.06,10.69,10.69,0,0,0,3,.35,19.87,19.87,0,0,0,2.3-.11q.95-.11,1.2-.18Z"/><path class="cls-2" d="M222,10.69a1,1,0,0,1,1.16-1.09,2,2,0,0,1,.56.08,2.66,2.66,0,0,1,.4.14V20q.19-.29.58-.8a5.11,5.11,0,0,1,1.06-1,6.61,6.61,0,0,1,1.72-.87,7.83,7.83,0,0,1,2.59-.37,7.72,7.72,0,0,1,3,.58,6.73,6.73,0,0,1,2.35,1.64A7.28,7.28,0,0,1,237,21.76a10.38,10.38,0,0,1,.53,3.42,9.88,9.88,0,0,1-.58,3.44,7.06,7.06,0,0,1-1.75,2.7,8.2,8.2,0,0,1-3,1.77,12.87,12.87,0,0,1-4.29.64,32.94,32.94,0,0,1-4.24-.21L222,33.27Zm13.2,14.49a7.16,7.16,0,0,0-1.37-4.67,5.12,5.12,0,0,0-4.19-1.65,5.62,5.62,0,0,0-2.41.48,4.8,4.8,0,0,0-1.72,1.33,5.86,5.86,0,0,0-1,2,8.53,8.53,0,0,0-.35,2.51V31.6l1.2.22A16.38,16.38,0,0,0,228,32a9.53,9.53,0,0,0,3.26-.5,6.06,6.06,0,0,0,2.25-1.38,5.37,5.37,0,0,0,1.3-2.14A8.81,8.81,0,0,0,235.25,25.18Z"/><path class="cls-4" d="M53.46,43a2.74,2.74,0,0,1,2.76-2.91,2.37,2.37,0,0,1,2,1l-.57.53a1.64,1.64,0,0,0-1.41-.73,2.16,2.16,0,0,0,0,4.3,1.67,1.67,0,0,0,1.41-.73l.57.53a2.37,2.37,0,0,1-2,1A2.75,2.75,0,0,1,53.46,43Z"/><path class="cls-4" d="M62.64,45.78V41H61v-.76h4.08V41H63.5v4.8Z"/><path class="cls-4" d="M68.42,45.78V40.22h3A1.4,1.4,0,0,1,73,41.64a1.3,1.3,0,0,1-.89,1.27,1.42,1.42,0,0,1,1,1.36,1.46,1.46,0,0,1-1.62,1.51Zm3.73-4a.75.75,0,0,0-.83-.79h-2v1.57h2A.75.75,0,0,0,72.15,41.77Zm.1,2.4a.84.84,0,0,0-.89-.86H69.28V45h2.08A.81.81,0,0,0,72.25,44.17Z"/><path class="cls-4" d="M76.63,43a2.75,2.75,0,1,1,2.74,2.93A2.72,2.72,0,0,1,76.63,43Zm4.57,0a1.86,1.86,0,1,0-1.83,2.15A1.93,1.93,0,0,0,81.21,43Z"/><path class="cls-4" d="M86.55,44.94v3h-.86V40.22h.86V41a2.31,2.31,0,0,1,1.87-1c1.46,0,2.47,1.11,2.47,2.91s-1,2.93-2.47,2.93A2.27,2.27,0,0,1,86.55,44.94ZM90,43c0-1.23-.66-2.14-1.78-2.14a2,2,0,0,0-1.65.89v2.51a2.06,2.06,0,0,0,1.65.9C89.32,45.15,90,44.22,90,43Z"/><path class="cls-4" d="M94.43,45.78V40.22h.86v4.25l2.9-4.25H99v5.56h-.86V41.45l-2.92,4.33Z"/><path class="cls-4" d="M107.76,43a2.74,2.74,0,0,1,2.76-2.91,2.37,2.37,0,0,1,2,1l-.57.53a1.64,1.64,0,0,0-1.41-.73,2.16,2.16,0,0,0,0,4.3,1.67,1.67,0,0,0,1.41-.73l.57.53a2.37,2.37,0,0,1-2,1A2.75,2.75,0,0,1,107.76,43Z"/><path class="cls-4" d="M115.94,45.78V40.22h3a1.4,1.4,0,0,1,1.56,1.43,1.3,1.3,0,0,1-.89,1.27,1.42,1.42,0,0,1,1,1.36A1.46,1.46,0,0,1,119,45.78Zm3.73-4a.75.75,0,0,0-.83-.79h-2v1.57h2A.75.75,0,0,0,119.66,41.77Zm.1,2.4a.84.84,0,0,0-.89-.86H116.8V45h2.08A.81.81,0,0,0,119.77,44.17Z"/><path class="cls-4" d="M124.32,38.85a.58.58,0,1,1,1.16,0,.58.58,0,0,1-1.16,0Zm.15,6.93V40.22h.86v5.56Z"/><path class="cls-4" d="M129.23,45.78V40.22h.86v4.25l2.9-4.25h.85v5.56H133V41.45l-2.92,4.33Zm2.3-6.2a2.52,2.52,0,0,1-2-1l.42-.37a1.93,1.93,0,0,0,1.59.83,1.88,1.88,0,0,0,1.58-.83l.42.37A2.47,2.47,0,0,1,131.54,39.58Z"/><path class="cls-4" d="M146.65,45.78l-2-2.5-.92.91v1.59h-.86V40.22h.86v3l2.91-3h1.09l-2.45,2.52,2.47,3Z"/><path class="cls-4" d="M154.42,45.78v-.63a2.39,2.39,0,0,1-1.83.77,1.85,1.85,0,0,1-1.94-1.84,1.82,1.82,0,0,1,1.94-1.83,2.31,2.31,0,0,1,1.83.76V42c0-.75-.6-1.17-1.4-1.17a2.2,2.2,0,0,0-1.7.77l-.4-.6a2.89,2.89,0,0,1,2.21-.92c1.17,0,2.14.53,2.14,1.88v3.82Zm0-1.17v-1a1.85,1.85,0,0,0-1.52-.69,1.22,1.22,0,1,0,0,2.43A1.85,1.85,0,0,0,154.42,44.61Z"/><path class="cls-4" d="M162.93,45.78V41H160v4.8h-.86V40.22h4.61v5.56Z"/><path class="cls-4" d="M167.54,38.85a.58.58,0,1,1,1.16,0,.58.58,0,0,1-1.16,0Zm.15,6.93V40.22h.86v5.56Z"/><path class="cls-4" d="M173.46,45.78V41h-1.6v-.76h4.08V41h-1.62v4.8Z"/><path class="cls-4" d="M182.7,45.78v-.63a2.39,2.39,0,0,1-1.83.77,1.85,1.85,0,0,1-1.94-1.84,1.82,1.82,0,0,1,1.94-1.83,2.31,2.31,0,0,1,1.83.76V42c0-.75-.6-1.17-1.4-1.17a2.19,2.19,0,0,0-1.7.77l-.4-.6a2.89,2.89,0,0,1,2.21-.92c1.17,0,2.14.53,2.14,1.88v3.82Zm0-1.17v-1a1.85,1.85,0,0,0-1.52-.69,1.22,1.22,0,1,0,0,2.43A1.85,1.85,0,0,0,182.7,44.61Z"/><path class="cls-4" d="M186.81,45.2c.52,0,.84-.6,1.05-2.25l.36-2.74h3.85v5.56h-.86V41H189l-.25,2.08c-.25,2.07-.85,2.86-1.91,2.86Z"/><path class="cls-4" d="M200.57,45l.42-.55a3,3,0,0,0,2.08.75c1,0,1.63-.38,1.63-1s-.77-.92-1.74-.92h-1.24v-.7H203c.92,0,1.64-.3,1.64-.93s-.7-.89-1.62-.89a2.45,2.45,0,0,0-1.86.71l-.45-.53a3.05,3.05,0,0,1,2.27-.89c1.49,0,2.54.54,2.54,1.49s-.84,1.28-1.49,1.36c.64,0,1.6.44,1.6,1.36s-.94,1.62-2.53,1.62A3.42,3.42,0,0,1,200.57,45Z"/><path class="cls-4" d="M212.64,45.78v-.63a2.39,2.39,0,0,1-1.83.77,1.85,1.85,0,0,1-1.94-1.84,1.82,1.82,0,0,1,1.94-1.83,2.31,2.31,0,0,1,1.83.76V42c0-.75-.6-1.17-1.4-1.17a2.19,2.19,0,0,0-1.7.77l-.4-.6a2.89,2.89,0,0,1,2.21-.92c1.17,0,2.14.53,2.14,1.88v3.82Zm0-1.17v-1a1.85,1.85,0,0,0-1.52-.69,1.22,1.22,0,1,0,0,2.43A1.85,1.85,0,0,0,212.64,44.61Z"/><path class="cls-4" d="M218.27,44.94v3h-.86V40.22h.86V41a2.31,2.31,0,0,1,1.87-1c1.46,0,2.47,1.11,2.47,2.91s-1,2.93-2.47,2.93A2.27,2.27,0,0,1,218.27,44.94ZM221.69,43c0-1.23-.66-2.14-1.78-2.14a2,2,0,0,0-1.65.89v2.51a2.06,2.06,0,0,0,1.65.9C221,45.15,221.69,44.22,221.69,43Z"/><path class="cls-4" d="M229.61,45.78v-.63a2.39,2.39,0,0,1-1.83.77,1.85,1.85,0,0,1-1.94-1.84,1.82,1.82,0,0,1,1.94-1.83,2.31,2.31,0,0,1,1.83.76V42c0-.75-.6-1.17-1.4-1.17a2.19,2.19,0,0,0-1.7.77l-.4-.6a2.89,2.89,0,0,1,2.21-.92c1.17,0,2.14.53,2.14,1.88v3.82Zm0-1.17v-1a1.85,1.85,0,0,0-1.52-.69,1.22,1.22,0,1,0,0,2.43A1.85,1.85,0,0,0,229.61,44.61Z"/><path class="cls-4" d="M233.83,45l.42-.55a3,3,0,0,0,2.08.75c1,0,1.63-.38,1.63-1s-.77-.92-1.74-.92H235v-.7h1.24c.92,0,1.64-.3,1.64-.93s-.7-.89-1.62-.89a2.45,2.45,0,0,0-1.86.71l-.45-.53a3.05,3.05,0,0,1,2.27-.89c1.49,0,2.54.54,2.54,1.49s-.84,1.28-1.49,1.36c.64,0,1.6.44,1.6,1.36s-.94,1.62-2.53,1.62A3.42,3.42,0,0,1,233.83,45Z"/></g></g></svg>