<?xml version="1.0"?>
<svg xmlns="http://www.w3.org/2000/svg" xmlns:xlink="http://www.w3.org/1999/xlink" xmlns:svgjs="http://svgjs.com/svgjs" version="1.1" width="512" height="512" x="0" y="0" viewBox="0 0 512.004 512.004" style="enable-background:new 0 0 512 512" xml:space="preserve" class=""><g><g xmlns="http://www.w3.org/2000/svg"><path d="m9.684 481.027c53.424 20.264 112.665 30.975 171.32 30.975 58.83 0 116.134-10.422 170.32-30.975 7.745-2.938 11.643-11.599 8.705-19.345-2.938-7.745-11.595-11.644-19.346-8.705-14.853 5.634-29.961 10.449-45.282 14.452-.987-4.957-32.401-162.818-33.119-166.427h23.721c8.284 0 15-6.716 15-15s-6.716-15-15-15c-10.896 0-174.202 0-185.828 0l-39.748-139.121c-2.275-7.965-10.581-12.578-18.543-10.302-7.966 2.276-12.578 10.578-10.302 18.544l59.004 206.514-24.016 120.942c-15.8-4.049-31.271-8.922-46.247-14.602-7.748-2.939-16.407.96-19.345 8.705-2.937 7.746.961 16.407 8.706 19.345zm222.011-180.025 5.97 30h-120.347l-8.571-30zm-113.377 60h125.316l22.492 113.029c-27.835 5.298-56.279 7.971-85.123 7.971-28.522 0-57.178-2.7-85.135-7.936z" fill="#000000" data-original="#000000" style="" class=""/><path d="m376.004.002c-74.439 0-135 61.009-135 136 0 74.439 60.561 135 135 135 74.99 0 136-60.561 136-135 0-74.64-61.379-136-136-136zm0 241c-57.897 0-105-47.103-105-105 0-58.449 47.103-106 105-106 58.448 0 106 47.551 106 106 0 57.897-47.552 105-106 105z" fill="#000000" data-original="#000000" style="" class=""/><path d="m391.004 226.002v-17.58c17.459-6.192 30-22.865 30-42.42 0-24.813-20.187-45-45-45-8.271 0-15-6.729-15-15s6.729-15 15-15 15 6.729 15 15c0 8.284 6.716 15 15 15s15-6.716 15-15c0-19.555-12.541-36.228-30-42.42v-18.58c0-8.284-6.716-15-15-15s-15 6.716-15 15v18.58c-17.459 6.192-30 22.865-30 42.42 0 24.813 20.187 45 45 45 8.271 0 15 6.729 15 15s-6.729 15-15 15-15-6.729-15-15c0-8.284-6.716-15-15-15s-15 6.716-15 15c0 19.555 12.541 36.228 30 42.42v17.58c0 8.284 6.716 15 15 15s15-6.716 15-15z" fill="#000000" data-original="#000000" style="" class=""/></g></g></svg>
