<svg id="Layer_1" data-name="Layer 1" xmlns="http://www.w3.org/2000/svg" viewBox="0 0 200 200"><defs><style>.cls-1{fill:#c8dbfc;}.cls-2{fill:#102131;}</style></defs><title>Artboard 1 copy 3</title><circle class="cls-1" cx="90.15" cy="103.46" r="38.83"/><path class="cls-2" d="M115.15,116.52A16.69,16.69,0,1,0,98.46,99.84,16.7,16.7,0,0,0,115.15,116.52Zm4.17-4.89-.74.24Z"/><path class="cls-2" d="M128.54,117.4a2.07,2.07,0,0,0-2.62.85,12.49,12.49,0,0,1-21.53,0,2.09,2.09,0,0,0-2.63-.85,33.53,33.53,0,0,0-20.14,30.74,2.08,2.08,0,0,0,2.08,2.08h62.9a2.08,2.08,0,0,0,2.08-2.08A33.53,33.53,0,0,0,128.54,117.4Z"/></svg>