<svg id="Layer_1" data-name="Layer 1" xmlns="http://www.w3.org/2000/svg" xmlns:xlink="http://www.w3.org/1999/xlink" viewBox="0 0 200 200"><defs><style>.cls-1{fill:none;}.cls-2{fill:#c8dbfc;}.cls-3{clip-path:url(#clip-path);}.cls-4{fill:#102131;}</style><clipPath id="clip-path"><rect class="cls-1" x="92.19" y="81.51" width="64.72" height="76.01"/></clipPath></defs><title>Artboard 1</title><circle class="cls-2" cx="101.81" cy="107.43" r="38.83"/><g class="cls-3"><path class="cls-4" d="M124.55,105A14.48,14.48,0,1,0,139,119.52,14.49,14.49,0,0,0,124.55,105Zm8.6,11.75-10.38,10.37a2.21,2.21,0,0,1-3.15,0l-4-4a2.23,2.23,0,0,1,3.16-3.15l2.38,2.38,8.8-8.79a2.23,2.23,0,0,1,3.16,3.15Zm0,0"/><path class="cls-4" d="M156.84,102.14v-.06c0-.73-.05-1.51-.06-2.37a8.07,8.07,0,0,0-7.59-7.89c-8.74-.49-15.5-3.33-21.28-9l0,0a4.87,4.87,0,0,0-6.62,0l0,0c-5.78,5.64-12.54,8.48-21.28,9a8.07,8.07,0,0,0-7.59,7.89c0,.86,0,1.63-.06,2.37v.13c-.17,8.91-.38,20,3.33,30.07a38.21,38.21,0,0,0,9.18,14.3,48,48,0,0,0,18,10.63,4.76,4.76,0,0,0,.74.2,5.26,5.26,0,0,0,2.14,0,4.76,4.76,0,0,0,.74-.2,48.05,48.05,0,0,0,18-10.63,38.33,38.33,0,0,0,9.18-14.31c3.73-10.1,3.52-21.21,3.35-30.13Zm-32.29,36.32a18.94,18.94,0,1,1,18.94-18.94,19,19,0,0,1-18.94,18.94Zm0,0"/></g></svg>