<svg id="Layer_1" data-name="Layer 1" xmlns="http://www.w3.org/2000/svg" viewBox="0 0 200 200"><defs><style>.cls-1{fill:#c8dbfc;}.cls-2{fill:#102131;}</style></defs><title>Artboard 1 copy</title><circle class="cls-1" cx="96.05" cy="102.69" r="38.83"/><path class="cls-2" d="M151.76,86h-9c0-1,0-2,0-3a2.05,2.05,0,0,0-2-2h-44a2.05,2.05,0,0,0-2.06,2c0,1,0,2,.05,3h-9a2.05,2.05,0,0,0-2,2.05c0,9.2,2.4,17.87,6.77,24.43s10.06,10.21,16.27,10.57a21.06,21.06,0,0,0,4.44,3.73v9.13h-3.44a7.56,7.56,0,0,0-7.55,7.55v3.44h-.15a2,2,0,1,0,0,4.1h37.38a2.05,2.05,0,0,0,0-4.1h-.14v-3.44a7.56,7.56,0,0,0-7.55-7.55h-3.45v-9.13a21.1,21.1,0,0,0,4.45-3.73c6.21-.36,11.95-4.08,16.27-10.57s6.77-15.23,6.77-24.43A2.05,2.05,0,0,0,151.76,86ZM93.94,110.2a39.55,39.55,0,0,1-6-20.11H95c.74,9.37,2.94,18,6.38,24.9.55,1.1,1.12,2.13,1.71,3.11a19.81,19.81,0,0,1-9.17-7.9Zm49.69,0a19.79,19.79,0,0,1-9.18,7.9c.6-1,1.17-2,1.72-3.11,3.43-6.87,5.63-15.53,6.37-24.9h7.13c-.33,7.62-2.44,14.7-6,20.11Zm0,0"/></svg>