<svg id="Layer_1" data-name="Layer 1" xmlns="http://www.w3.org/2000/svg" viewBox="0 0 200 200"><defs><style>.cls-1{fill:#c8dbfc;}.cls-2{fill:#102131;}</style></defs><title>Artboard 1 copy 7</title><circle class="cls-1" cx="89.62" cy="99.7" r="38.83"/><path class="cls-2" d="M127.61,91.43a29.86,29.86,0,0,0-3.27.18c-2-10.59-9.34-16.39-21-16.39-13.93,0-21.6,8-21.6,22.6,0,15.84,18.87,35.2,19.68,36a2.67,2.67,0,0,0,1.92.81h0a2.69,2.69,0,0,0,1.93-.81c.1-.11,2.1-2.16,4.79-5.4A96.82,96.82,0,0,0,125.68,150a2.7,2.7,0,0,0,3.82,0l0,0c.8-.81,19.67-20.16,19.67-36C149.21,99.45,141.54,91.43,127.61,91.43Zm-24.31,16.2a10.8,10.8,0,1,1,10.8-10.8A10.79,10.79,0,0,1,103.3,107.63Zm24.31,16.21A10.81,10.81,0,1,1,138.41,113,10.81,10.81,0,0,1,127.61,123.84Z"/></svg>