<svg id="Layer_1" data-name="Layer 1" xmlns="http://www.w3.org/2000/svg" viewBox="0 0 200 200"><defs><style>.cls-1{fill:#c8dbfc;}.cls-2{fill:#102131;}</style></defs><title>Artboard 1 copy 6</title><circle class="cls-1" cx="85.38" cy="91.36" r="38.83"/><path class="cls-2" d="M151.9,103.09,142,84.84h7.2a2.37,2.37,0,0,0,0-4.74H118.6a8.64,8.64,0,0,0-16.61,0H71.52a2.37,2.37,0,1,0,0,4.74h7.21l-10,18.25a2.29,2.29,0,0,0-1.46,2.28,15.42,15.42,0,1,0,30.84,0,2.43,2.43,0,0,0-1.46-2.19l-10-18.43h15.51a8.61,8.61,0,0,0,5.93,5.93V125a13.41,13.41,0,0,0-11,13.23,2.41,2.41,0,0,0,2.37,2.37h22.17a2.41,2.41,0,0,0,2.37-2.37,13.48,13.48,0,0,0-11-13.23V90.77a8.61,8.61,0,0,0,5.93-5.93h15.51l-10.22,18.25a2.25,2.25,0,0,0-1.55,2.28,15.42,15.42,0,1,0,30.84,0A2.37,2.37,0,0,0,151.9,103.09Zm-60.67-.18h-17l8.48-15.6Zm38.41,0,8.48-15.6,8.49,15.6Z"/></svg>