<svg id="Layer_1" data-name="Layer 1" xmlns="http://www.w3.org/2000/svg" xmlns:xlink="http://www.w3.org/1999/xlink" viewBox="0 0 200 200"><defs><style>.cls-1{fill:none;}.cls-2{fill:#c8dbfc;}.cls-3{clip-path:url(#clip-path);}.cls-4{fill:#102131;}</style><clipPath id="clip-path"><rect class="cls-1" x="80.55" y="75.98" width="72.43" height="72.43"/></clipPath></defs><title>Artboard 1 copy 4</title><circle class="cls-2" cx="89.55" cy="96.56" r="38.83"/><g class="cls-3"><path class="cls-4" d="M152.82,108.14a2.37,2.37,0,0,0-2.33-1.79A8,8,0,0,1,145,92.42a2,2,0,0,0,.22-2.73,35.8,35.8,0,0,0-5.74-5.8,2,2,0,0,0-2.76.22,8.36,8.36,0,0,1-9,2,8.06,8.06,0,0,1-4.9-7.87A2,2,0,0,0,121,76.15a36.5,36.5,0,0,0-8.16,0,2,2,0,0,0-1.8,2.07,8.06,8.06,0,0,1-5,7.74,8.37,8.37,0,0,1-9-2,2,2,0,0,0-2.74-.23,35.67,35.67,0,0,0-5.86,5.79,2,2,0,0,0,.21,2.76,8,8,0,0,1,2,9,8.37,8.37,0,0,1-7.89,4.9,2,2,0,0,0-2.09,1.78,36.71,36.71,0,0,0,0,8.25A2.41,2.41,0,0,0,83.15,118a7.94,7.94,0,0,1,7.46,5,8,8,0,0,1-2,9,2,2,0,0,0-.22,2.73,35.79,35.79,0,0,0,5.74,5.8,2,2,0,0,0,2.76-.22,8.36,8.36,0,0,1,9-2,8.06,8.06,0,0,1,4.91,7.87,2,2,0,0,0,1.78,2.12,36.31,36.31,0,0,0,4.17.24,35.26,35.26,0,0,0,4-.22,2,2,0,0,0,1.8-2.07,8,8,0,0,1,5-7.74,8.37,8.37,0,0,1,9,2.05,2,2,0,0,0,2.74.23,36.54,36.54,0,0,0,5.86-5.8,2,2,0,0,0-.21-2.76,8,8,0,0,1-2-9,8.12,8.12,0,0,1,7.41-4.92l.45,0a2,2,0,0,0,2.12-1.78,36,36,0,0,0,0-8.24Zm-36,24.92a20.9,20.9,0,1,1,17.94-10.18l-9.15-9.16a12.82,12.82,0,0,0-15.18-17.36,1.45,1.45,0,0,0-1,1,1.41,1.41,0,0,0,.4,1.39l6,6.06a.89.89,0,0,1,.13.67v.1a29.08,29.08,0,0,1-.69,4.43l-.09.09-.11.1a28,28,0,0,1-4.49.7h0l-.08,0h-.07a1,1,0,0,1-.7-.29l-5.91-5.88a1.47,1.47,0,0,0-1.06-.47,1.43,1.43,0,0,0-1.35,1.09,12.82,12.82,0,0,0,17.37,15.15l9.25,9.25a20.77,20.77,0,0,1-11.24,3.29Zm0,0"/></g></svg>