<svg width="862" height="1108" fill="none" xmlns="http://www.w3.org/2000/svg"><path clip-rule="evenodd" d="M-661.327 671.434c126.787 159.806 319.691 79.738 585.89 152.917 226.337 62.22 347.199 343.979 543.929 205.539 150.176-105.681 29.758-366.692 63.061-547.281 41.003-222.345 423.752-564.805 182.961-786.792C567.168-440.02 34.33-243.821-194.977-81.217-424.284 81.387-854.751 427.63-661.327 671.434v0z" stroke="#EBECF0" stroke-miterlimit="1.5" stroke-linecap="round" stroke-linejoin="round"/><path clip-rule="evenodd" d="M-635.339 655.558c122.086 153.889 307.845 76.786 564.186 147.254 217.953 59.915 334.34 331.238 523.784 197.928 144.616-101.77 28.656-353.112 60.726-527.012 39.486-214.11 408.059-543.886 176.184-757.655C547.654-414.73 34.55-225.797-186.266-69.217-407.079 87.364-821.601 420.781-635.339 655.557v0z" stroke="#EBECF0" stroke-miterlimit="1.5" stroke-linecap="round" stroke-linejoin="round"/><path clip-rule="evenodd" d="M-609.354 639.68c117.394 147.972 296.008 73.833 542.492 141.591 209.566 57.611 321.476 318.499 503.634 190.311 139.054-97.852 27.557-339.527 58.392-506.739 37.965-205.876 392.364-522.965 169.405-728.511C528.143-389.445 34.772-207.777-177.55-57.218-389.872 93.34-788.452 413.936-609.354 639.68v0z" stroke="#EBECF0" stroke-miterlimit="1.5" stroke-linecap="round" stroke-linejoin="round"/><path clip-rule="evenodd" d="M-583.536 623.759C-470.837 765.81-299.367 694.64-62.743 759.686c201.184 55.306 308.617 305.764 483.491 182.7 133.491-93.937 26.452-325.947 56.055-486.469 36.448-197.642 376.67-502.05 162.631-699.374C508.46-364.202 34.826-189.799-169.005-45.262-372.833 99.272-755.468 407.043-583.536 623.759v0z" stroke="#EBECF0" stroke-miterlimit="1.5" stroke-linecap="round" stroke-linejoin="round"/><path clip-rule="evenodd" d="M-557.548 607.882c107.999 136.131 272.327 67.927 499.09 130.265C134.344 791.148 237.3 1031.16 404.887 913.232c127.929-90.023 25.35-312.364 53.721-466.2 34.926-189.405 360.973-481.13 155.853-670.231C488.946-338.914 35.044-171.78-160.291-33.263-355.625 105.25-722.319 400.195-557.548 607.882v0z" stroke="#EBECF0" stroke-miterlimit="1.5" stroke-linecap="round" stroke-linejoin="round"/><path clip-rule="evenodd" d="M-583.536 623.759C-470.837 765.81-299.367 694.64-62.743 759.686c201.184 55.306 308.617 305.764 483.491 182.7 133.491-93.937 26.452-325.947 56.055-486.469 36.448-197.642 376.67-502.05 162.631-699.374C508.46-364.202 34.826-189.799-169.005-45.262-372.833 99.272-755.468 407.043-583.536 623.759v0z" stroke="#EBECF0" stroke-miterlimit="1.5" stroke-linecap="round" stroke-linejoin="round"/><path clip-rule="evenodd" d="M-531.564 592.006c103.307 130.214 260.487 64.97 477.392 124.597 184.42 50.699 282.902 280.281 443.199 167.477 122.369-86.111 24.248-298.787 51.383-445.932 33.412-181.169 345.282-460.21 149.079-641.093-120.056-110.682-554.225 49.187-741.065 181.68-186.843 132.491-537.591 414.615-379.988 613.271v0z" stroke="#EBECF0" stroke-miterlimit="1.5" stroke-linecap="round" stroke-linejoin="round"/><path clip-rule="evenodd" d="M-505.578 576.129c98.611 124.295 248.647 62.02 455.693 118.935 176.038 48.394 270.042 267.54 423.056 159.863 116.803-82.194 23.145-285.203 49.046-425.663 31.892-172.935 329.588-439.292 142.304-611.949C449.92-288.337 35.487-135.737-142.863-9.266-321.212 117.2-656.016 386.502-505.578 576.129v0z" stroke="#EBECF0" stroke-miterlimit="1.5" stroke-linecap="round" stroke-linejoin="round"/><path clip-rule="evenodd" d="M-479.59 560.252c93.912 118.376 236.806 59.067 433.99 113.273 167.656 46.089 257.183 254.799 402.91 152.248 111.241-78.28 22.043-271.62 46.712-405.39 30.374-164.7 313.891-418.374 135.527-582.812C430.407-263.048 35.707-117.713-134.148 2.734-304.007 123.179-622.867 379.657-479.59 560.252v0z" stroke="#EBECF0" stroke-miterlimit="1.5" stroke-linecap="round" stroke-linejoin="round"/><path clip-rule="evenodd" d="M-453.605 544.376c89.22 112.456 224.968 56.114 412.292 107.609 159.274 43.784 244.323 242.057 382.764 144.636 105.682-74.368 20.942-258.043 44.379-385.123 28.852-156.464 298.195-397.454 128.747-553.669C410.892-237.762 35.93-99.694-125.435 14.731c-161.362 114.425-464.281 358.077-328.17 529.645v0z" stroke="#EBECF0" stroke-miterlimit="1.5" stroke-linecap="round" stroke-linejoin="round"/><path clip-rule="evenodd" d="M-427.616 528.499c84.52 106.537 213.122 53.16 390.59 101.944 150.89 41.482 231.466 229.32 362.62 137.026 100.115-70.452 19.839-244.46 42.041-364.852 27.336-148.232 282.502-376.538 121.973-524.528C391.379-212.472 36.151-81.67-116.72 26.731c-152.871 108.403-439.847 339.232-310.896 501.768v0z" stroke="#EBECF0" stroke-miterlimit="1.5" stroke-linecap="round" stroke-linejoin="round"/><path clip-rule="evenodd" d="M-401.631 512.625c79.825 100.618 201.285 50.203 368.892 96.279 142.509 39.174 218.607 216.579 342.474 129.414 94.556-66.54 18.737-230.879 39.707-344.585C375.257 253.738 616.25 38.116 464.637-101.655c-92.77-85.528-428.264 38.006-572.641 140.389-144.38 102.378-415.412 320.382-293.627 473.891v0z" stroke="#EBECF0" stroke-miterlimit="1.5" stroke-linecap="round" stroke-linejoin="round"/></svg>