<svg width="525" height="1364" fill="none" xmlns="http://www.w3.org/2000/svg"><path clip-rule="evenodd" d="M803.546 110.054c-145.095-16.717-202.222 121.483-374.04 219.204-146.091 83.089-349.929 1.63-379.44 171.32C27.54 630.112 220.649 701.291 295.218 809.58c91.809 133.327 71.411 500.48 305.705 490.96 143.369-5.82 313.802-374.918 347.572-573.334 33.77-198.415 76.406-591.645-144.948-617.152v0z" stroke="#EBECF0" stroke-miterlimit="1.5" stroke-linecap="round" stroke-linejoin="round"/><path clip-rule="evenodd" d="M798.427 131.249c-139.72-16.101-194.73 116.98-360.186 211.083-140.678 80.011-336.967 1.57-365.384 164.976C51.163 632.045 237.12 700.586 308.925 804.864c88.408 128.39 68.766 481.946 294.385 472.786 138.057-5.62 302.178-361.042 334.699-552.108 32.518-191.067 73.581-569.732-139.582-594.293v0z" stroke="#EBECF0" stroke-miterlimit="1.5" stroke-linecap="round" stroke-linejoin="round"/><path clip-rule="evenodd" d="M793.31 152.443C658.961 136.962 606.068 264.925 446.975 355.41c-135.267 76.931-324.006 1.507-351.33 158.629-20.858 119.939 157.945 185.846 226.99 286.112 85.009 123.452 66.12 463.409 283.062 454.599 132.748-5.4 290.556-347.153 321.825-530.87 31.27-183.718 70.751-547.822-134.211-571.437v0z" stroke="#EBECF0" stroke-miterlimit="1.5" stroke-linecap="round" stroke-linejoin="round"/><path clip-rule="evenodd" d="M788.299 173.574c-128.974-14.86-179.754 107.983-332.482 194.849-129.856 73.855-311.045 1.447-337.278 152.284-20.025 115.142 151.628 178.412 217.91 274.668 81.608 118.514 63.476 444.875 271.74 436.415 127.44-5.18 278.933-333.267 308.953-509.638 30.019-176.367 67.921-525.905-128.843-548.578v0z" stroke="#EBECF0" stroke-miterlimit="1.5" stroke-linecap="round" stroke-linejoin="round"/><path clip-rule="evenodd" d="M783.18 194.77c-123.598-14.243-172.263 103.483-318.628 186.728-124.444 70.778-298.083 1.387-323.223 145.939-19.19 110.344 145.309 170.977 208.829 263.224C428.367 904.235 410.991 1217 610.576 1208.89c122.129-4.96 267.314-319.379 296.079-488.401C935.422 551.47 971.747 216.497 783.18 194.77v0z" stroke="#EBECF0" stroke-miterlimit="1.5" stroke-linecap="round" stroke-linejoin="round"/><path clip-rule="evenodd" d="M788.299 173.574c-128.974-14.86-179.754 107.983-332.482 194.849-129.856 73.855-311.045 1.447-337.278 152.284-20.025 115.142 151.628 178.412 217.91 274.668 81.608 118.514 63.476 444.875 271.74 436.415 127.44-5.18 278.933-333.267 308.953-509.638 30.019-176.367 67.921-525.905-128.843-548.578v0z" stroke="#EBECF0" stroke-miterlimit="1.5" stroke-linecap="round" stroke-linejoin="round"/><path clip-rule="evenodd" d="M778.063 215.962c-118.227-13.622-164.772 98.986-304.774 178.613-119.035 67.699-285.126 1.326-309.171 139.591-18.357 105.549 138.993 163.546 199.751 251.78 74.806 108.637 58.186 407.804 249.096 400.044 116.817-4.74 255.689-305.492 283.204-467.163 27.517-161.672 62.26-482.08-118.106-502.865v0z" stroke="#EBECF0" stroke-miterlimit="1.5" stroke-linecap="round" stroke-linejoin="round"/><path clip-rule="evenodd" d="M772.945 237.157c-112.852-13.003-157.284 94.485-290.921 170.493-113.625 64.623-272.165 1.267-295.119 133.248-17.521 100.748 132.674 156.11 190.672 240.335 71.408 103.699 55.541 389.267 237.771 381.857 111.509-4.53 244.07-291.603 270.335-445.926 26.266-154.322 59.429-460.166-112.738-480.007v0z" stroke="#EBECF0" stroke-miterlimit="1.5" stroke-linecap="round" stroke-linejoin="round"/><path clip-rule="evenodd" d="M767.826 258.352c-107.477-12.386-149.794 89.985-277.067 162.372-108.214 61.546-259.205 1.207-281.064 126.904-16.687 95.951 126.355 148.675 181.59 228.889 68.007 98.762 52.898 370.733 226.451 363.683 106.197-4.32 232.445-277.726 257.459-424.699 25.017-146.975 56.6-438.256-107.369-457.149v0z" stroke="#EBECF0" stroke-miterlimit="1.5" stroke-linecap="round" stroke-linejoin="round"/><path clip-rule="evenodd" d="M762.708 279.546C660.604 267.782 620.403 365.032 499.494 433.8c-102.804 58.47-246.244 1.147-267.011 120.558-15.853 91.156 120.039 141.244 172.511 217.447C469.601 865.627 455.246 1124 620.122 1117.3c100.889-4.1 220.823-263.836 244.588-403.462 23.763-139.625 53.769-416.341-102.002-434.292v0z" stroke="#EBECF0" stroke-miterlimit="1.5" stroke-linecap="round" stroke-linejoin="round"/><path clip-rule="evenodd" d="M757.589 300.741c-96.729-11.146-134.813 80.986-249.359 146.135-97.394 55.391-233.286 1.087-252.96 114.214-15.017 86.354 113.721 133.808 163.432 206 61.207 88.886 47.608 333.66 203.805 327.31 95.58-3.88 209.202-249.95 231.716-382.225 22.513-132.278 50.938-394.431-96.634-411.434v0z" stroke="#EBECF0" stroke-miterlimit="1.5" stroke-linecap="round" stroke-linejoin="round"/><path clip-rule="evenodd" d="M752.47 321.934c-91.355-10.528-127.323 76.489-235.506 138.017-91.982 52.317-220.325 1.027-238.906 107.867-14.184 81.56 107.402 126.376 154.352 194.559 57.807 83.946 44.963 315.123 192.483 309.123 90.269-3.67 197.579-236.06 218.84-360.99 21.265-124.928 48.112-372.515-91.263-388.576v0z" stroke="#EBECF0" stroke-miterlimit="1.5" stroke-linecap="round" stroke-linejoin="round"/></svg>