<svg width="835" height="1332" fill="none" xmlns="http://www.w3.org/2000/svg"><path clip-rule="evenodd" d="M725.121 803.675c16.717-145.094-121.483-202.221-219.204-374.04-83.089-146.091-1.63-349.928-171.32-379.439-129.534-22.527-200.713 170.582-309.002 245.15-133.327 91.809-500.484 71.411-490.964 305.706 5.827 143.368 374.922 313.801 573.338 347.571 198.415 33.77 591.646 76.407 617.152-144.948v0z" stroke="#EBECF0" stroke-miterlimit="1.5" stroke-linecap="round" stroke-linejoin="round"/><path clip-rule="evenodd" d="M703.926 798.557c16.101-139.721-116.98-194.731-211.083-360.187-80.011-140.678-1.57-336.967-164.976-365.384C203.13 51.292 134.589 237.249 30.311 309.054c-128.39 88.409-481.948 68.767-472.781 294.386 5.611 138.057 361.037 302.177 552.103 334.698 191.067 32.518 569.732 73.582 594.293-139.581v0z" stroke="#EBECF0" stroke-miterlimit="1.5" stroke-linecap="round" stroke-linejoin="round"/><path clip-rule="evenodd" d="M682.732 793.439c15.481-134.348-112.482-187.242-202.967-346.335-76.932-135.266-1.507-324.006-158.629-351.329C201.197 74.915 135.29 253.72 35.024 322.763c-123.452 85.01-463.41 66.12-454.595 283.063 5.392 132.747 347.149 290.555 530.866 321.825 183.718 31.269 547.822 70.75 571.437-134.212v0z" stroke="#EBECF0" stroke-miterlimit="1.5" stroke-linecap="round" stroke-linejoin="round"/><path clip-rule="evenodd" d="M661.601 788.428c14.86-128.973-107.983-179.753-194.849-332.482-73.855-129.855-1.447-311.044-152.284-337.277C199.326 98.644 136.056 270.297 39.8 336.578c-118.514 81.609-444.876 63.477-436.413 271.741 5.178 127.44 333.265 278.933 509.636 308.953 176.367 30.018 525.905 67.92 548.578-128.844v0z" stroke="#EBECF0" stroke-miterlimit="1.5" stroke-linecap="round" stroke-linejoin="round"/><path clip-rule="evenodd" d="M640.405 783.31c14.243-123.598-103.483-172.263-186.728-318.628-70.778-124.445-1.387-298.084-145.939-323.223-110.344-19.191-170.977 145.309-263.224 208.829-113.574 78.209-426.337 60.832-418.228 260.418 4.962 122.129 319.379 267.313 488.4 296.079 169.019 28.767 503.992 65.092 525.719-123.475v0z" stroke="#EBECF0" stroke-miterlimit="1.5" stroke-linecap="round" stroke-linejoin="round"/><path clip-rule="evenodd" d="M661.601 788.428c14.86-128.973-107.983-179.753-194.849-332.482-73.855-129.855-1.447-311.044-152.284-337.277C199.326 98.644 136.056 270.297 39.8 336.578c-118.514 81.609-444.876 63.477-436.413 271.741 5.178 127.44 333.265 278.933 509.636 308.953 176.367 30.018 525.905 67.92 548.578-128.844v0z" stroke="#EBECF0" stroke-miterlimit="1.5" stroke-linecap="round" stroke-linejoin="round"/><path clip-rule="evenodd" d="M619.212 778.192c13.623-118.226-98.985-164.771-178.612-304.773-67.7-119.036-1.327-285.126-139.591-309.171-105.55-18.357-163.546 138.993-251.78 199.751-108.637 74.805-407.802 58.185-400.046 249.095 4.746 116.818 305.494 255.689 467.165 283.204 161.672 27.517 482.08 62.26 502.864-118.106v0z" stroke="#EBECF0" stroke-miterlimit="1.5" stroke-linecap="round" stroke-linejoin="round"/><path clip-rule="evenodd" d="M598.018 773.075c13.003-112.853-94.485-157.285-170.493-290.922-64.623-113.625-1.267-272.165-133.248-295.118-100.748-17.522-156.11 132.674-240.335 190.672-103.699 71.407-389.266 55.541-381.861 237.771 4.53 111.509 291.607 244.069 445.93 270.334 154.322 26.267 460.167 59.429 480.007-112.737v0z" stroke="#EBECF0" stroke-miterlimit="1.5" stroke-linecap="round" stroke-linejoin="round"/><path clip-rule="evenodd" d="M576.823 767.956c12.386-107.477-89.985-149.794-162.372-277.068-61.546-108.214-1.207-259.204-126.904-281.064-95.951-16.687-148.675 126.355-228.89 181.591-98.761 68.006-370.728 52.898-363.678 226.45 4.315 106.198 277.722 232.445 424.696 257.46 146.974 25.016 438.255 56.599 457.148-107.369v0z" stroke="#EBECF0" stroke-miterlimit="1.5" stroke-linecap="round" stroke-linejoin="round"/><path clip-rule="evenodd" d="M555.629 762.837c11.764-102.104-85.486-142.305-154.254-263.214-58.469-102.803-1.147-246.243-120.558-267.01-91.156-15.854-141.244 120.038-217.447 172.511-93.822 64.606-352.192 50.252-345.492 215.128 4.098 100.889 263.833 220.823 403.459 244.588 139.625 23.762 416.342 53.768 434.292-102.003v0z" stroke="#EBECF0" stroke-miterlimit="1.5" stroke-linecap="round" stroke-linejoin="round"/><path clip-rule="evenodd" d="M534.434 757.718c11.146-96.728-80.986-134.813-146.135-249.359-55.391-97.394-1.087-233.285-114.214-252.959-86.354-15.018-133.808 113.72-206 163.432-88.886 61.207-333.657 47.608-327.309 203.804C-255.341 718.216-9.275 831.838 123 854.352c132.278 22.513 394.431 50.939 411.434-96.634v0z" stroke="#EBECF0" stroke-miterlimit="1.5" stroke-linecap="round" stroke-linejoin="round"/><path clip-rule="evenodd" d="M513.241 752.599c10.528-91.354-76.489-127.323-138.017-235.506-52.317-91.982-1.027-220.324-107.867-238.906-81.56-14.184-126.376 107.403-194.56 154.353-83.945 57.807-315.118 44.962-309.123 192.483 3.667 90.268 236.061 197.579 360.991 218.84 124.928 21.264 372.515 48.111 388.576-91.264v0z" stroke="#EBECF0" stroke-miterlimit="1.5" stroke-linecap="round" stroke-linejoin="round"/></svg>