<svg width="725" height="1332" fill="none" xmlns="http://www.w3.org/2000/svg"><path clip-rule="evenodd" d="M615.121 803.675c16.717-145.095-121.483-202.222-219.204-374.04-83.089-146.091-1.63-349.929-171.32-379.44C95.063 27.67 23.884 220.779-84.405 295.347c-133.327 91.809-500.484 71.411-490.964 305.705 5.827 143.369 374.922 313.802 573.338 347.572 198.415 33.77 591.646 76.407 617.152-144.948v0z" stroke="#EBECF0" stroke-miterlimit="1.5" stroke-linecap="round" stroke-linejoin="round"/><path clip-rule="evenodd" d="M593.926 798.556c16.101-139.72-116.98-194.73-211.083-360.186-80.011-140.678-1.57-336.967-164.976-365.384C93.13 51.292 24.589 237.249-79.689 309.054c-128.39 88.408-481.948 68.766-472.781 294.385 5.611 138.057 361.037 302.178 552.103 334.699 191.067 32.518 569.732 73.582 594.293-139.582v0z" stroke="#EBECF0" stroke-miterlimit="1.5" stroke-linecap="round" stroke-linejoin="round"/><path clip-rule="evenodd" d="M572.732 793.439C588.213 659.09 460.25 606.197 369.765 447.104c-76.932-135.266-1.507-324.006-158.629-351.33C91.196 74.916 25.29 253.719-74.976 322.764c-123.452 85.009-463.41 66.12-454.595 283.063 5.392 132.747 347.149 290.555 530.866 321.824 183.718 31.27 547.822 70.751 571.437-134.211v0z" stroke="#EBECF0" stroke-miterlimit="1.5" stroke-linecap="round" stroke-linejoin="round"/><path clip-rule="evenodd" d="M551.601 788.428c14.86-128.974-107.983-179.753-194.849-332.482-73.855-129.855-1.447-311.045-152.284-337.277C89.326 98.644 26.056 270.296-70.2 336.578c-118.514 81.609-444.876 63.477-436.413 271.74 5.178 127.44 333.265 278.934 509.636 308.953C179.39 947.29 528.928 985.192 551.6 788.428v0z" stroke="#EBECF0" stroke-miterlimit="1.5" stroke-linecap="round" stroke-linejoin="round"/><path clip-rule="evenodd" d="M530.405 783.31c14.243-123.598-103.483-172.264-186.728-318.628-70.778-124.445-1.387-298.084-145.939-323.224-110.344-19.19-170.977 145.31-263.224 208.83-113.574 78.208-426.337 60.832-418.228 260.417 4.962 122.13 319.379 267.314 488.4 296.079 169.019 28.767 503.992 65.092 525.719-123.474v0z" stroke="#EBECF0" stroke-miterlimit="1.5" stroke-linecap="round" stroke-linejoin="round"/><path clip-rule="evenodd" d="M551.601 788.428c14.86-128.974-107.983-179.753-194.849-332.482-73.855-129.855-1.447-311.045-152.284-337.277C89.326 98.644 26.056 270.296-70.2 336.578c-118.514 81.609-444.876 63.477-436.413 271.74 5.178 127.44 333.265 278.934 509.636 308.953C179.39 947.29 528.928 985.192 551.6 788.428v0z" stroke="#EBECF0" stroke-miterlimit="1.5" stroke-linecap="round" stroke-linejoin="round"/><path clip-rule="evenodd" d="M509.212 778.192c13.623-118.226-98.985-164.771-178.612-304.774-67.7-119.035-1.327-285.126-139.591-309.171C85.459 145.891 27.463 303.24-60.771 363.998c-108.637 74.806-407.802 58.186-400.046 249.096 4.746 116.817 305.494 255.689 467.165 283.204 161.672 27.517 482.08 62.26 502.864-118.106v0z" stroke="#EBECF0" stroke-miterlimit="1.5" stroke-linecap="round" stroke-linejoin="round"/><path clip-rule="evenodd" d="M488.018 773.074c13.003-112.852-94.485-157.284-170.493-290.921-64.623-113.625-1.267-272.165-133.248-295.119C83.529 169.513 28.167 319.708-56.058 377.707c-103.699 71.407-389.266 55.54-381.861 237.77 4.53 111.51 291.607 244.07 445.93 270.335 154.322 26.266 460.167 59.429 480.007-112.738v0z" stroke="#EBECF0" stroke-miterlimit="1.5" stroke-linecap="round" stroke-linejoin="round"/><path clip-rule="evenodd" d="M466.823 767.955c12.386-107.477-89.985-149.793-162.372-277.067-61.546-108.214-1.207-259.204-126.904-281.064-95.95-16.687-148.675 126.355-228.89 181.591-98.761 68.006-370.728 52.897-363.678 226.45 4.315 106.197 277.722 232.445 424.696 257.46 146.974 25.016 438.255 56.599 457.148-107.37v0z" stroke="#EBECF0" stroke-miterlimit="1.5" stroke-linecap="round" stroke-linejoin="round"/><path clip-rule="evenodd" d="M445.629 762.837c11.764-102.104-85.486-142.305-154.254-263.214-58.469-102.803-1.147-246.243-120.558-267.011C79.661 216.759 29.573 352.651-46.63 405.124c-93.822 64.606-352.192 50.252-345.492 215.128 4.098 100.888 263.833 220.823 403.46 244.587 139.624 23.763 416.341 53.769 434.291-102.002v0z" stroke="#EBECF0" stroke-miterlimit="1.5" stroke-linecap="round" stroke-linejoin="round"/><path clip-rule="evenodd" d="M424.434 757.718c11.146-96.728-80.986-134.813-146.135-249.359-55.391-97.394-1.087-233.286-114.213-252.959-86.355-15.018-133.81 113.72-206 163.431-88.887 61.207-333.658 47.609-327.31 203.805 3.883 95.58 249.949 209.202 382.224 231.716 132.278 22.513 394.431 50.939 411.434-96.634v0z" stroke="#EBECF0" stroke-miterlimit="1.5" stroke-linecap="round" stroke-linejoin="round"/><path clip-rule="evenodd" d="M403.241 752.599c10.528-91.355-76.489-127.323-138.017-235.506-52.317-91.982-1.027-220.325-107.867-238.906C75.797 264.003 30.981 385.59-37.203 432.54c-83.945 57.807-315.118 44.962-309.123 192.483 3.667 90.268 236.061 197.578 360.99 218.839 124.929 21.265 372.516 48.112 388.577-91.263v0z" stroke="#EBECF0" stroke-miterlimit="1.5" stroke-linecap="round" stroke-linejoin="round"/></svg>