<svg width="674" height="1935" fill="none" xmlns="http://www.w3.org/2000/svg"><path clip-rule="evenodd" d="M1701.71 488.062c-141.68-178.588-357.26-89.11-654.75-170.89C794.018 247.638 658.951-67.24 439.096 87.474c-167.827 118.103-33.255 409.792-70.472 611.609-45.823 248.479-473.561 631.187-204.467 879.267 164.665 151.81 760.133-67.45 1016.393-249.17 256.26-181.72 737.32-568.657 521.16-841.118v0z" stroke="#EBECF0" stroke-miterlimit="1.5" stroke-linecap="round" stroke-linejoin="round"/><path clip-rule="evenodd" d="M1672.67 505.805c-136.44-171.977-344.03-85.812-630.5-164.563C798.6 274.286 668.533-28.931 456.821 120.055c-161.614 113.727-32.023 394.612-67.863 588.952-44.127 239.277-456.022 607.813-196.893 846.713 158.564 146.17 731.979-64.97 978.745-239.95 246.77-174.99 710.02-547.594 501.86-809.965v0z" stroke="#EBECF0" stroke-miterlimit="1.5" stroke-linecap="round" stroke-linejoin="round"/><path clip-rule="evenodd" d="M1643.63 523.549c-131.19-165.364-330.8-82.512-606.25-158.233-234.203-64.383-359.267-355.937-562.836-212.68-155.398 109.353-30.796 379.434-65.255 566.3-42.428 230.075-438.482 584.434-189.317 814.144 152.462 140.56 703.824-62.46 941.098-230.72 237.28-168.25 682.71-526.534 482.56-778.811v0z" stroke="#EBECF0" stroke-miterlimit="1.5" stroke-linecap="round" stroke-linejoin="round"/><path clip-rule="evenodd" d="M1614.78 541.341c-125.95-158.747-317.57-79.212-582.01-151.903C807.942 327.631 687.881 47.74 492.452 185.263c-149.181 104.979-29.56 364.259-62.643 543.649C389.077 949.785 8.865 1289.97 248.062 1510.49c146.369 134.94 675.674-59.97 903.468-221.49 227.78-161.52 655.39-505.47 463.25-747.659v0z" stroke="#EBECF0" stroke-miterlimit="1.5" stroke-linecap="round" stroke-linejoin="round"/><path clip-rule="evenodd" d="M1585.74 559.085c-120.7-152.133-304.34-75.912-557.76-145.576-215.46-59.231-330.517-327.46-517.803-195.665-142.965 100.604-28.329 349.079-60.035 520.997C411.11 950.508 46.741 1276.52 275.97 1487.85c140.268 129.32 647.522-57.46 865.82-212.26 218.29-154.79 628.09-484.407 443.95-716.505v0z" stroke="#EBECF0" stroke-miterlimit="1.5" stroke-linecap="round" stroke-linejoin="round"/><path clip-rule="evenodd" d="M1614.78 541.341c-125.95-158.747-317.57-79.212-582.01-151.903C807.942 327.631 687.881 47.74 492.452 185.263c-149.181 104.979-29.56 364.259-62.643 543.649C389.077 949.785 8.865 1289.97 248.062 1510.49c146.369 134.94 675.674-59.97 903.468-221.49 227.78-161.52 655.39-505.47 463.25-747.659v0z" stroke="#EBECF0" stroke-miterlimit="1.5" stroke-linecap="round" stroke-linejoin="round"/><path clip-rule="evenodd" d="M1556.7 576.827c-115.45-145.52-291.1-72.607-533.51-139.242-206.092-56.659-316.149-313.225-495.287-187.163-136.753 96.233-27.098 333.907-57.423 498.347-37.34 202.463-385.866 514.301-166.602 716.451 134.168 123.69 619.368-54.97 828.172-203.04 208.8-148.06 600.78-463.347 424.65-685.353v0z" stroke="#EBECF0" stroke-miterlimit="1.5" stroke-linecap="round" stroke-linejoin="round"/><path clip-rule="evenodd" d="M1527.66 594.57c-110.2-138.905-277.87-69.31-509.26-132.915-196.726-54.082-301.779-298.986-472.778-178.653-130.532 91.856-25.866 318.726-54.812 475.695-35.64 193.262-368.327 490.923-159.029 683.873 128.07 118.08 591.216-52.46 790.529-193.8 199.31-141.33 573.47-442.284 405.35-654.2v0z" stroke="#EBECF0" stroke-miterlimit="1.5" stroke-linecap="round" stroke-linejoin="round"/><path clip-rule="evenodd" d="M1498.62 612.313c-104.95-132.29-264.64-66.009-485.01-126.588-187.358-51.506-287.407-284.747-450.264-170.143-124.315 87.482-24.634 303.546-52.202 453.04C477.2 952.681 160.359 1236.17 359.688 1419.94c121.97 112.44 563.063-49.97 752.882-184.58 189.82-134.6 546.16-421.225 386.05-623.047v0z" stroke="#EBECF0" stroke-miterlimit="1.5" stroke-linecap="round" stroke-linejoin="round"/><path clip-rule="evenodd" d="M1469.58 630.055c-99.71-125.674-251.41-62.709-460.76-120.257-177.991-48.93-273.037-270.509-427.75-161.637-118.103 83.11-23.403 288.373-49.595 430.391-32.244 174.854-333.245 444.168-143.88 618.748 115.873 106.82 534.907-47.47 715.235-175.35 180.33-127.87 518.86-400.161 366.75-591.895v0z" stroke="#EBECF0" stroke-miterlimit="1.5" stroke-linecap="round" stroke-linejoin="round"/><path clip-rule="evenodd" d="M1440.53 647.798c-94.45-119.059-238.17-59.408-436.5-113.926-168.623-46.358-258.67-256.274-405.239-153.132-111.883 78.733-22.172 273.194-46.983 407.736-30.549 165.656-315.708 420.794-136.31 586.184 109.776 101.2 506.757-44.97 677.592-166.12 170.84-121.14 491.55-379.102 347.44-560.742v0z" stroke="#EBECF0" stroke-miterlimit="1.5" stroke-linecap="round" stroke-linejoin="round"/><path clip-rule="evenodd" d="M1411.49 665.538c-89.2-112.445-224.94-56.104-412.248-107.596-159.26-43.778-244.302-242.035-382.728-144.625-105.671 74.361-20.94 258.017-44.375 385.088-28.849 156.45-298.168 397.415-128.735 553.615 103.675 95.58 478.602-42.47 639.946-156.89 161.35-114.41 464.24-358.039 328.14-529.592v0z" stroke="#EBECF0" stroke-miterlimit="1.5" stroke-linecap="round" stroke-linejoin="round"/></svg>