<svg width="309" height="805" fill="none" xmlns="http://www.w3.org/2000/svg"><path clip-rule="evenodd" d="M-398.421 601.7c58.882 74.217 148.472 37.032 272.1 71.018 105.117 28.897 161.247 159.752 252.613 95.457 69.745-49.081 13.821-170.3 29.287-254.17 19.043-103.262 196.8-262.308 84.971-365.404-68.43-63.085-315.893 28.034-422.388 103.551S-488.251 488.472-398.421 601.7v0z" stroke="#EBECF0" stroke-miterlimit="1.5" stroke-linecap="round" stroke-linejoin="round"/><path clip-rule="evenodd" d="M-386.352 594.327c56.7 71.469 142.97 35.661 262.021 68.388 101.222 27.825 155.275 153.835 243.257 91.92 67.163-47.262 13.308-163.991 28.202-244.754 18.339-99.438 189.512-252.593 81.824-351.872-65.895-60.748-304.192 26.997-406.744 99.715-102.551 72.721-295.064 227.567-208.56 336.603v0z" stroke="#EBECF0" stroke-miterlimit="1.5" stroke-linecap="round" stroke-linejoin="round"/><path clip-rule="evenodd" d="M-374.284 586.953c54.521 68.721 137.473 34.29 251.946 65.758 97.327 26.756 149.3 147.918 233.899 88.384 64.579-45.444 12.798-157.684 27.118-235.34 17.632-95.614 182.223-242.877 78.676-338.338-63.36-58.413-292.492 25.958-391.099 95.88-98.607 69.923-283.717 218.816-200.54 323.656v0z" stroke="#EBECF0" stroke-miterlimit="1.5" stroke-linecap="round" stroke-linejoin="round"/><path clip-rule="evenodd" d="M-362.293 579.559c52.34 65.971 131.974 32.918 241.867 63.127 93.435 25.686 143.33 142.001 224.545 84.85 61.996-43.626 12.285-151.377 26.033-225.927 16.927-91.79 174.934-233.163 75.53-324.805-60.828-56.077-280.794 24.92-375.458 92.046-94.662 67.125-272.367 210.061-192.517 310.709v0z" stroke="#EBECF0" stroke-miterlimit="1.5" stroke-linecap="round" stroke-linejoin="round"/><path clip-rule="evenodd" d="M-350.224 572.185c50.157 63.222 126.475 31.547 231.789 60.498 89.541 24.615 137.356 136.084 215.188 81.313 59.413-41.808 11.773-145.069 24.949-216.514 16.221-87.963 167.644-223.447 72.382-311.27-58.293-53.741-269.095 23.88-359.813 88.211-90.717 64.328-261.018 201.307-184.495 297.762v0z" stroke="#EBECF0" stroke-miterlimit="1.5" stroke-linecap="round" stroke-linejoin="round"/><path clip-rule="evenodd" d="M-362.293 579.559c52.34 65.971 131.974 32.918 241.867 63.127 93.435 25.686 143.33 142.001 224.545 84.85 61.996-43.626 12.285-151.377 26.033-225.927 16.927-91.79 174.934-233.163 75.53-324.805-60.828-56.077-280.794 24.92-375.458 92.046-94.662 67.125-272.367 210.061-192.517 310.709v0z" stroke="#EBECF0" stroke-miterlimit="1.5" stroke-linecap="round" stroke-linejoin="round"/><path clip-rule="evenodd" d="M-338.156 564.812c47.978 60.474 120.975 30.174 221.711 57.865 85.65 23.546 131.386 130.169 205.832 77.781 56.831-39.992 11.261-138.764 23.863-207.101 15.518-84.139 160.357-213.732 69.236-297.738-55.757-51.403-257.394 22.843-344.167 84.376-86.775 61.532-249.67 192.556-176.475 284.817v0z" stroke="#EBECF0" stroke-miterlimit="1.5" stroke-linecap="round" stroke-linejoin="round"/><path clip-rule="evenodd" d="M-326.088 557.438c45.797 57.726 115.477 28.804 211.634 55.236C-32.698 635.15 10.96 736.926 82.023 686.918c54.246-38.173 10.75-132.455 22.778-197.687 14.811-80.315 153.068-204.017 66.089-284.203-53.223-49.067-245.695 21.804-328.525 80.539-82.829 58.735-238.32 183.804-168.453 271.871v0z" stroke="#EBECF0" stroke-miterlimit="1.5" stroke-linecap="round" stroke-linejoin="round"/><path clip-rule="evenodd" d="M-314.019 550.064c43.615 54.977 109.978 27.432 201.555 52.607C-34.6 624.076 6.978 721.005 74.657 673.379c51.663-36.356 10.237-126.147 21.694-188.273 14.106-76.49 145.778-194.302 62.942-270.671-50.688-46.73-233.996 20.767-312.88 76.705-78.887 55.938-226.973 175.052-160.432 258.924v0z" stroke="#EBECF0" stroke-miterlimit="1.5" stroke-linecap="round" stroke-linejoin="round"/><path clip-rule="evenodd" d="M-301.95 542.691c41.435 52.227 104.48 26.061 191.477 49.976 73.97 20.335 113.47 112.417 177.764 67.173 49.081-34.539 9.726-119.841 20.61-178.86 13.401-72.665 138.49-184.587 59.794-257.137-48.154-44.394-222.294 19.728-297.236 72.869-74.94 53.142-215.623 166.299-152.409 245.979v0z" stroke="#EBECF0" stroke-miterlimit="1.5" stroke-linecap="round" stroke-linejoin="round"/><path clip-rule="evenodd" d="M-289.881 535.318c39.254 49.478 98.979 24.688 181.399 47.345 70.077 19.265 107.498 106.501 168.41 63.638 46.495-32.72 9.213-113.533 19.524-169.446 12.695-68.842 131.2-174.873 56.647-243.602-45.62-42.059-210.596 18.688-281.592 69.032-70.997 50.345-204.275 157.547-144.388 233.033v0z" stroke="#EBECF0" stroke-miterlimit="1.5" stroke-linecap="round" stroke-linejoin="round"/><path clip-rule="evenodd" d="M-277.813 527.945c37.073 46.73 93.482 23.316 171.322 44.715 66.185 18.193 101.526 100.584 159.053 60.102 43.914-30.902 8.702-107.225 18.44-160.033 11.99-65.017 123.912-165.156 53.5-230.069-43.085-39.721-198.895 17.651-265.948 65.2-67.053 47.547-192.926 148.792-136.367 220.085v0z" stroke="#EBECF0" stroke-miterlimit="1.5" stroke-linecap="round" stroke-linejoin="round"/></svg>