<svg width="19" height="21" fill="none" xmlns="http://www.w3.org/2000/svg"><path d="M13.156 4.21a.5.5 0 11.71.707L4.21 14.573c-.32.323-.36.689-.236.984a1.058 1.058 0 00.549.548c.295.123.66.083.98-.237L16.159 5.212c.923-.922 1.078-1.934.78-2.73a2.293 2.293 0 00-.53-.815 2.287 2.287 0 00-.815-.529c-.797-.298-1.809-.143-2.73.778C9.736 5.043 6.62 8.19 3.478 11.3 2.62 12.139 1 13.73 1 15.574a3.49 3.49 0 001.026 2.476 3.481 3.481 0 002.477 1.026c1.851 0 3.44-1.627 4.026-2.227 2.85-2.898 5.755-5.76 8.63-8.634a.497.497 0 01.708 0 .499.499 0 010 .707l-8.624 8.623c-.666.682-2.472 2.532-4.74 2.532a4.483 4.483 0 01-3.183-1.322A4.479 4.479 0 010 15.574c0-2.258 1.818-4.044 2.777-4.987l9.38-9.379C13.395-.03 14.807-.22 15.94.205a3.285 3.285 0 011.93 1.93c.426 1.135.236 2.545-1.003 3.784L6.213 16.575c-.653.653-1.431.719-2.072.45a2.012 2.012 0 01-1.089-1.087c-.268-.642-.202-1.419.452-2.072l9.652-9.655z" fill="#C5C7CD"/></svg>