<svg width="25" height="20" fill="none" xmlns="http://www.w3.org/2000/svg"><path d="M23.766 18.304C24.4 17.412 25 13.332 25 9.887c0-3.21-.566-7.468-1.231-8.413-.123-.175-.29-.3-.475-.37C18.827-.587 2.807-.202 1.325 1.357c-.075.08-.153.194-.204.317C.297 3.673 0 7.599 0 9.887c0 2.3.308 6.287 1.125 8.222.05.118.125.228.2.308 1.486 1.563 17.506 1.943 21.969.253a1.03 1.03 0 00.472-.366zm-7.58-8.417l6.205-5.894c.737 3.472.748 8.265 0 11.789l-6.204-5.895zm4.66-7.259L12.5 10.557 4.154 2.628c4.428-.775 12.24-.78 16.692 0zM2.609 15.782c-.737-3.472-.748-8.266 0-11.79l6.204 5.895-6.204 5.895zm1.545 1.364l6.15-5.843 1.489 1.414a1.027 1.027 0 001.414 0l1.489-1.414 6.15 5.843c-4.428.775-12.241.78-16.692 0z" fill="url(#paint0_linear)"/><defs><linearGradient id="paint0_linear" x1="0" y1="0" x2="0" y2="19.775" gradientUnits="userSpaceOnUse"><stop stop-color="#D25027"/><stop offset="1" stop-color="#F17A54"/></linearGradient></defs></svg>