<svg width="21" height="21" fill="none" xmlns="http://www.w3.org/2000/svg"><path d="M20.53 16.572l-3.244-3.243c-.646-.643-1.716-.624-2.384.045l-1.634 1.633c-.103-.056-.21-.116-.322-.179-1.032-.572-2.444-1.355-3.93-2.842-1.49-1.49-2.275-2.905-2.849-3.937-.06-.11-.118-.215-.175-.315l1.096-1.095.54-.54c.669-.67.687-1.74.043-2.385L4.428.471c-.645-.645-1.715-.625-2.384.044l-.914.92.025.025A5.286 5.286 0 00.4 2.788a5.508 5.508 0 00-.335 1.348c-.428 3.55 1.194 6.794 5.597 11.197 6.086 6.086 10.99 5.626 11.202 5.603a5.48 5.48 0 001.351-.339 5.27 5.27 0 001.324-.75l.02.018.926-.907c.668-.67.687-1.74.043-2.386z" fill="url(#paint0_linear)"/><defs><linearGradient id="paint0_linear" x1="0" y1="0" x2="0" y2="20.953" gradientUnits="userSpaceOnUse"><stop stop-color="#D25027"/><stop offset="1" stop-color="#F17A54"/></linearGradient></defs></svg>