<svg id="svg" xmlns="http://www.w3.org/2000/svg" xmlns:xlink="http://www.w3.org/1999/xlink" width="400" height="400" viewBox="0, 0, 400,400" version="1.1"><g id="svgg"><path id="path0" d="M197.297 200.000 L -2.648 400.000 198.676 400.000 L 400.000 400.000 400.000 200.000 C 400.000 90.000,399.380 -0.000,398.621 -0.000 C 397.863 -0.000,307.267 90.000,197.297 200.000 M300.000 210.811 C 307.636 227.744,312.796 232.515,323.794 232.812 C 354.813 233.651,358.734 239.326,340.421 256.871 C 324.838 271.801,323.923 274.730,327.264 299.017 L 330.853 325.117 308.670 313.800 L 286.486 302.483 264.102 313.903 L 241.718 325.322 245.230 298.852 C 248.490 274.276,247.562 271.252,232.273 256.604 C 214.241 239.328,218.278 233.648,249.179 232.812 C 260.177 232.515,265.337 227.744,272.973 210.811 C 278.335 198.919,284.417 189.189,286.486 189.189 C 288.556 189.189,294.638 198.919,300.000 210.811 " stroke="none" fill="#000000" fill-rule="evenodd"></path></g></svg>