<svg xmlns="http://www.w3.org/2000/svg" viewBox="0 0 368.19 368.19"><defs><style>.cls-3{stroke-miterlimit:10;fill:#efa43b;stroke:#fff;stroke-width:5px}</style></defs><g id="Слой_2" data-name="Слой 2"><g id="Слой_1-2" data-name="Слой 1"><path fill="none" d="M207.86 178.17l-.21-.11-.07.38.28-.27z"/><path stroke-miterlimit="10" stroke="#000" stroke-width=".5" d="M207.66 177.97l-.08.05.07.04.01-.09z"/><path class="cls-3" d="M365.68 184.72v-.62a180.74 180.74 0 0 0-34-105.86L184.74 184.72zM240 356.92a181.67 181.67 0 0 0 125.7-172.2H184.1z"/><path class="cls-3" d="M184.1 365.69a181.41 181.41 0 0 0 55.9-8.77l-55.75-171.71h-.15l.12-.09-.12-.38h.64l.86-.62H2.5a181.59 181.59 0 0 0 181.6 181.57zM331.65 78.24A181.6 181.6 0 0 0 2.5 184.1h183.1z"/><circle cx="183.32" cy="187.19" r="132.91" fill="#fff"/><circle cx="183.32" cy="187.19" r="118.67" fill="#1a1a1a"/></g></g></svg>