<svg xmlns="http://www.w3.org/2000/svg" viewBox="0 0 93 93"><defs><style>.cls-2{fill:#fff}</style></defs><g id="Слой_2" data-name="Слой 2"><g id="Слой_1-2" data-name="Слой 1"><circle cx="46.5" cy="46.5" r="46.5" fill="#efa43b"/><path class="cls-2" d="M70.4 45.83a.94.94 0 0 0 1.27-.43.94.94 0 0 0-.42-1.27C69 43 64.91 43 64.74 43a.95.95 0 1 0 0 1.89 16.37 16.37 0 0 1 5.66.92z"/><path class="cls-2" d="M67.57 56.06h.21a6.92 6.92 0 0 0 2.09-.32v.38a2.6 2.6 0 0 0 .07.56l-2.16 2.16-2.15-2.14a2.56 2.56 0 0 0 .06-.57v-.4a6.45 6.45 0 0 0 1.88.33zm-4.92-7.28V47a1 1 0 0 0-.1-.43L62 45.41a3.19 3.19 0 0 1-.37-1.41 4.13 4.13 0 0 1 4.12-4.12h8.18v3.94a4.22 4.22 0 0 1-.43 1.85l-.48.95a.91.91 0 0 0-.1.43v2a5.14 5.14 0 0 1-5.3 5.14 5.31 5.31 0 0 1-5-5.39zM50.46 59.65h-.06L48 57.28l4.48-3.05.94 1-2.95 4.43zm-7.8 0l-3-4.43 1-1L45 57.28l-2.37 2.38zM45.78 52h.74a10.94 10.94 0 0 0 5.13-1.26v1.74L46.51 56l-5.13-3.51v-1.77a10.74 10.74 0 0 0 4.4 1.28zm-8.46-11.42v-2.36a1 1 0 0 0-.09-.41 9.07 9.07 0 0 1-.92-4v-2a7.17 7.17 0 0 1 7.16-7.17h13.25v9.2a9.07 9.07 0 0 1-.92 4 1 1 0 0 0-.1.41v2.7a9.12 9.12 0 0 1-2.9 6.71c-.24.22-.48.43-.73.62a9.1 9.1 0 0 1-6.15 1.83 9.39 9.39 0 0 1-8.58-9.51zM22.76 58.52l-.88-.83a2 2 0 0 0 .23-.93v-1a6.92 6.92 0 0 0 2.09.32 7.26 7.26 0 0 0 2.1-.32v1a2 2 0 0 0 .23.93l-.88.83a2.1 2.1 0 0 1-2.89 0zM17.17 54a10.07 10.07 0 0 0 .54-2.27 7 7 0 0 0 2.5 3.09V56a6.79 6.79 0 0 1-3-2zm.88-7.94A7 7 0 0 1 20 41.64a5.88 5.88 0 0 1 8.47 0 7.08 7.08 0 0 1 1.92 4.42c0 .53.05 1.14.08 1.8V48a8.5 8.5 0 0 0-4.68-3.43 12 12 0 0 0-3.64-.57 1 1 0 0 0-.66.29l-1.71 1.77a1 1 0 0 0 0 1.35 1 1 0 0 0 1.34 0l1.42-1.47c1.23.05 5.17.51 6.71 3.89A5.14 5.14 0 0 1 19.07 49a1 1 0 0 0-.95-.94H18v-.24c0-.66.05-1.27.08-1.8zM28.19 56v-1.17a7 7 0 0 0 2.51-3.09 10.11 10.11 0 0 0 .54 2.26 6.86 6.86 0 0 1-3 2zM76 57.63l-3.92-1.12a.4.4 0 0 1-.29-.38v-1.3a8 8 0 0 0 .91-.75 7 7 0 0 0 2.13-5v-1.8l.38-.76a6 6 0 0 0 .64-2.69v-4.94a1 1 0 0 0-1-.94h-9.1a6 6 0 0 0-6 6V44a5.11 5.11 0 0 0 .52 2.24l.49 1v1.55a7.4 7.4 0 0 0 3 6v1.37c0 .21 0 .3-.78.52l-1.91.55-5.53-2a1 1 0 0 0-.26-.73l-1.77-1.85v-3.16c.19-.15.37-.31.55-.48a11.1 11.1 0 0 0 3.51-8.09v-2.49a11 11 0 0 0 1-4.61V23.69a.94.94 0 0 0-.94-1H43.47a9.06 9.06 0 0 0-9.06 9.06v2a11 11 0 0 0 1 4.6v2.15a11.6 11.6 0 0 0 4.06 8.84v3.19l-1.77 1.85a1 1 0 0 0-.26.73l-5.83 2.12a4.85 4.85 0 0 0-1.17.62l-.92-.46a7.23 7.23 0 0 0 3.63-2.94.91.91 0 0 0 0-.85c-.68-1.37-.76-3.87-.83-5.89 0-.67 0-1.3-.08-1.86a8.25 8.25 0 0 0-8-8 8.25 8.25 0 0 0-8 8c0 .56-.06 1.19-.08 1.86-.07 2-.15 4.52-.84 5.89a1 1 0 0 0 0 .85 7.35 7.35 0 0 0 3.64 2.94l-2.54 1.27a4 4 0 0 0-2.21 3.57v7a.95.95 0 0 0 1.9 0v-7a2.07 2.07 0 0 1 1.15-1.87l3.17-1.59 1.11 1a4 4 0 0 0 5.49 0l1.11-1 1 .52a5 5 0 0 0-.81 2.71v7.29a.95.95 0 1 0 1.89 0V62a3.12 3.12 0 0 1 2.05-2.93l6.15-2.23L41 60.7a1.93 1.93 0 0 0 1.44.86h.2A2 2 0 0 0 44 61l1.56-1.56v9.87a1 1 0 1 0 1.9 0v-9.87L49 61a2 2 0 0 0 1.39.57h.19A1.91 1.91 0 0 0 52 60.7l2.56-3.84 6.16 2.24a3.1 3.1 0 0 1 2 2.92v7.29a1 1 0 0 0 1.9 0V62a5 5 0 0 0-1.41-3.47l.24-.07a5.08 5.08 0 0 0 .88-.32l2.42 2.42v8.73a1 1 0 0 0 1.9 0v-8.71l2.4-2.4a2.9 2.9 0 0 0 .41.16l3.91 1.12a2.09 2.09 0 0 1 1.52 2v7.84a1 1 0 0 0 1.9 0v-7.83A4 4 0 0 0 76 57.63z"/><path class="cls-2" d="M73.87 62.28a1 1 0 0 0-1 .95v6.08a.95.95 0 1 0 1.89 0v-6.08a1 1 0 0 0-.94-.95zm-54.74 1.26a.94.94 0 0 0-.94.94v4.83a.95.95 0 1 0 1.89 0v-4.83a.94.94 0 0 0-.95-.94zm21.23-29.87a.08.08 0 0 1 0-.07 30.84 30.84 0 0 1 6.16-.3c3 .2 5.1.94 6.37 2.21a.95.95 0 1 0 1.34-1.34c-3.59-3.59-11.09-2.9-14.15-2.44a1.94 1.94 0 0 0-1.66 1.94v2.18a.95.95 0 1 0 1.89 0v-2.18zm-5 30.64a.94.94 0 0 0-1 1v4a1 1 0 0 0 1.9 0v-4a1 1 0 0 0-1-1zm22.31 0a.94.94 0 0 0-1 1v4a.95.95 0 1 0 1.89 0v-4a.94.94 0 0 0-.94-1z"/></g></g></svg>