<svg xmlns="http://www.w3.org/2000/svg" viewBox="0 0 93 93"><defs><style>.cls-2{fill:#fff}</style></defs><g id="Слой_2" data-name="Слой 2"><g id="Слой_1-2" data-name="Слой 1"><circle cx="46.5" cy="46.5" r="46.5" fill="#efa43b"/><path class="cls-2" d="M46.5 71.13A24.63 24.63 0 1 1 71.13 46.5 24.66 24.66 0 0 1 46.5 71.13zm0-51.5A26.87 26.87 0 1 0 73.37 46.5 26.9 26.9 0 0 0 46.5 19.63z"/><path class="cls-2" d="M60.92 51a1.11 1.11 0 0 0-1.35.82 13.43 13.43 0 0 1-26.14 0 1.13 1.13 0 0 0-1.35-.82 1.11 1.11 0 0 0-.83 1.34 15.67 15.67 0 0 0 30.5 0 1.11 1.11 0 0 0-.83-1.34zM37.54 37.54a2.24 2.24 0 1 1-2.24 2.24 2.24 2.24 0 0 1 2.24-2.24zm17.92 0a2.24 2.24 0 1 1-2.24 2.24 2.25 2.25 0 0 1 2.24-2.24z"/></g></g></svg>