<svg xmlns="http://www.w3.org/2000/svg" viewBox="0 0 93 93"><g data-name="Слой 2"><g data-name="Слой 1"><circle cx="46.5" cy="46.5" r="46.5" fill="#efa43b"/><path d="M22.08 39.61c-1.48-.85-1.4-1.67-1.9-3.12a4.23 4.23 0 0 0-1.79-2.09l-2.67-1.54c-.53-.3-.44-.83-.14-1.36 2.58-4.5 1.67-2.87 4.26-7.5.8-1.16 3.78 2.63 6.49 1.89 4-1.1 2.09-.63 12.73.41a.88.88 0 0 1 .81.91c0 .62-.45.86-1.06.94l-5.81.77a1 1 0 0 0-.37 1.81c12.09 7 11.37 6.45 11.5 6.94a.89.89 0 0 1-1.34 1L33.2 33.1a1 1 0 0 0-1 1.68c11.92 6.88 11.15 6.34 11.28 6.82a.9.9 0 0 1-1.31 1l-10.83-6.26a1 1 0 1 0-1 1.68L40 43.58a.9.9 0 0 1-.45 1.67c-.32 0-.17 0-3.38-1.81l-6.7-3.87a1 1 0 1 0-1 1.68l6.7 3.87a.9.9 0 0 1-.9 1.55c-13.14-7.59 2.47 1.41-12.22-7.06zm12.67 9.12a2.86 2.86 0 0 0 2.78-2.26l.61.35a2.84 2.84 0 0 0 4.24-2.16A2.84 2.84 0 0 0 45 40.19a2.84 2.84 0 0 0-.26-4.75l-8.58-4.95 2.84-.38a2.9 2.9 0 0 0 2.78-2.87 2.8 2.8 0 0 0-2.57-2.84c-9.43-1.06-10-1.28-11.82-.8l-1.57.4c-.94.26-3.13-1.36-3.76-1.65a3.68 3.68 0 0 0-1.76-.54 2.49 2.49 0 0 0-2.14 1.21c-2.6 4.61-1.69 3-4.27 7.47a2.79 2.79 0 0 0 .86 4l.25.15c1.59 1 2.9 1.36 3.34 2.43l.52 1.66a5 5 0 0 0 2.25 2.52C34.55 49 33.7 48.73 34.75 48.73zM79.3 31a.16.16 0 0 0 0-.07c-.33-.56-1.34-2.24-4.41-7.57a2.71 2.71 0 0 0-3.85-1l-.15.09-1.38.8a1 1 0 0 0 1 1.68c1.7-1 2.3-1.5 2.8-.63 2.67 4.63 1.77 3.08 4.25 7.27.52.9.26 1-1.25 1.89-3.39 1.91-3.18 2.3-3.84 4.77-.59 2-1.79 2.9-6.3 9.21a.88.88 0 0 1-1.19.25c-.53-.31-.52-.82-.28-1.39l2.1-5.4a1 1 0 0 0-1.38-1.22c-12 6.94-11.26 6.62-11.76 6.49a.89.89 0 0 1-.21-1.63L63.09 39a1 1 0 0 0 .35-1.33 1 1 0 0 0-1.32-.35l-10.86 6.24a.91.91 0 0 1-1.26-.33.9.9 0 0 1 .36-1.23l10.86-6.27a1 1 0 0 0-1-1.69l-9.64 5.57a.9.9 0 0 1-1.22-.33.89.89 0 0 1 .33-1.22l9.63-5.57a1 1 0 1 0-1-1.68l-6.7 3.87a.89.89 0 0 1-.89-1.55c16.62-9.59-4.4 2.56 12.22-7a3.05 3.05 0 0 1 2.05-.52h.17a1 1 0 0 0 1.16-.73 1 1 0 0 0-.74-1.16 1.31 1.31 0 0 0-.27-.06 4.89 4.89 0 0 0-3.24.7l-12.26 7.1a2.83 2.83 0 0 0-.47 4.54l-.6.35a2.84 2.84 0 0 0-.26 4.76 2.85 2.85 0 0 0 2.59 4.47 2.83 2.83 0 0 0 4.23 2.15l8.59-5-1.14 2.72a2.87 2.87 0 0 0 4.84 3c5.56-7.54 6.13-8.05 6.6-9.84s.08-.28.42-1.62c.14-.52.94-1.05 1.69-1.49l1.71-1A2.67 2.67 0 0 0 79.3 31zM52.69 51.17v-.7a2.85 2.85 0 0 0-4-2.6 2.84 2.84 0 0 0-5.16 0 2.84 2.84 0 0 0-4 2.59v9.92L37.76 58a2.87 2.87 0 0 0-5 2.68c4.51 10.32 3.63 9.06 6.41 11.81a3.59 3.59 0 0 1 .46 2.2v1.39a2.55 2.55 0 0 0 2.71 2.57h9.15a2.57 2.57 0 0 0 2.32-2.79c0-3.31-.2-2.74 1.61-4.71a4.91 4.91 0 0 0 1-3.15v-4.3a1 1 0 1 0-1.94 0V68a3.06 3.06 0 0 1-.56 1.92l-1.17 1.27a4.21 4.21 0 0 0-.94 2.62c0 2.38.14 2.86-.54 3h-9c-.93 0-.77-.55-.76-2a4.92 4.92 0 0 0-1-3.58c-2.44-2.42-1.58-1.1-6-11.22a.87.87 0 0 1 .37-1.17c.53-.31 1 0 1.35.45l3.54 4.65a1 1 0 0 0 1.74-.59V50.46a.89.89 0 0 1 1.78 0v11.13a1 1 0 1 0 1.95 0V49.05a.9.9 0 0 1 1.79 0v12.54a1 1 0 1 0 1.94 0V50.47a.9.9 0 1 1 1.79 0v11.12a1 1 0 1 0 1.94 0v-7.73a.9.9 0 0 1 1.79 0v5.28a1 1 0 0 0 2 0v-5.28a2.84 2.84 0 0 0-3.73-2.69z" fill="#fff"/></g></g></svg>