<svg xmlns="http://www.w3.org/2000/svg" viewBox="0 0 93 93"><g data-name="Слой 2"><g data-name="Слой 1"><circle cx="46.5" cy="46.5" r="46.5" fill="#efa43b"/><path d="M21 70.84a1.21 1.21 0 0 1-1.11-1.66L23.22 61c1.43-3.52 4-8.16 9.51-8.38H38c5.55.22 8.08 4.86 9.51 8.38l.43 1 8.9-8.23a1.2 1.2 0 1 1 1.63 1.76L48.26 65a1.2 1.2 0 0 1-1.93-.43l-1.08-2.66c-1.71-4.23-3.69-6.33-6.47-6.79l-.7 3.37L39 67a1.19 1.19 0 0 1-.44 1.07l-2.11 1.69a1.18 1.18 0 0 1-.75.26H35a1.23 1.23 0 0 1-.76-.26l-2.1-1.69a1.19 1.19 0 0 1-.46-1.07l.94-8.5-.7-3.37c-2.78.46-4.76 2.56-6.47 6.79l-3.32 8.17a1.21 1.21 0 0 1-1.11.75zm13.12-4.23l1.21 1 1.21-1-.77-7h-.88zm.67-9.37h1.07l.49-2.24h-2zM72 67H53.72a1.2 1.2 0 1 1 0-2.4h17.06V30H23.17v25.29a1.2 1.2 0 0 1-2.4 0V28.82a1.2 1.2 0 0 1 1.2-1.2H72a1.2 1.2 0 0 1 1.2 1.2v37A1.2 1.2 0 0 1 72 67zm-30.71-5.68a1.2 1.2 0 0 1-1.2-1.2V60a1.21 1.21 0 0 1 2.41 0v.17a1.21 1.21 0 0 1-1.21 1.2zm-5.94-10.89a6.61 6.61 0 0 1 0-13.22 6.77 6.77 0 0 1 1.28.12h.07a6.61 6.61 0 0 1-1.35 13.08zM33.2 40.2a4.22 4.22 0 1 0 3.74-.27 6.57 6.57 0 0 1-2 1.77 1.2 1.2 0 0 1-1.7-1.5zm32.27 2.2H59.3a1.21 1.21 0 0 1 0-2.41h6.17a1.21 1.21 0 0 1 0 2.41zm-11.75 0h-2.29a1.21 1.21 0 0 1 0-2.41h2.29a1.21 1.21 0 0 1 0 2.41zm11.75-5H53.14a1.21 1.21 0 0 1 0-2.41h12.33a1.21 1.21 0 0 1 0 2.41zM53.14 24.57H40.81a1.21 1.21 0 0 1 0-2.41h12.33a1.21 1.21 0 0 1 0 2.41z" fill="#fff"/></g></g></svg>