<svg xmlns="http://www.w3.org/2000/svg" viewBox="0 0 93 93"><defs><style>.cls-2{fill:#fff}</style></defs><g id="Слой_2" data-name="Слой 2"><g id="Слой_1-2" data-name="Слой 1"><circle cx="46.5" cy="46.5" r="46.5" fill="#efa43b"/><path class="cls-2" d="M46.55 36.72a3.93 3.93 0 1 1-3.93 3.93 3.95 3.95 0 0 1 3.93-3.93zm0 9.78a5.85 5.85 0 1 0-5.85-5.85 5.81 5.81 0 0 0 5.85 5.85zm6.81 8.05H39.74V53a3.34 3.34 0 0 1 3.36-3.36H50A3.34 3.34 0 0 1 53.36 53v1.53zM50 47.75h-6.9A5.25 5.25 0 0 0 37.82 53v2.49a.91.91 0 0 0 1 1h15.49a.9.9 0 0 0 1-1V53A5.25 5.25 0 0 0 50 47.75z"/><path class="cls-2" d="M74.06 48.8a2.3 2.3 0 0 1 0-4.6 2.25 2.25 0 0 1 2.21 2.3 2.31 2.31 0 0 1-2.21 2.3zM46.55 61.65A15.15 15.15 0 1 1 61.7 46.5a15.18 15.18 0 0 1-15.15 15.15zm21 2.68a2.24 2.24 0 1 1-3.17 0 2.27 2.27 0 0 1 3.17 0zm-18.7 9.59a2.33 2.33 0 0 1-2.3 2.3 2.25 2.25 0 0 1-2.21-2.3 2.32 2.32 0 0 1 2.21-2.3 2.47 2.47 0 0 1 2.3 2.3zM28.71 67.5a2.24 2.24 0 1 1 0-3.17 2.26 2.26 0 0 1 0 3.17zm-9.58-18.7a2.3 2.3 0 0 1 0-4.6 2.25 2.25 0 0 1 2.2 2.3 2.31 2.31 0 0 1-2.2 2.3zm6.42-20.13a2.24 2.24 0 1 1 3.16 0 2.27 2.27 0 0 1-3.16 0zm18.79-9.59a2.25 2.25 0 0 1 2.21-2.3 2.33 2.33 0 0 1 2.3 2.3 2.26 2.26 0 0 1-4.51 0zm20 6.42a2.24 2.24 0 1 1 0 3.17 2.27 2.27 0 0 1 0-3.17zm9.68 16.88a4 4 0 0 0-4 3.26h-6.41a16.84 16.84 0 0 0-4.31-10.36l4.6-4.6a4.21 4.21 0 1 0-1.34-1.34L58 33.94a16.84 16.84 0 0 0-10.4-4.31v-6.52a4.29 4.29 0 0 0 3.26-4 4.4 4.4 0 0 0-4.31-4.22 4.17 4.17 0 0 0-4.12 4.22 4 4 0 0 0 3.16 4v6.42a16.84 16.84 0 0 0-10.36 4.31l-4.6-4.6a4.21 4.21 0 1 0-1.34 1.34l4.6 4.61a16.81 16.81 0 0 0-4.31 10.35h-6.43a4.18 4.18 0 1 0-4 5.18 4 4 0 0 0 4-3.26h6.43a16.81 16.81 0 0 0 4.31 10.35l-4.6 4.61a4.21 4.21 0 1 0 1.34 1.34l4.6-4.6a16.84 16.84 0 0 0 10.36 4.31v6.42a4.19 4.19 0 0 0 1 8.25 4.33 4.33 0 0 0 4.22-4.22 4 4 0 0 0-3.26-4v-6.45a16.81 16.81 0 0 0 10.35-4.31l4.6 4.6A4.19 4.19 0 1 0 69 63a4.17 4.17 0 0 0-5.17-.57l-4.63-4.62a16.77 16.77 0 0 0 4.32-10.35h6.42a4.29 4.29 0 0 0 4 3.26 4.17 4.17 0 0 0 4.12-4.22 4.07 4.07 0 0 0-4-4.12z"/></g></g></svg>