<svg xmlns="http://www.w3.org/2000/svg" style="display: none;"><symbol id="black-star-silhouette" viewBox="0 0 492.892 492.892"><title>black-star-silhouette</title><path d="M232.855,19.773c2.552-5.17,7.817-8.443,13.583-8.443c5.766-0.001,11.032,3.272,13.584,8.442l59.083,119.697 c5.556,11.255,16.294,19.058,28.716,20.862l132.1,19.203c5.706,0.83,10.446,4.826,12.229,10.31 c1.78,5.483,0.296,11.503-3.833,15.528l-95.581,93.181c-8.988,8.763-13.089,21.386-10.969,33.756l22.553,131.547 c0.974,5.683-1.362,11.426-6.027,14.812c-4.664,3.391-10.848,3.836-15.951,1.153l-118.156-62.106 c-11.11-5.84-24.383-5.84-35.495,0.002L110.546,479.82c-5.104,2.683-11.288,2.234-15.952-1.154c-4.665-3.389-7-9.133-6.026-14.814 l22.563-131.537c2.123-12.374-1.979-24.999-10.969-33.764L4.575,205.373c-4.128-4.025-5.615-10.045-3.833-15.528 c1.782-5.483,6.522-9.479,12.228-10.31l132.096-19.202c12.422-1.806,23.161-9.608,28.717-20.865L232.855,19.773z"/></symbol><symbol id="business" viewBox="0 0 64 64"><title>business</title><path d="m24 4c2.757 0 5 2.243 5 5v2h8.727l3.273-9h-18l.727 2z"/><path d="m18 13h4v-7h2c1.657 0 3 1.343 3 3v4h12c1.105 0 2 .895 2 2 0 1.105-.895 2-2 2 1.105 0 2 .895 2 2 0 1.105-.895 2-2 2 1.105 0 2 .895 2 2 0 1.105-.895 2-2 2 1.105 0 2 .895 2 2 0 1.105-.895 2-2 2h-21z"/><path d="m2 13h11v16h-11z"/><path d="m58 56h-4v-2h3.878c-.387-3.867-2.016-12-8.878-12 0-11-12-11-12-11h-10s-12 0-12 11c-9 0-9 14-9 14s-3 0-3 3 3 3 4 3h50c1 0 4 0 4-3s-3-3-3-3zm-26 1c-5.523 0-10-4.477-10-10s4.477-10 10-10 10 4.477 10 10-4.477 10-10 10zm20-1h-2v-2h2z"/><path d="m33 46h-2c-.552 0-1-.449-1-1v-1c0-.551.448-1 1-1h2c.552 0 1 .449 1 1h2c0-1.654-1.346-3-3-3v-1h-2v1c-1.654 0-3 1.346-3 3v1c0 1.654 1.346 3 3 3h2c.552 0 1 .449 1 1v1c0 .551-.448 1-1 1h-2c-.552 0-1-.449-1-1h-2c0 1.654 1.346 3 3 3v1h2v-1c1.654 0 3-1.346 3-3v-1c0-1.654-1.346-3-3-3z"/></symbol><symbol id="fast-delivery" viewBox="0 -104 512 512"><title>fast-delivery</title><path d="m365 3.015625c44.390625 10.300781 61.371094 36.257813 82.660156 71.984375h-82.660156zm-259.421875 74.984375c8.691406 0 15 4.195312 15 14 0 8.269531-6.691406 14.976562-14.957031 15h-90.621094c-8.285156 0-15 6.71875-15 15 0 8.285156 6.714844 15 15 15h135c8.363281 0 15.058594 6.710938 15.058594 15 0 8.285156-6.714844 15-15 15h-135.058594c-8.285156 0-15 6.714844-15 15s6.714844 15 15 15h33v45c0 8.285156 6.714844 15 15 15h30.152344c5.375 26.476562 28.769531 46 56.347656 46s50.972656-19.523438 56.347656-46h152.304688c5.375 26.476562 28.769531 46 56.347656 46s50.972656-19.523438 56.347656-46h26.152344c8.285156 0 15-6.714844 15-15v-90c0-44.011719-46.421875-46.933594-46.464844-47h-115.535156c-8.285156 0-15-6.714844-15-15v-90h-272c-8.285156 0-15 6.714844-15 15v33h-18c-8.285156 0-15 6.714844-15 15s6.714844 15 15 15zm328.367187 148.054688c10.738282 10.738281 10.738282 28.15625 0 38.894531-17.273437 17.273437-46.945312 4.984375-46.945312-19.449219 0-24.429688 29.671875-36.71875 46.945312-19.445312zm-265 0c10.738282 10.738281 10.738282 28.15625 0 38.894531-17.273437 17.273437-46.945312 4.984375-46.945312-19.449219 0-24.429688 29.671875-36.71875 46.945312-19.445312zm0 0" fill-rule="evenodd"/></symbol><symbol id="gps" viewBox="-98 1 511 511.99996"><title>gps</title><path d="m158.394531 105.660156c-28.8125 0-52.246093 23.429688-52.246093 52.242188s23.433593 52.246094 52.246093 52.246094 52.242188-23.433594 52.242188-52.246094-23.429688-52.242188-52.242188-52.242188zm0 0"/><path d="m158.394531 0c-87.0625 0-157.894531 70.84375-157.894531 157.902344 0 51.980468 55.914062 201.0625 102.832031 316.976562 9.261719 22.898438 30.367188 37.121094 55.0625 37.121094 24.691407 0 45.800781-14.222656 55.0625-37.121094 46.914063-115.914062 102.839844-264.996094 102.839844-316.976562 0-87.058594-70.84375-157.902344-157.902344-157.902344zm0 240.886719c-45.761719 0-82.984375-37.222657-82.984375-82.984375 0-45.757813 37.222656-82.984375 82.984375-82.984375 45.757813 0 82.980469 37.226562 82.980469 82.984375 0 45.761718-37.222656 82.984375-82.980469 82.984375zm0 0"/></symbol><symbol id="android-character-symbol" viewBox="0 0 475.071 475.071"><title>android-character-symbol</title><path d="M65.947,153.884c-8.183,0-15.136,2.853-20.844,8.566c-5.708,5.711-8.564,12.562-8.564,20.555v122.772 c0,8.179,2.855,15.126,8.564,20.837c5.708,5.712,12.657,8.562,20.841,8.562c8.186,0,15.085-2.851,20.699-8.562 c5.618-5.711,8.425-12.658,8.425-20.837V183.005c0-7.996-2.857-14.847-8.565-20.555C80.794,156.74,73.939,153.884,65.947,153.884z "/><path d="M106.494,349.457c0,8.754,3.046,16.177,9.136,22.269c6.091,6.085,13.512,9.13,22.27,9.13h21.128l0.288,64.81 c0,8.186,2.855,15.129,8.564,20.841c5.708,5.711,12.562,8.565,20.555,8.565c8.188,0,15.133-2.854,20.844-8.565 c5.711-5.712,8.564-12.655,8.564-20.841v-64.81h39.397v64.81c0,8.186,2.854,15.129,8.562,20.841 c5.715,5.711,12.662,8.565,20.848,8.565c8.179,0,15.126-2.854,20.834-8.565c5.708-5.712,8.559-12.655,8.559-20.841v-64.81h21.416 c8.56,0,15.89-3.039,21.98-9.13c6.092-6.092,9.138-13.515,9.138-22.269V159.308H106.494V349.457z"/><path d="M302.345,43.682L322.61,6.279c1.335-2.474,0.855-4.377-1.424-5.708c-2.478-1.143-4.38-0.572-5.708,1.714L294.918,39.97 c-18.082-7.994-37.205-11.991-57.384-11.991c-20.174,0-39.304,3.997-57.387,11.991L159.591,2.286 c-1.328-2.286-3.234-2.857-5.708-1.714c-2.285,1.331-2.758,3.234-1.426,5.708l20.271,37.402 c-20.559,10.467-36.923,25.076-49.108,43.824c-12.181,18.749-18.273,39.259-18.273,61.525h264.095 c0-22.266-6.091-42.777-18.273-61.525C338.982,68.758,322.717,54.148,302.345,43.682z M185.144,98.068 c-2.187,2.19-4.803,3.284-7.849,3.284c-3.046,0-5.614-1.093-7.71-3.284c-2.091-2.187-3.14-4.805-3.14-7.85 c0-3.046,1.049-5.664,3.14-7.854c2.093-2.19,4.665-3.282,7.71-3.282c3.042,0,5.659,1.091,7.849,3.282 c2.19,2.19,3.284,4.808,3.284,7.854C188.428,93.264,187.334,95.878,185.144,98.068z M305.489,98.068 c-2.098,2.19-4.668,3.284-7.713,3.284c-3.046,0-5.657-1.093-7.848-3.284c-2.19-2.187-3.281-4.805-3.281-7.85 c0-3.046,1.091-5.664,3.281-7.854c2.19-2.19,4.802-3.282,7.848-3.282c3.045,0,5.615,1.091,7.713,3.282 c2.088,2.19,3.139,4.808,3.139,7.854C308.628,93.264,307.58,95.878,305.489,98.068z"/><path d="M429.964,162.306c-5.708-5.614-12.655-8.422-20.841-8.422c-7.991,0-14.843,2.808-20.551,8.422 c-5.711,5.616-8.568,12.517-8.568,20.699v122.772c0,8.179,2.857,15.126,8.568,20.837c5.708,5.712,12.56,8.562,20.551,8.562 c8.186,0,15.133-2.851,20.841-8.562c5.715-5.711,8.568-12.658,8.568-20.837V183.005 C438.532,174.822,435.679,167.921,429.964,162.306z"/></symbol><symbol id="apple-logo" viewBox="0 0 22.773 22.773"><title>apple-logo</title><path d="M15.769,0c0.053,0,0.106,0,0.162,0c0.13,1.606-0.483,2.806-1.228,3.675c-0.731,0.863-1.732,1.7-3.351,1.573 c-0.108-1.583,0.506-2.694,1.25-3.561C13.292,0.879,14.557,0.16,15.769,0z"/><path d="M20.67,16.716c0,0.016,0,0.03,0,0.045c-0.455,1.378-1.104,2.559-1.896,3.655c-0.723,0.995-1.609,2.334-3.191,2.334 c-1.367,0-2.275-0.879-3.676-0.903c-1.482-0.024-2.297,0.735-3.652,0.926c-0.155,0-0.31,0-0.462,0 c-0.995-0.144-1.798-0.932-2.383-1.642c-1.725-2.098-3.058-4.808-3.306-8.276c0-0.34,0-0.679,0-1.019 c0.105-2.482,1.311-4.5,2.914-5.478c0.846-0.52,2.009-0.963,3.304-0.765c0.555,0.086,1.122,0.276,1.619,0.464 c0.471,0.181,1.06,0.502,1.618,0.485c0.378-0.011,0.754-0.208,1.135-0.347c1.116-0.403,2.21-0.865,3.652-0.648 c1.733,0.262,2.963,1.032,3.723,2.22c-1.466,0.933-2.625,2.339-2.427,4.74C17.818,14.688,19.086,15.964,20.67,16.716z"/></symbol><symbol id="facebook-app-symbol" viewBox="0 0 155.139 155.139"><title>facebook-app-symbol</title><path id="f_1_" style="fill:#010002;" d="M89.584,155.139V84.378h23.742l3.562-27.585H89.584V39.184 c0-7.984,2.208-13.425,13.67-13.425l14.595-0.006V1.08C115.325,0.752,106.661,0,96.577,0C75.52,0,61.104,12.853,61.104,36.452 v20.341H37.29v27.585h23.814v70.761H89.584z"/></symbol><symbol id="google-glass-logo" viewBox="0 0 510 510"><title>google-glass-logo</title><path d="M286.875,229.5v63.75h150.45c-15.3,89.25-86.7,153-175.95,153c-104.55,0-191.25-86.7-191.25-191.25 s86.7-191.25,191.25-191.25c53.55,0,99.45,22.95,132.6,58.65l45.9-45.9c-45.9-45.9-107.1-76.5-178.5-76.5 c-140.25,0-255,114.75-255,255s114.75,255,255,255s242.25-114.75,242.25-255v-25.5H286.875z"/></symbol><symbol id="twitter" viewBox="0 0 512 512"><title>twitter</title><path d="M512,97.248c-19.04,8.352-39.328,13.888-60.48,16.576c21.76-12.992,38.368-33.408,46.176-58.016 c-20.288,12.096-42.688,20.64-66.56,25.408C411.872,60.704,384.416,48,354.464,48c-58.112,0-104.896,47.168-104.896,104.992 c0,8.32,0.704,16.32,2.432,23.936c-87.264-4.256-164.48-46.08-216.352-109.792c-9.056,15.712-14.368,33.696-14.368,53.056 c0,36.352,18.72,68.576,46.624,87.232c-16.864-0.32-33.408-5.216-47.424-12.928c0,0.32,0,0.736,0,1.152 c0,51.008,36.384,93.376,84.096,103.136c-8.544,2.336-17.856,3.456-27.52,3.456c-6.72,0-13.504-0.384-19.872-1.792 c13.6,41.568,52.192,72.128,98.08,73.12c-35.712,27.936-81.056,44.768-130.144,44.768c-8.608,0-16.864-0.384-25.12-1.44 C46.496,446.88,101.6,464,161.024,464c193.152,0,298.752-160,298.752-298.688c0-4.64-0.16-9.12-0.384-13.568 C480.224,136.96,497.728,118.496,512,97.248z"/></symbol><symbol id="instagram" viewBox="0 0 512 512"><title>instagram</title><g> <g> <path d="M352,0H160C71.648,0,0,71.648,0,160v192c0,88.352,71.648,160,160,160h192c88.352,0,160-71.648,160-160V160 C512,71.648,440.352,0,352,0z M464,352c0,61.76-50.24,112-112,112H160c-61.76,0-112-50.24-112-112V160C48,98.24,98.24,48,160,48 h192c61.76,0,112,50.24,112,112V352z"/> </g> </g><g> <g> <path d="M256,128c-70.688,0-128,57.312-128,128s57.312,128,128,128s128-57.312,128-128S326.688,128,256,128z M256,336 c-44.096,0-80-35.904-80-80c0-44.128,35.904-80,80-80s80,35.872,80,80C336,300.096,300.096,336,256,336z"/> </g> </g><g> <g> <circle cx="393.6" cy="118.4" r="17.056"/> </g> </g></symbol><symbol id="phone-auricular-with-high-volume" viewBox="0 0 30 30"><title>phone-auricular-with-high-volume</title><path d="M23.71,26.301l-1.633-1.633c5.33-5.33,5.33-14.004,0-19.334l1.632-1.633C29.939,9.933,29.939,20.069,23.71,26.301z M20.888,6.521l-1.633,1.631c3.776,3.776,3.776,9.92,0,13.696l1.635,1.631C25.562,18.806,25.562,11.195,20.888,6.521z M17.976,9.434l-1.633,1.634c2.17,2.168,2.17,5.701,0,7.869l1.633,1.633C21.045,17.499,21.045,12.502,17.976,9.434z M1.938,8.445 c-0.172,2.125-0.271,4.253-0.309,6.383h-0.01C1.62,14.886,1.624,14.942,1.624,15c0,0.059-0.004,0.115-0.005,0.171H1.63 c0.038,2.13,0.137,4.26,0.309,6.384c0.445,5.56,4.814,9.252,9.098,8.294c0.188-0.038,0.384-0.04,0.561-0.112 c1.043-0.434,1.907-1.241,2.87-1.837c1.228-0.77-1.419-7.3-3.059-6.457c-0.606,0.316-2.28,1.553-2.953,1.646 c-0.601,0.084-1.071-0.711-1.131-1.445c-0.157-1.938-0.015-4.414-0.003-6.472h0.003c0-0.055-0.001-0.114-0.001-0.171 s0.001-0.117,0.001-0.171H7.321c-0.012-2.058-0.154-4.534,0.003-6.472c0.06-0.735,0.53-1.531,1.131-1.445 c0.673,0.093,2.347,1.33,2.953,1.646c1.64,0.843,4.286-5.689,3.059-6.457c-0.963-0.597-1.827-1.405-2.87-1.837 c-0.177-0.074-0.374-0.075-0.561-0.113C6.752-0.807,2.384,2.886,1.938,8.445z"/></symbol><symbol id="email" viewBox="0 0 512 512"><title>email</title><g> <g> <polygon points="339.392,258.624 512,367.744 512,144.896 "/> </g> </g><g> <g> <polygon points="0,144.896 0,367.744 172.608,258.624 "/> </g> </g><g> <g> <path d="M480,80H32C16.032,80,3.36,91.904,0.96,107.232L256,275.264l255.04-168.032C508.64,91.904,495.968,80,480,80z"/> </g> </g><g> <g> <path d="M310.08,277.952l-45.28,29.824c-2.688,1.76-5.728,2.624-8.8,2.624c-3.072,0-6.112-0.864-8.8-2.624l-45.28-29.856 L1.024,404.992C3.488,420.192,16.096,432,32,432h448c15.904,0,28.512-11.808,30.976-27.008L310.08,277.952z"/> </g> </g></symbol><symbol id="web" viewBox="0 0 512 512"><title>web</title><path d="m60 28.602h30v48.734h-30z"/><path d="m120 28.602h30v48.734h-30z"/><path d="m0 28.602h30v48.734h-30z"/><path d="m180 28.602h332v48.734h-332z"/><path d="m211.386 196.506c1.466-4.555 2.999-8.687 4.58-12.473-41.069 14.813-71.663 51.736-77.33 96.333h59.73c1.094-31.504 5.616-60.852 13.02-83.86z"/><path d="m273.059 208.926c-7.228-24.163-15.04-31.101-17.059-31.838-2.019.737-9.831 7.674-17.059 31.837-5.901 19.727-9.554 44.679-10.553 71.442h55.224c-.999-26.762-4.652-51.714-10.553-71.441z"/><path d="m256 413.646c2.019-.737 9.831-7.675 17.059-31.838 5.901-19.727 9.554-44.679 10.553-71.441h-55.224c1 26.762 4.652 51.715 10.553 71.442 7.228 24.163 15.041 31.1 17.059 31.837z"/><path d="m313.635 280.367h59.73c-5.667-44.597-36.261-81.521-77.331-96.334 1.581 3.786 3.114 7.918 4.58 12.473 7.405 23.008 11.927 52.356 13.021 83.861z"/><path d="m0 483.398h512v-376.061h-512zm256-336.342c81.779 0 148.312 66.532 148.312 148.312s-66.532 148.311-148.312 148.311-148.312-66.532-148.312-148.312 66.533-148.311 148.312-148.311z"/><path d="m373.365 310.367h-59.73c-1.094 31.506-5.616 60.854-13.02 83.861-1.466 4.555-2.999 8.687-4.58 12.473 41.069-14.813 71.663-51.737 77.33-96.334z"/><path d="m215.966 406.701c-1.581-3.785-3.114-7.918-4.58-12.473-7.404-23.007-11.926-52.355-13.02-83.861h-59.73c5.667 44.597 36.261 81.521 77.33 96.334z"/></symbol></svg>