<svg xmlns="http://www.w3.org/2000/svg" viewBox="0 0 645.73 364.14">
	<defs>
		<style>
			.cls-1{fill:none;stroke:#3f3d56;stroke-miterlimit:10;}.cls-2{fill:#1baba1;}.cls-3{fill:#f2f2f2;}
		</style>
	</defs>
	<title>Ресурс 111</title>
	<g id="Слой_2" data-name="Слой 2">
		<g id="b1906fbd-debd-48f4-becc-050b3be1d47c">
		<circle class="cls-1" cx="593.53" cy="54.38" r="25.15"/>
		<path class="cls-2" d="M644.79,7.08,638.71,1a3.22,3.22,0,0,0-4.56,0l0,0L596,38.79,579.82,22.52a3.22,3.22,0,0,0-4.55,0h0l-6.15,6.08a3.26,3.26,0,0,0,0,4.59l24.51,24.7a3.26,3.26,0,0,0,4.59,0l46.57-46.22a3.23,3.23,0,0,0,0-4.57Z"/>
		<rect class="cls-3" y="41.81" width="456.02" height="51.98" rx="25.61"/>
		<rect class="cls-3" x="0.57" y="131.93" width="456.02" height="51.98" rx="25.61"/>
		<rect class="cls-3" x="1.14" y="222.05" width="456.02" height="51.98" rx="25.61"/>
		<rect class="cls-3" x="1.71" y="312.17" width="456.02" height="51.98" rx="25.61"/>
		<rect class="cls-1" x="14.25" y="28.39" width="456.02" height="51.98" rx="25.61"/>
		<rect class="cls-1" x="14.82" y="118.51" width="456.02" height="51.98" rx="25.61"/>
		<rect class="cls-1" x="15.39" y="208.63" width="456.02" height="51.98" rx="25.61"/>
		<rect class="cls-1" x="15.96" y="298.75" width="456.02" height="51.98" rx="25.61"/>
		<circle class="cls-1" cx="593.53" cy="144.92" r="25.15"/>
		<circle class="cls-1" cx="593.53" cy="235.46" r="25.15"/>
		<circle class="cls-1" cx="593.53" cy="326" r="25.15"/>
		<path class="cls-2" d="M644.79,98.46l-6.08-6.11a3.21,3.21,0,0,0-4.56,0l0,0L596,130.17,579.82,113.9a3.22,3.22,0,0,0-4.55,0h0L569.12,120a3.25,3.25,0,0,0,0,4.58l24.51,24.71a3.26,3.26,0,0,0,4.59,0l46.57-46.22a3.23,3.23,0,0,0,0-4.57Z"/>
		<path class="cls-2" d="M644.79,281.22l-6.08-6.12a3.23,3.23,0,0,0-4.56-.05l0,0L596,312.92l-16.14-16.26a3.22,3.22,0,0,0-4.55,0h0l-6.15,6.09a3.25,3.25,0,0,0,0,4.58L593.6,332a3.27,3.27,0,0,0,4.59,0l46.57-46.23a3.23,3.23,0,0,0,0-4.57Z"/>
		</g>
	</g>
</svg>