<svg xmlns="http://www.w3.org/2000/svg" viewBox="0 0 578.95 595"><defs><style>.cls-1{fill:#ff6584;}.cls-2{fill:#f2f2f2;}.cls-3{fill:#3f3d56;}.cls-4{opacity:0.1;isolation:isolate;}.cls-5{fill:#2f2e41;}.cls-6{fill:#575a89;}.cls-7{fill:#FFDCB1;}.cls-8{fill:#76cdc5;}</style></defs><title>Ресурс 111</title><g id="Слой_2" data-name="Слой 2"><g id="f2557a61-56ef-4ee7-9811-4cdcc73688e4"><circle class="cls-1" cx="137.81" cy="97" r="97"/><circle class="cls-2" cx="311.81" cy="267" r="254"/><ellipse class="cls-3" cx="299.81" cy="520" rx="279" ry="15"/><ellipse class="cls-4" cx="243.81" cy="520.52" rx="209" ry="10.34"/><ellipse class="cls-3" cx="400.9" cy="586" rx="178.04" ry="9"/><ellipse class="cls-3" cx="85.9" cy="556" rx="85.9" ry="4.34"/><circle class="cls-5" cx="458.81" cy="97" r="32"/><path class="cls-5" d="M480.31,447.5l-18,49s-15,12-6,16,27-4,27-4l14-36-2-25Z"/><path class="cls-4" d="M480.31,447.5l-18,49s-15,12-6,16,27-4,27-4l14-36-2-25Z"/><path class="cls-6" d="M481.81,157l15,2s7,55,4,59-18,20-24,16S481.81,157,481.81,157Z"/><path class="cls-7" d="M338.31,257.5s-21,9-25,10-10,11-3,13,34-18,34-18Z"/><path class="cls-5" d="M487.31,467.5l11,41s1,15,6,16,20-5,20-7-6-18-6-18,0-12-6-17-11.41-21.75-11.41-21.75Z"/><path class="cls-5" d="M501.31,373.5c2,4.71,1.77,38.88-.44,61.62-1.07,11.05-2.6,19.4-4.56,20.38L482,451.92l-5.67-1.42-.15-12.44-.85-68.56-17-71v-18l43,4,6.82,10.71.18.29S498.31,366.5,501.31,373.5Z"/><path class="cls-4" d="M492.31,395.5c2.14,3.21,5.71,22.43,8.56,39.62-1.07,11.05-2.6,19.4-4.56,20.38L482,451.92l-.67-1.42c-1.83-3.84-3.55-8.08-5.15-12.44l-.85-68.56-17-71v-18l43,4,6.82,10.71-39.82-2.71,9,39,11,41S488.31,389.5,492.31,395.5Z"/><path class="cls-5" d="M421.31,240.5s-14,31,6,74a876,876,0,0,1,33,82s7,33,17,54,8,22,8,22l16-9s-9-62-13-68-4-23-4-23l-11-41-9-39,44,3s0-57-20-68Z"/><path class="cls-7" d="M437.81,112s0,16-5,17-15,1-18,6,23,71,23,71l27-17,9-45s-13-8-13-12V114Z"/><path class="cls-4" d="M437.81,112s0,16-5,17-15,1-18,6,23,71,23,71l27-17,9-45s-13-8-13-12V114Z"/><circle class="cls-7" cx="453.31" cy="105.5" r="24"/><path class="cls-6" d="M440.81,186s-9-57-11-57-30,6-32,7-9,10-9,10l14,40s6,28,10,33,12,19,8,21-8,5-4,5,37-6,39-3,35-11,35-12-4-48-4-48l10-23-30-21Z"/><path class="cls-6" d="M398.81,141l-10,5s-28,64-30,65-12,20-13,24-3,17-6,19a53.77,53.77,0,0,1-5,3s6,10,9,10,13-14,13-14,22,14,28,3,21-81,21-81Z"/><path class="cls-7" d="M477.31,171.5s-14-34-22-30,6,28,15,32Z"/><path class="cls-4" d="M463.31,172.5l14-3.17,3,15.17s13,23,10,33-21,26-27,17-11-23-7-31S466.31,176.5,463.31,172.5Z"/><path class="cls-6" d="M466.31,170.5l14-3.17,3,15.17s13,23,10,33-21,26-27,17-11-23-7-31S469.31,174.5,466.31,170.5Z"/><ellipse class="cls-5" cx="459.81" cy="90.5" rx="11.5" ry="24" transform="translate(182.79 468.49) rotate(-64.9)"/><circle class="cls-5" cx="477.81" cy="70" r="14"/><path class="cls-5" d="M464.81,65a14,14,0,0,1,12.5-13.92,14,14,0,1,0,0,27.84A14,14,0,0,1,464.81,65Z"/><rect class="cls-3" x="64.81" y="277" width="350" height="243"/><rect class="cls-2" x="92.81" y="301" width="46" height="46"/><rect class="cls-8" x="92.81" y="376" width="46" height="46"/><rect class="cls-2" x="92.81" y="451" width="46" height="46"/><rect class="cls-2" x="160.81" y="315.5" width="219" height="4"/><rect class="cls-2" x="160.81" y="328.5" width="68" height="4"/><rect class="cls-2" x="160.81" y="390.5" width="219" height="4"/><rect class="cls-2" x="160.81" y="403.5" width="68" height="4"/><rect class="cls-2" x="160.81" y="465.5" width="219" height="4"/><rect class="cls-2" x="160.81" y="478.5" width="68" height="4"/><path class="cls-8" d="M112.81,529.93c0,20.36-12.1,27.47-27,27.47l-1,0c-.69,0-1.38,0-2-.09-13.47-.95-23.94-8.43-23.94-27.36,0-19.59,25-44.3,26.92-46.14h0l.11-.11S112.81,509.58,112.81,529.93Z"/><path class="cls-3" d="M84.79,554.28l9.89-13.81L84.77,555.8l0,1.58c-.69,0-1.38,0-2-.09l1.06-20.36v-.19l.1-1.93-9.93-15.36,10,13.92,0,.41.8-15.39-8.5-15.88,8.61,13.18.84-31.9v0l-.14,25.15L94,499l-8.51,12.14-.22,13.78,7.91-13.22-7.94,15.25-.13,7.65,11.48-18.4L85.07,537.25Z"/></g></g></svg>