<svg xmlns="http://www.w3.org/2000/svg" style="display: none;"><symbol id="user" viewBox="-42 0 512 512.002"><title>user</title><path d="m210.351562 246.632812c33.882813 0 63.222657-12.152343 87.195313-36.128906 23.972656-23.972656 36.125-53.304687 36.125-87.191406 0-33.875-12.152344-63.210938-36.128906-87.191406-23.976563-23.96875-53.3125-36.121094-87.191407-36.121094-33.886718 0-63.21875 12.152344-87.191406 36.125s-36.128906 53.308594-36.128906 87.1875c0 33.886719 12.15625 63.222656 36.132812 87.195312 23.976563 23.96875 53.3125 36.125 87.1875 36.125zm0 0"/><path d="m426.128906 393.703125c-.691406-9.976563-2.089844-20.859375-4.148437-32.351563-2.078125-11.578124-4.753907-22.523437-7.957031-32.527343-3.308594-10.339844-7.808594-20.550781-13.371094-30.335938-5.773438-10.15625-12.554688-19-20.164063-26.277343-7.957031-7.613282-17.699219-13.734376-28.964843-18.199219-11.226563-4.441407-23.667969-6.691407-36.976563-6.691407-5.226563 0-10.28125 2.144532-20.042969 8.5-6.007812 3.917969-13.035156 8.449219-20.878906 13.460938-6.707031 4.273438-15.792969 8.277344-27.015625 11.902344-10.949219 3.542968-22.066406 5.339844-33.039063 5.339844-10.972656 0-22.085937-1.796876-33.046874-5.339844-11.210938-3.621094-20.296876-7.625-26.996094-11.898438-7.769532-4.964844-14.800782-9.496094-20.898438-13.46875-9.75-6.355468-14.808594-8.5-20.035156-8.5-13.3125 0-25.75 2.253906-36.972656 6.699219-11.257813 4.457031-21.003906 10.578125-28.96875 18.199219-7.605469 7.28125-14.390625 16.121094-20.15625 26.273437-5.558594 9.785157-10.058594 19.992188-13.371094 30.339844-3.199219 10.003906-5.875 20.945313-7.953125 32.523437-2.058594 11.476563-3.457031 22.363282-4.148437 32.363282-.679688 9.796875-1.023438 19.964844-1.023438 30.234375 0 26.726562 8.496094 48.363281 25.25 64.320312 16.546875 15.746094 38.441406 23.734375 65.066406 23.734375h246.53125c26.625 0 48.511719-7.984375 65.0625-23.734375 16.757813-15.945312 25.253906-37.585937 25.253906-64.324219-.003906-10.316406-.351562-20.492187-1.035156-30.242187zm0 0"/></symbol><symbol id="shopping-cart" viewBox="0 -31 512.00033 512"><title>shopping-cart</title><path d="m166 300.003906h271.003906c6.710938 0 12.597656-4.4375 14.414063-10.882812l60.003906-210.003906c1.289063-4.527344.40625-9.390626-2.433594-13.152344-2.84375-3.75-7.265625-5.964844-11.984375-5.964844h-365.632812l-10.722656-48.25c-1.523438-6.871094-7.617188-11.75-14.648438-11.75h-91c-8.289062 0-15 6.710938-15 15 0 8.292969 6.710938 15 15 15h78.960938l54.167968 243.75c-15.9375 6.929688-27.128906 22.792969-27.128906 41.253906 0 24.8125 20.1875 45 45 45h271.003906c8.292969 0 15-6.707031 15-15 0-8.289062-6.707031-15-15-15h-271.003906c-8.261719 0-15-6.722656-15-15s6.738281-15 15-15zm0 0"/><path d="m151 405.003906c0 24.816406 20.1875 45 45.003906 45 24.8125 0 45-20.183594 45-45 0-24.8125-20.1875-45-45-45-24.816406 0-45.003906 20.1875-45.003906 45zm0 0"/><path d="m362.003906 405.003906c0 24.816406 20.1875 45 45 45 24.816406 0 45-20.183594 45-45 0-24.8125-20.183594-45-45-45-24.8125 0-45 20.1875-45 45zm0 0"/></symbol><symbol id="check" viewBox="0 0 512 512"><title>check</title><path d="m256 0c-141.164062 0-256 114.835938-256 256s114.835938 256 256 256 256-114.835938 256-256-114.835938-256-256-256zm129.75 201.75-138.667969 138.664062c-4.160156 4.160157-9.621093 6.253907-15.082031 6.253907s-10.921875-2.09375-15.082031-6.253907l-69.332031-69.332031c-8.34375-8.339843-8.34375-21.824219 0-30.164062 8.339843-8.34375 21.820312-8.34375 30.164062 0l54.25 54.25 123.585938-123.582031c8.339843-8.34375 21.820312-8.34375 30.164062 0 8.339844 8.339843 8.339844 21.820312 0 30.164062zm0 0"/></symbol><symbol id="computer" viewBox="0 0 56 56"><title>computer</title><g id="071---AB-Testing" fill="rgb(0,0,0)" fill-rule="nonzero" transform="translate(-1)"><path id="Shape" d="m21.618 48-2 4h18.764l-2-4z"/><path id="Shape" d="m44 54h-30c-.5522847 0-1 .4477153-1 1s.4477153 1 1 1h30c.5522847 0 1-.4477153 1-1s-.4477153-1-1-1z"/><path id="Shape" d="m8 41c0-.5522847.44771525-1 1-1h19v-11h-27v11h4c.55228475 0 1 .4477153 1 1s-.44771525 1-1 1h-4v2.818c-.03807599.5985813.40338206 1.1203848 1 1.182h54c.5966179-.0616152 1.038076-.5834187 1-1.182v-2.818h-48c-.55228475 0-1-.4477153-1-1zm3-10h8c1.6568542 0 3 1.3431458 3 3s-1.3431458 3-3 3h-8c-1.65685425 0-3-1.3431458-3-3s1.34314575-3 3-3z"/><path id="Shape" d="m11 35h8c.5522847 0 1-.4477153 1-1s-.4477153-1-1-1h-8c-.5522847 0-1 .4477153-1 1s.4477153 1 1 1z"/><path id="Shape" d="m14.026 16h1.946l-.974-2.99z"/><path id="Shape" d="m40 35h8c.5522847 0 1-.4477153 1-1s-.4477153-1-1-1h-8c-.5522847 0-1 .4477153-1 1s.4477153 1 1 1z"/><path id="Shape" d="m28 5h-27v22h27zm-13 20c-4.9705627 0-9-4.0294373-9-9s4.0294373-9 9-9 9 4.0294373 9 9c-.0055111 4.9682782-4.0317218 8.9944889-9 9z"/><path id="Shape" d="m28 0h-26c-.59661794.06161524-1.03807599.58341866-1 1.182v1.818h27z"/><path id="Shape" d="m15 9c-3.8659932 0-7 3.1340068-7 7s3.1340068 7 7 7 7-3.1340068 7-7c-.0044086-3.8641657-3.1358343-6.99559136-7-7zm3.31 10.951c-.1001603.0323388-.2047486.0488705-.31.049-.4329424.0001141-.8167879-.2783858-.951-.69l-.426-1.31h-3.247l-.425 1.31c-.1858221.5045975-.737413.7719067-1.24861.605095-.5111969-.1668116-.7989576-.7080145-.65139-1.225095l2.052-6.3c.2612339-.829474 1.030362-1.3936155 1.9-1.3936155s1.6387661.5641415 1.9 1.3936155l2.051 6.3c.0821566.2526133.0604287.5275344-.0603898.7641059-.1208184.2365715-.3307982.4153512-.5836102.4968941z"/><path id="Shape" d="m44 23c3.8659932 0 7-3.1340068 7-7s-3.1340068-7-7-7-7 3.1340068-7 7c.0044086 3.8641657 3.1358343 6.9955914 7 7zm-3-10.5c0-.8284271.6715729-1.5 1.5-1.5h1.5c1.6568542 0 3 1.3431458 3 3-.0025125.5152826-.1404568 1.0208485-.4 1.466.8703108.5487197 1.3987253 1.5051499 1.4 2.534-.0215432 1.6478483-1.3521517 2.9784568-3 3h-2.5c-.8284271 0-1.5-.6715729-1.5-1.5z"/><path id="Shape" d="m46 18c0-.5522847-.4477153-1-1-1h-2v2h2c.5408824-.026603.973397-.4591176 1-1z"/><path id="Shape" d="m30 27h27v-22h-27zm14-20c4.9705627 0 9 4.0294373 9 9s-4.0294373 9-9 9-9-4.0294373-9-9c.0055111-4.9682782 4.0317218-8.99448887 9-9z"/><path id="Shape" d="m45 14c0-.5522847-.4477153-1-1-1h-1v2h1c.5435526-.0205331.9794669-.4564474 1-1z"/><path id="Shape" d="m56 0h-26v3h27v-1.818c.038076-.59858134-.4033821-1.12038476-1-1.182z"/><path id="Shape" d="m30 40h27v-11h-27zm10-9h8c1.6568542 0 3 1.3431458 3 3s-1.3431458 3-3 3h-8c-1.6568542 0-3-1.3431458-3-3s1.3431458-3 3-3z"/></g></symbol><symbol id="info" viewBox="0 0 512 512"><title>info</title><g> <g> <path d="M255.999,0C155.481,0,73.705,81.777,73.705,182.295c0,55.358,29.029,125.712,86.281,209.106 c41.96,61.119,83.27,105.913,85.008,107.79L255.96,512l11.009-12.768c1.739-1.864,43.064-46.347,85.035-107.315 c57.259-83.177,86.292-153.704,86.292-209.622C438.295,81.777,356.518,0,255.999,0z M255.999,303.962 c-67.087,0-121.667-54.58-121.667-121.667s54.58-121.667,121.667-121.667c67.087,0,121.667,54.58,121.667,121.667 S323.087,303.962,255.999,303.962z"/> </g> </g><g> <g> <path d="M255.999,90.628c-50.545,0-91.667,41.122-91.667,91.667s41.122,91.667,91.667,91.667s91.667-41.122,91.667-91.667 S306.545,90.628,255.999,90.628z M270.915,238.496h-29.83v-82.582h29.83V238.496z M270.915,149.006h-29.83v-25.12h29.83V149.006z"/> </g> </g></symbol><symbol id="help" viewBox="0 0 512 512"><title>help</title><path d="m512 346.5c0-63.535156-36.449219-120.238281-91.039062-147.820312-1.695313 121.820312-100.460938 220.585937-222.28125 222.28125 27.582031 54.589843 84.285156 91.039062 147.820312 91.039062 29.789062 0 58.757812-7.933594 84.210938-23.007812l80.566406 22.285156-22.285156-80.566406c15.074218-25.453126 23.007812-54.421876 23.007812-84.210938zm0 0"/><path d="m391 195.5c0-107.800781-87.699219-195.5-195.5-195.5s-195.5 87.699219-195.5 195.5c0 35.132812 9.351562 69.339844 27.109375 99.371094l-26.390625 95.40625 95.410156-26.386719c30.03125 17.757813 64.238282 27.109375 99.371094 27.109375 107.800781 0 195.5-87.699219 195.5-195.5zm-225.5-45.5h-30c0-33.085938 26.914062-60 60-60s60 26.914062 60 60c0 16.792969-7.109375 32.933594-19.511719 44.277344l-25.488281 23.328125v23.394531h-30v-36.605469l35.234375-32.25c6.296875-5.761719 9.765625-13.625 9.765625-22.144531 0-16.542969-13.457031-30-30-30s-30 13.457031-30 30zm15 121h30v30h-30zm0 0"/></symbol><symbol id="star" viewBox="0 0 512.002 512.002"><title>star</title><path d="M511.267,197.258c-1.764-5.431-6.457-9.389-12.107-10.209l-158.723-23.065L269.452,20.157 c-2.526-5.12-7.741-8.361-13.45-8.361c-5.71,0-10.924,3.241-13.451,8.361l-70.988,143.827l-158.72,23.065 c-5.649,0.82-10.344,4.778-12.108,10.208c-1.765,5.431-0.293,11.392,3.796,15.377l114.848,111.954L92.271,482.671 c-0.966,5.628,1.348,11.314,5.967,14.671c2.613,1.898,5.708,2.864,8.818,2.864c2.388,0,4.784-0.569,6.978-1.723l141.967-74.638 l141.961,74.637c5.055,2.657,11.178,2.215,15.797-1.141c4.619-3.356,6.934-9.044,5.969-14.672l-27.117-158.081l114.861-111.955 C511.56,208.649,513.033,202.688,511.267,197.258z"/></symbol><symbol id="phone-call" viewBox="0 0 513.64 513.64"><title>phone-call</title><path d="M499.66,376.96l-71.68-71.68c-25.6-25.6-69.12-15.359-79.36,17.92c-7.68,23.041-33.28,35.841-56.32,30.72 c-51.2-12.8-120.32-79.36-133.12-133.12c-7.68-23.041,7.68-48.641,30.72-56.32c33.28-10.24,43.52-53.76,17.92-79.36l-71.68-71.68 c-20.48-17.92-51.2-17.92-69.12,0l-48.64,48.64c-48.64,51.2,5.12,186.88,125.44,307.2c120.32,120.32,256,176.641,307.2,125.44 l48.64-48.64C517.581,425.6,517.581,394.88,499.66,376.96z"/></symbol><symbol id="info-1" viewBox="0 0 512 512"><title>info-1</title><path d="M437.02,74.98C388.667,26.629,324.38,0,256,0S123.333,26.629,74.98,74.98C26.629,123.333,0,187.62,0,256 s26.629,132.667,74.98,181.02C123.333,485.371,187.62,512,256,512s132.667-26.629,181.02-74.98 C485.371,388.667,512,324.38,512,256S485.371,123.333,437.02,74.98z M256,70c30.327,0,55,24.673,55,55c0,30.327-24.673,55-55,55 c-30.327,0-55-24.673-55-55C201,94.673,225.673,70,256,70z M326,420H186v-30h30V240h-30v-30h110v180h30V420z"/></symbol><symbol id="envelope" viewBox="0 0 512 512"><title>envelope</title><path d="M10.688,95.156C80.958,154.667,204.26,259.365,240.5,292.01c4.865,4.406,10.083,6.646,15.5,6.646 c5.406,0,10.615-2.219,15.469-6.604c36.271-32.677,159.573-137.385,229.844-196.896c4.375-3.698,5.042-10.198,1.5-14.719 C494.625,69.99,482.417,64,469.333,64H42.667c-13.083,0-25.292,5.99-33.479,16.438C5.646,84.958,6.313,91.458,10.688,95.156z"/><path d="M505.813,127.406c-3.781-1.76-8.229-1.146-11.375,1.542c-46.021,39.01-106.656,90.552-152.385,129.885 c-2.406,2.063-3.76,5.094-3.708,8.271c0.052,3.167,1.521,6.156,4,8.135c42.49,34.031,106.521,80.844,152.76,114.115 c1.844,1.333,4.031,2.01,6.229,2.01c1.667,0,3.333-0.385,4.865-1.177c3.563-1.823,5.802-5.49,5.802-9.49V137.083 C512,132.927,509.583,129.146,505.813,127.406z"/><path d="M16.896,389.354c46.25-33.271,110.292-80.083,152.771-114.115c2.479-1.979,3.948-4.969,4-8.135 c0.052-3.177-1.302-6.208-3.708-8.271C124.229,219.5,63.583,167.958,17.563,128.948c-3.167-2.688-7.625-3.281-11.375-1.542 C2.417,129.146,0,132.927,0,137.083v243.615c0,4,2.24,7.667,5.802,9.49c1.531,0.792,3.198,1.177,4.865,1.177 C12.865,391.365,15.052,390.688,16.896,389.354z"/><path d="M498.927,418.375c-44.656-31.948-126.917-91.51-176.021-131.365c-4-3.26-9.792-3.156-13.729,0.24 c-9.635,8.406-17.698,15.49-23.417,20.635c-17.563,15.854-41.938,15.854-59.542-0.021c-5.698-5.135-13.76-12.24-23.396-20.615 c-3.906-3.417-9.708-3.521-13.719-0.24c-48.938,39.719-131.292,99.354-176.021,131.365c-2.49,1.792-4.094,4.552-4.406,7.604 c-0.302,3.052,0.708,6.083,2.802,8.333C19.552,443.01,30.927,448,42.667,448h426.667c11.74,0,23.104-4.99,31.198-13.688 c2.083-2.24,3.104-5.271,2.802-8.323C503.021,422.938,501.417,420.167,498.927,418.375z"/></symbol><symbol id="instagram" viewBox="0 0 24 24"><title>instagram</title><path d="m12.004 5.838c-3.403 0-6.158 2.758-6.158 6.158 0 3.403 2.758 6.158 6.158 6.158 3.403 0 6.158-2.758 6.158-6.158 0-3.403-2.758-6.158-6.158-6.158zm0 10.155c-2.209 0-3.997-1.789-3.997-3.997s1.789-3.997 3.997-3.997 3.997 1.789 3.997 3.997c.001 2.208-1.788 3.997-3.997 3.997z"/><path d="m16.948.076c-2.208-.103-7.677-.098-9.887 0-1.942.091-3.655.56-5.036 1.941-2.308 2.308-2.013 5.418-2.013 9.979 0 4.668-.26 7.706 2.013 9.979 2.317 2.316 5.472 2.013 9.979 2.013 4.624 0 6.22.003 7.855-.63 2.223-.863 3.901-2.85 4.065-6.419.104-2.209.098-7.677 0-9.887-.198-4.213-2.459-6.768-6.976-6.976zm3.495 20.372c-1.513 1.513-3.612 1.378-8.468 1.378-5 0-7.005.074-8.468-1.393-1.685-1.677-1.38-4.37-1.38-8.453 0-5.525-.567-9.504 4.978-9.788 1.274-.045 1.649-.06 4.856-.06l.045.03c5.329 0 9.51-.558 9.761 4.986.057 1.265.07 1.645.07 4.847-.001 4.942.093 6.959-1.394 8.453z"/><circle cx="18.406" cy="5.595" r="1.439"/></symbol><symbol id="telegram" viewBox="0 0 24 24"><title>telegram</title><path d="m9.417 15.181-.397 5.584c.568 0 .814-.244 1.109-.537l2.663-2.545 5.518 4.041c1.012.564 1.725.267 1.998-.931l3.622-16.972.001-.001c.321-1.496-.541-2.081-1.527-1.714l-21.29 8.151c-1.453.564-1.431 1.374-.247 1.741l5.443 1.693 12.643-7.911c.595-.394 1.136-.176.691.218z"/></symbol><symbol id="linkedin" viewBox="0 0 24 24"><title>linkedin</title><path d="m23.994 24v-.001h.006v-8.802c0-4.306-.927-7.623-5.961-7.623-2.42 0-4.044 1.328-4.707 2.587h-.07v-2.185h-4.773v16.023h4.97v-7.934c0-2.089.396-4.109 2.983-4.109 2.549 0 2.587 2.384 2.587 4.243v7.801z"/><path d="m.396 7.977h4.976v16.023h-4.976z"/><path d="m2.882 0c-1.591 0-2.882 1.291-2.882 2.882s1.291 2.909 2.882 2.909 2.882-1.318 2.882-2.909c-.001-1.591-1.292-2.882-2.882-2.882z"/></symbol><symbol id="youtube" viewBox="0 0 24 24"><title>youtube</title><path d="m23.469 5.929.03.196c-.29-1.029-1.073-1.823-2.068-2.112l-.021-.005c-1.871-.508-9.4-.508-9.4-.508s-7.51-.01-9.4.508c-1.014.294-1.798 1.088-2.083 2.096l-.005.021c-.699 3.651-.704 8.038.031 11.947l-.031-.198c.29 1.029 1.073 1.823 2.068 2.112l.021.005c1.869.509 9.4.509 9.4.509s7.509 0 9.4-.509c1.015-.294 1.799-1.088 2.084-2.096l.005-.021c.318-1.698.5-3.652.5-5.648 0-.073 0-.147-.001-.221.001-.068.001-.149.001-.23 0-1.997-.182-3.951-.531-5.846zm-13.861 9.722v-7.293l6.266 3.652z"/></symbol><symbol id="discord" viewBox="0 0 24 24"><title>discord</title><path d="m3.58 21.196h14.259l-.681-2.205 1.629 1.398 1.493 1.338 2.72 2.273v-21.525c-.068-1.338-1.22-2.475-2.648-2.475l-16.767.003c-1.427 0-2.585 1.139-2.585 2.477v16.24c0 1.411 1.156 2.476 2.58 2.476zm10.548-15.513-.033.012.012-.012zm-7.631 1.269c1.833-1.334 3.532-1.27 3.532-1.27l.137.135c-2.243.535-3.26 1.537-3.26 1.537s.272-.133.747-.336c3.021-1.188 6.32-1.102 9.374.402 0 0-1.019-.937-3.124-1.537l.186-.183c.291.001 1.831.055 3.479 1.26 0 0 1.844 3.15 1.844 7.02-.061-.074-1.144 1.666-3.931 1.726 0 0-.472-.534-.808-1 1.63-.468 2.24-1.404 2.24-1.404-.535.337-1.023.537-1.419.737-.609.268-1.219.4-1.828.535-2.884.468-4.503-.315-6.033-.936l-.523-.266s.609.936 2.174 1.404c-.411.469-.818 1.002-.818 1.002-2.786-.066-3.802-1.806-3.802-1.806 0-3.876 1.833-7.02 1.833-7.02z"/><path d="m14.308 12.771c.711 0 1.29-.6 1.29-1.34 0-.735-.576-1.335-1.29-1.335v.003c-.708 0-1.288.598-1.29 1.338 0 .734.579 1.334 1.29 1.334z"/><path d="m9.69 12.771c.711 0 1.29-.6 1.29-1.34 0-.735-.575-1.335-1.286-1.335l-.004.003c-.711 0-1.29.598-1.29 1.338 0 .734.579 1.334 1.29 1.334z"/></symbol><symbol id="facebook" viewBox="0 0 24 24"><title>facebook</title><path d="m15.997 3.985h2.191v-3.816c-.378-.052-1.678-.169-3.192-.169-3.159 0-5.323 1.987-5.323 5.639v3.361h-3.486v4.266h3.486v10.734h4.274v-10.733h3.345l.531-4.266h-3.877v-2.939c.001-1.233.333-2.077 2.051-2.077z"/></symbol><symbol id="twitter" viewBox="0 0 24 24"><title>twitter</title><path d="m21.534 7.113c.976-.693 1.797-1.558 2.466-2.554v-.001c-.893.391-1.843.651-2.835.777 1.02-.609 1.799-1.566 2.165-2.719-.951.567-2.001.967-3.12 1.191-.903-.962-2.19-1.557-3.594-1.557-2.724 0-4.917 2.211-4.917 4.921 0 .39.033.765.114 1.122-4.09-.2-7.71-2.16-10.142-5.147-.424.737-.674 1.58-.674 2.487 0 1.704.877 3.214 2.186 4.089-.791-.015-1.566-.245-2.223-.606v.054c0 2.391 1.705 4.377 3.942 4.835-.401.11-.837.162-1.29.162-.315 0-.633-.018-.931-.084.637 1.948 2.447 3.381 4.597 3.428-1.674 1.309-3.8 2.098-6.101 2.098-.403 0-.79-.018-1.177-.067 2.18 1.405 4.762 2.208 7.548 2.208 8.683 0 14.342-7.244 13.986-14.637z"/></symbol><symbol id="skype" viewBox="0 0 24 24"><title>skype</title><path d="m23.309 14.547c1.738-7.81-5.104-14.905-13.139-13.543-4.362-2.707-10.17.352-10.17 5.542 0 1.207.333 2.337.912 3.311-1.615 7.828 5.283 14.821 13.311 13.366 5.675 3.001 11.946-2.984 9.086-8.676zm-7.638 4.71c-2.108.867-5.577.872-7.676-.227-2.993-1.596-3.525-5.189-.943-5.189 1.946 0 1.33 2.269 3.295 3.194.902.417 2.841.46 3.968-.3 1.113-.745 1.011-1.917.406-2.477-1.603-1.48-6.19-.892-8.287-3.483-.911-1.124-1.083-3.107.037-4.545 1.952-2.512 7.68-2.665 10.143-.768 2.274 1.76 1.66 4.096-.175 4.096-2.207 0-1.047-2.888-4.61-2.888-2.583 0-3.599 1.837-1.78 2.731 2.466 1.225 8.75.816 8.75 5.603-.005 1.992-1.226 3.477-3.128 4.253z"/></symbol></svg>