<svg xmlns="http://www.w3.org/2000/svg" width="60" height="60" viewBox="0 0 60 60"><defs><linearGradient id="miv3a" x1="30.48" x2="30.48" y1="20.89" y2="43.11" gradientUnits="userSpaceOnUse"><stop offset="0" stop-color="#ff015b"/><stop offset="1" stop-color="#fa6499"/></linearGradient><linearGradient id="miv3b" x1="30" x2="30" y1=".22" y2="59.79" gradientUnits="userSpaceOnUse"><stop offset="0" stop-color="#ff015b"/><stop offset="1" stop-color="#fa6499"/></linearGradient></defs><g><g><g><path fill="url(#miv3a)" d="M40.791 21.583L23.957 36.475c-.216.216-.216.432-.216.647l-.647 5.828c0 .216-.216.216-.432 0l-2.59-8.633c-.216-.432 0-.864.432-1.08l19.64-12.302c.647-.215 1.079.432.647.648z"/></g><g><path fill="url(#miv3b)" d="M47.698 17.266L41.655 46.62c-.216 1.295-1.943 1.942-3.022 1.079l-9.28-6.906-4.749 4.748c-.863.863-2.158.431-2.59-.648l-3.453-10.791-9.065-2.806c-1.295-.432-1.295-1.942 0-2.374L45.54 14.892c1.079-.216 2.59.864 2.158 2.374zM30 .216c-8.201 0-15.755 3.237-21.151 8.633C3.453 14.245 0 21.8 0 30c0 8.202 3.237 15.756 8.849 21.151 5.396 5.396 12.95 8.633 21.151 8.633s15.755-3.237 21.151-8.633C56.547 45.756 60 38.201 60 30.001 59.784 13.596 46.403.215 30 .215z"/></g></g></g></svg>