<?xml version="1.0" encoding="utf-8"?>
<svg width="55" height="54" fill="none" xmlns="http://www.w3.org/2000/svg"><path fill-rule="evenodd" clip-rule="evenodd" d="M39.79 38.37a1.421 1.421 0 10-2.841 0v11.549a1.42 1.42 0 002.153 1.215 27.117 27.117 0 0010.858-9.932A26.859 26.859 0 0054.002 27a26.911 26.911 0 00-6.933-18.064l2.667-2.664L51.57 8.11a1.425 1.425 0 002.01 0 1.425 1.425 0 000-2.011l-2.817-2.815-.026-.025-.025-.026L47.898.415a1.425 1.425 0 00-2.01 0 1.424 1.424 0 000 2.011l1.837 1.838-2.664 2.664A26.9 26.9 0 0027.002.001 26.896 26.896 0 008.941 6.93l-2.67-2.667L8.11 2.426a1.425 1.425 0 000-2.01 1.425 1.425 0 00-2.011 0L3.283 3.232l-.025.026-.026.025L.415 6.1a1.425 1.425 0 000 2.01 1.425 1.425 0 002.01 0l1.838-1.837 2.667 2.67A26.906 26.906 0 00.003 27 26.918 26.918 0 007.91 46.093C12.795 50.975 19.547 54 27.002 54c.463 0 .969-.017 1.509-.045a26.535 26.535 0 001.488-.125 1.42 1.42 0 00-.31-2.82c-.451.05-.897.087-1.332.113a24.6 24.6 0 01-1.355.034 24.08 24.08 0 01-17.081-7.075A24.085 24.085 0 012.846 27c0-6.671 2.704-12.71 7.075-17.084a24.09 24.09 0 0117.081-7.072c6.67 0 12.71 2.704 17.082 7.072A24.091 24.091 0 0151.159 27c0 4.67-1.32 9.027-3.607 12.713a24.263 24.263 0 01-7.763 7.788V38.37zM13.794 11.785a1.42 1.42 0 00-2.01 2.008l11.369 11.37A4.224 4.224 0 0022.739 27c0 1.176.477 2.241 1.247 3.014a4.25 4.25 0 003.017 1.25c1.175 0 2.24-.478 3.013-1.25a4.269 4.269 0 00.832-4.857l5.684-5.683a1.42 1.42 0 00-.006-2.006 1.42 1.42 0 00-2.005.006l-5.678 5.68a4.287 4.287 0 00-3.681-.003L13.795 11.786zm12.202 14.21a1.417 1.417 0 012.008 0 1.417 1.417 0 01-1.003 2.426 1.421 1.421 0 01-1.005-2.426z" fill="url(#paint0_linear)"/><defs><linearGradient id="paint0_linear" x1="54.002" y1="0" x2="54.002" y2="54" gradientUnits="userSpaceOnUse"><stop stop-color="#D25027"/><stop offset="1" stop-color="#F17A54"/></linearGradient></defs></svg>