<?xml version="1.0" encoding="utf-8"?>
<svg width="57" height="54" fill="none" xmlns="http://www.w3.org/2000/svg"><path fill-rule="evenodd" clip-rule="evenodd" d="M.691 32.76a1.494 1.494 0 011.605-2.518l9.7 6.174v-5.46L.69 23.762a1.495 1.495 0 011.604-2.522l9.7 6.174v-5.46L.692 14.761a1.497 1.497 0 01.06-2.558L21.753.197a1.505 1.505 0 011.643.102L35.147 7.78c.105.051.207.114.3.189L56.3 21.243a1.495 1.495 0 01-.062 2.561l-21.002 12a1.505 1.505 0 01-1.598-.075l-9.643-6.138v5.46l10.542 6.708 20.225-11.553a1.497 1.497 0 012.04.56 1.5 1.5 0 01-.564 2.04l-21.002 12a1.499 1.499 0 01-1.541-.042l-9.7-6.171v5.46l10.542 6.708 20.225-11.554a1.497 1.497 0 012.04.561 1.5 1.5 0 01-.564 2.04l-21.002 12a1.499 1.499 0 01-1.541-.043l-11.442-7.28a1.51 1.51 0 01-.996-.636L.691 32.761zm20.312-5.906c0-.273.078-.546.234-.789.249-.393.648-.63 1.077-.68l18.404-10.52-6.27-3.99L14.994 21.99v16.336l6 3.817V27.001c0-.051.003-.1.01-.147zm4.498.153l9.037 5.754 18.07-10.327-9.038-5.751L25.5 27.007zm-11.976-7.62L31.597 9.062l-9.14-5.817L4.39 13.57l9.136 5.817z" fill="url(#paint0_linear)"/><defs><linearGradient id="paint0_linear" x1="0" y1="0" x2="0" y2="54" gradientUnits="userSpaceOnUse"><stop stop-color="#D25027"/><stop offset="1" stop-color="#F17A54"/></linearGradient></defs></svg>