<?xml version="1.0" encoding="utf-8"?>
<svg width="60" height="58" fill="none" xmlns="http://www.w3.org/2000/svg"><path fill-rule="evenodd" clip-rule="evenodd" d="M7.336 15.035A1.494 1.494 0 119.162 17.4c-1.952 1.515-3.533 3.434-4.597 5.81-1.002 2.234-1.563 4.894-1.563 8.025 0 5.575 4.412 10.488 6.265 12.548.759.846 1.239 1.386 1.239 2.07 0 .728-.306 1.457-.654 2.285-.59 1.41-1.398 3.332 1.308 4.471 5.548 2.337 6.034 1.203 6.979-1.013.236-.561.497-1.167.827-1.833a1.49 1.49 0 011.437-.83c.822.024 1.389.147 1.97.27.531.113 1.08.233 1.875.233h4.993c.744 0 1.16-.057 1.569-.114a12.169 12.169 0 011.847-.14c.756 0 1.383.56 1.488 1.289.588 2.366 1.361 3.317 2.306 3.482 1.167.207 2.906-.465 4.922-1.28l.08-.03c.285-.118.61-.252.93-.408.264-.13.49-.255.606-.36.915-.813.417-2.349.066-3.434l-.024-.078a11.266 11.266 0 01-.26-.894c-.157-.65.14-1.302.683-1.629 1.967-1.175 3.49-2.519 4.72-4.003 1.245-1.5 2.199-3.158 3.012-4.943a1.498 1.498 0 011.361-.873l4.454-.006v-8.99h-4.634a1.5 1.5 0 01-1.5-1.503v-.021c-.122-2.01-.953-4.151-2.372-5.948-1.307-1.658-3.11-3.014-5.314-3.698a1.496 1.496 0 01-.99-1.868l2.376-8.134c-1.956 0-3.66.525-5.069 1.329-2.348 1.335-3.872 3.401-4.351 5.039a1.503 1.503 0 01-1.764 1.04 26.438 26.438 0 00-2.7-.435 37.5 37.5 0 00-2.782-.18 1.495 1.495 0 11.093-2.99 41.99 41.99 0 013.005.195c.582.06 1.163.141 1.772.246.936-1.964 2.744-4.09 5.252-5.518 2.342-1.335 5.296-2.082 8.718-1.557l.192.048a1.493 1.493 0 011.02 1.85l-2.508 8.59c2.202.954 4.025 2.444 5.405 4.19 1.496 1.901 2.477 4.124 2.855 6.322H58.5a1.5 1.5 0 011.499 1.5v11.996a1.5 1.5 0 01-1.5 1.5H53.49c-.828 1.688-1.793 3.269-3.005 4.73a20.543 20.543 0 01-4.499 4.027c.591 1.841 1.263 4.322-1.002 6.337-.353.315-.81.585-1.286.816a16.77 16.77 0 01-1.125.489l-.075.033c-2.45.992-4.588 1.805-6.562 1.457-1.928-.342-3.428-1.652-4.39-4.663l-.336.044c-.54.072-1.089.148-1.968.148h-4.993c-1.083 0-1.803-.154-2.495-.303l-.54-.111-.321.743c-1.719 4.028-2.6 6.095-10.893 2.598-5.455-2.3-3.983-5.813-2.9-8.383.216-.519.408-.972.408-1.128 0-.452-.183.255-.468-.063C4.958 43.473 0 37.958 0 31.236c0-3.557.657-6.625 1.835-9.246 1.278-2.846 3.168-5.147 5.5-6.955zM16.507 0a7.48 7.48 0 015.306 2.198 7.485 7.485 0 012.198 5.306 7.48 7.48 0 01-2.198 5.3l-.033.032a7.476 7.476 0 01-5.273 2.168c-2.072 0-3.95-.84-5.305-2.195a7.487 7.487 0 01-2.195-5.305c0-2.067.84-3.941 2.195-5.3A7.49 7.49 0 0116.507 0zm3.185 4.322a4.493 4.493 0 00-3.185-1.32 4.47 4.47 0 00-3.182 1.314 4.484 4.484 0 00-1.32 3.188 4.48 4.48 0 001.32 3.182 4.48 4.48 0 003.182 1.32 4.49 4.49 0 004.501-4.502c0-1.245-.503-2.37-1.316-3.182zm20.823 16.686c1.239 0 2.366.507 3.182 1.323a4.49 4.49 0 010 6.358 4.492 4.492 0 01-3.182 1.323 4.49 4.49 0 01-3.182-1.317l-.087-.096a4.497 4.497 0 01-1.233-3.089 4.48 4.48 0 011.32-3.182 4.48 4.48 0 013.182-1.32zm1.062 3.438a1.487 1.487 0 00-1.062-.435 1.5 1.5 0 00-1.5 1.5c0 .39.144.743.381 1.004l.057.057a1.509 1.509 0 002.112.018l.012-.012a1.519 1.519 0 000-2.132z" fill="url(#paint0_linear)"/><defs><linearGradient id="paint0_linear" x1="0" y1="0" x2="0" y2="57.146" gradientUnits="userSpaceOnUse"><stop stop-color="#D25027"/><stop offset="1" stop-color="#F17A54"/></linearGradient></defs></svg>