<?xml version="1.0" encoding="utf-8"?>
<svg width="169" height="19" fill="none" xmlns="http://www.w3.org/2000/svg"><path d="M15.248.864v10.728c0 1.312-.272 2.464-.816 3.456-.528.992-1.328 1.776-2.4 2.352-1.056.56-2.4.84-4.032.84-2.304 0-4.064-.592-5.28-1.776-1.216-1.184-1.824-2.8-1.824-4.848V.864H5V11.16c0 1.312.256 2.248.768 2.808.528.56 1.304.84 2.328.84 1.072 0 1.848-.288 2.328-.864.496-.592.744-1.528.744-2.808V.864h4.08zm11.589 0c4.608 0 6.912 1.704 6.912 5.112 0 1.104-.296 2.032-.888 2.784a6.084 6.084 0 01-2.184 1.776L35.693 18h-4.584l-3.864-6.432h-1.608V18h-4.08V.864h5.28zm-.168 3.216h-1.032v4.296h1.032c.976 0 1.704-.176 2.184-.528.496-.368.744-.944.744-1.728 0-.688-.24-1.2-.72-1.536-.464-.336-1.2-.504-2.208-.504zM50.476 18l-1.056-3.672h-5.928L42.436 18h-4.464L43.804.792h5.232L54.94 18h-4.464zm-1.968-7.08L47.5 7.488c-.08-.288-.192-.672-.336-1.152-.128-.496-.264-1-.408-1.512a63.692 63.692 0 01-.312-1.296c-.064.352-.168.792-.312 1.32-.128.512-.256 1.016-.384 1.512-.128.48-.232.856-.312 1.128l-1.008 3.432h4.08zM59.357 18V.864h4.08v13.8h6.792V18H59.357z" fill="url(#paint0_linear)"/><path d="M87.634 18h-1.68l-6.528-8.88-2.136 2.04V18h-1.392V.864h1.392v8.904l1.008-1.104 1.056-1.152 6.36-6.648h1.704l-6.96 7.296L87.634 18zm15.525 0l-2.28-5.904h-7.104L91.447 18h-1.416L96.775.792h1.272L104.623 18h-1.464zm-2.712-7.176l-2.28-6.168a14.927 14.927 0 01-.384-1.056c-.16-.48-.296-.904-.408-1.272-.128.432-.264.856-.408 1.272a42.42 42.42 0 00-.36 1.08l-2.376 6.144h6.216zm8.986-9.96h4.752c2.112 0 3.672.336 4.68 1.008 1.008.656 1.512 1.712 1.512 3.168 0 .992-.288 1.84-.864 2.544-.56.704-1.384 1.152-2.472 1.344V9c1.248.208 2.2.648 2.856 1.32.656.672.984 1.608.984 2.808 0 1.104-.256 2.016-.768 2.736-.512.72-1.224 1.256-2.136 1.608-.896.352-1.936.528-3.12.528h-5.424V.864zm1.392 7.56h3.672c1.584 0 2.72-.272 3.408-.816.688-.544 1.032-1.352 1.032-2.424 0-1.104-.376-1.896-1.128-2.376-.752-.48-1.96-.72-3.624-.72h-3.36v6.336zm0 1.2V16.8h3.912c1.568 0 2.736-.32 3.504-.96.768-.64 1.152-1.568 1.152-2.784 0-1.184-.4-2.048-1.2-2.592-.8-.56-2.024-.84-3.672-.84h-3.696zM130.861 18h-5.04v-.864l1.824-.264V2.016l-1.824-.288V.864h5.04v.864l-1.824.288v14.856l1.824.264V18zm18.685 0h-1.488l-9.936-14.976h-.072c.032.624.056 1.288.072 1.992.032.688.048 1.408.048 2.16V18h-1.32V.864h1.488l9.912 14.928h.072a45.09 45.09 0 01-.072-1.896c-.016-.768-.024-1.488-.024-2.16V.864h1.32V18zm17.916 0l-2.28-5.904h-7.104L155.75 18h-1.416L161.078.792h1.272L168.926 18h-1.464zm-2.712-7.176l-2.28-6.168a14.927 14.927 0 01-.384-1.056c-.16-.48-.296-.904-.408-1.272-.128.432-.264.856-.408 1.272a42.42 42.42 0 00-.36 1.08l-2.376 6.144h6.216z" fill="#000"/><defs><linearGradient id="paint0_linear" x1="-1" y1="-8" x2="-1" y2="25" gradientUnits="userSpaceOnUse"><stop stop-color="#D25027"/><stop offset="1" stop-color="#F17A54"/></linearGradient></defs></svg>