<svg id="Layer_1" data-name="Layer 1" xmlns="http://www.w3.org/2000/svg" viewBox="0 0 200 200"><defs><style>.cls-1{fill:#e64747;}</style></defs><title>Artboard 1 copy 6</title><path class="cls-1" d="M136.62,135.55H63.38l-3-57.18h79.14ZM66,132.75H134l2.66-51.57H63.38Z"/><rect class="cls-1" x="57.82" y="71.6" width="84.37" height="8.18" rx="2.03"/><rect class="cls-1" x="70.79" y="68.44" width="8.76" height="3.16"/><rect class="cls-1" x="120.45" y="68.44" width="8.76" height="3.16" transform="translate(249.66 140.04) rotate(180)"/><path class="cls-1" d="M106.66,134.15H93.34V106.92a6.66,6.66,0,0,1,6.66-6.66h0a6.66,6.66,0,0,1,6.66,6.66Z"/><path class="cls-1" d="M86.21,134.15H72.89V106.92a6.66,6.66,0,0,1,6.66-6.66h0a6.66,6.66,0,0,1,6.66,6.66Z"/><path class="cls-1" d="M113.79,134.15h13.32V106.92a6.66,6.66,0,0,0-6.66-6.66h0a6.66,6.66,0,0,0-6.66,6.66Z"/><path class="cls-1" d="M110.52,54.07h-21a6.77,6.77,0,0,0-6.77,6.78V71.6h5.6V60.85a1.17,1.17,0,0,1,1.17-1.17h21a1.17,1.17,0,0,1,1.17,1.17V71.6h5.6V60.85A6.77,6.77,0,0,0,110.52,54.07Z"/><rect class="cls-1" x="117.4" y="90.86" width="8.66" height="2.03" transform="translate(243.47 183.76) rotate(180)"/><rect class="cls-1" x="73.93" y="90.86" width="8.66" height="2.03"/><rect class="cls-1" x="117.4" y="90.86" width="8.66" height="2.03" transform="translate(213.61 -29.86) rotate(90)"/></svg>