<svg id="Layer_1" data-name="Layer 1" xmlns="http://www.w3.org/2000/svg" viewBox="0 0 200 200"><defs><style>.cls-1{fill:#e64747;}</style></defs><title>Artboard 1 copy</title><path class="cls-1" d="M78,150a19.36,19.36,0,0,0,10.84-3.31l48.3-32.49h0a9.71,9.71,0,0,0,.09-16h0L96,69.71a14.57,14.57,0,0,0-22.21,7.74L59.4,124.92h0A19.43,19.43,0,0,0,78,150Zm0-9.72a9.71,9.71,0,1,1,9.71-9.71A9.71,9.71,0,0,1,78,140.29ZM87.7,76.84a4.86,4.86,0,1,1-4.86,4.86A4.86,4.86,0,0,1,87.7,76.84ZM75.26,89.18a14.53,14.53,0,0,0,27-7.48,13.33,13.33,0,0,0-.24-1.9l25.56,17.59a9.64,9.64,0,0,0-.09,17.45L96.77,135.49A19.39,19.39,0,0,0,78,111.16a19.32,19.32,0,0,0-10.21,2.94Z"/></svg>