<svg id="Layer_1" data-name="Layer 1" xmlns="http://www.w3.org/2000/svg" viewBox="0 0 200 200"><defs><style>.cls-1{fill:#e64747;}</style></defs><title>Artboard 1 copy 2</title><path class="cls-1" d="M103.65,73.47h-.32a1.57,1.57,0,0,0,0,3.13h.32a1.57,1.57,0,0,0,0-3.13Z"/><path class="cls-1" d="M99,73.47H87.64a1.56,1.56,0,0,0-.84.25c-3.17,2.09-10.91,7.59-14.45,13.62a1.59,1.59,0,0,0,.54,2.15A1.52,1.52,0,0,0,75,88.94C78.13,83.6,85.39,78.42,88.09,76.6H99a1.57,1.57,0,0,0,0-3.13Z"/><path class="cls-1" d="M72.14,90.87a1.53,1.53,0,0,0-2.06.71c-.11.21-.13.27-.19.39l-.07.16a1.54,1.54,0,0,0,1.4,2.22,1.52,1.52,0,0,0,1.39-.9l.23-.48A1.59,1.59,0,0,0,72.14,90.87Z"/><path class="cls-1" d="M119.18,106.23c0-1.84.11-3.54.23-5.2,1.06-14.64,5-31.55,5.09-31.72l.37-1.57H85.25l-.29.18c-.59.36-14.47,8.9-20.37,19C60.52,93.82,59.35,97.77,59,99.66h-.11v1a1.12,1.12,0,0,0,0,.26v21.27l1.42-.19c.11,0,10.83-1.4,18,7.18,2.78,3.31,3.82,8.05,4.21,11.45a35.11,35.11,0,0,1,.2,5.51l-.09,1.36h40.83l-.28-1.5s-.4-2.21-.95-5.72c-1.17-7.51-3.14-21.73-3.14-32.68,0-.28,0-.57,0-.86Zm-5.53,6.84a1.59,1.59,0,0,1-1.57,1.6h-6.91a1.6,1.6,0,0,1,0-3.19h6.91A1.58,1.58,0,0,1,113.65,113.07ZM66.75,88.19C71.87,79.45,83.93,71.58,86,70.29H121.7A239.09,239.09,0,0,0,117,99.66H61.59C62,98,63.11,94.38,66.75,88.19Z"/></svg>