<svg id="Layer_1" data-name="Layer 1" xmlns="http://www.w3.org/2000/svg" viewBox="0 0 200 200"><defs><style>.cls-1{fill:#e64747;}</style></defs><title>Artboard 1 copy 3</title><path class="cls-1" d="M126.35,88.24h6a4.54,4.54,0,0,0,4.54-4.54V61.65a4.53,4.53,0,0,0-4.54-4.53h-6a4.53,4.53,0,0,0-4.53,4.53v8.61h-14.5a7.7,7.7,0,0,0-14.64,0H78.18V61.65a4.53,4.53,0,0,0-4.53-4.53h-6a4.53,4.53,0,0,0-4.54,4.53V83.7a4.54,4.54,0,0,0,4.54,4.54h6a4.53,4.53,0,0,0,4.53-4.54V75.1h14.5A7.68,7.68,0,0,0,97.58,80V135.3a7.7,7.7,0,0,0-4.9,4.89H78.18v-8.6a4.53,4.53,0,0,0-4.53-4.54h-6a4.54,4.54,0,0,0-4.54,4.54v22a4.53,4.53,0,0,0,4.54,4.53h6a4.53,4.53,0,0,0,4.53-4.53V145h14.5a7.7,7.7,0,0,0,14.64,0h14.5v8.6a4.53,4.53,0,0,0,4.53,4.53h6a4.53,4.53,0,0,0,4.54-4.53v-22a4.54,4.54,0,0,0-4.54-4.54h-6a4.53,4.53,0,0,0-4.53,4.54v8.6h-14.5a7.7,7.7,0,0,0-4.9-4.89V80a7.68,7.68,0,0,0,4.9-4.89h14.5v8.6A4.53,4.53,0,0,0,126.35,88.24Z"/></svg>