<svg id="Layer_1" data-name="Layer 1" xmlns="http://www.w3.org/2000/svg" viewBox="0 0 200 200"><defs><style>.cls-1{fill:#e64747;}</style></defs><title>Artboard 1</title><circle class="cls-1" cx="68.65" cy="129.8" r="10.78"/><path class="cls-1" d="M132.66,108.54a14.7,14.7,0,0,0-19.76-13.8v27.6a14.69,14.69,0,0,0,19.76-13.8Z"/><path class="cls-1" d="M86.9,80.67,73.27,98.57a2.48,2.48,0,0,1-1.34.9L49.12,105.7a7.36,7.36,0,0,0-5.42,7.08v8.32a7.34,7.34,0,0,0,7.38,7.29H52.9a15.81,15.81,0,0,1,31.51,0h23.45V76.48H95.36A10.74,10.74,0,0,0,86.9,80.67Z"/><path class="cls-1" d="M149.66,104.19a2.54,2.54,0,0,1-2.24-2,29.51,29.51,0,0,0-4.24-10.06,2.52,2.52,0,0,1,.16-3l4.22-5.1-5.13-5.2-5.08,4.2a2.51,2.51,0,0,1-3,.18A30.68,30.68,0,0,0,124.29,79a2.52,2.52,0,0,1-2-2.21l-.63-6.59H112.9V89.47a19.73,19.73,0,1,1,0,38.14v19.33h8.78l.63-6.61a2.54,2.54,0,0,1,2-2.23,29.32,29.32,0,0,0,10.06-4.24,2.52,2.52,0,0,1,3,.16l5.09,4.21,5.22-5.22-4.21-5.09a2.52,2.52,0,0,1-.18-3,30.33,30.33,0,0,0,4.27-10.09,2.53,2.53,0,0,1,2.23-2l6.53-.64v-7.42Z"/></svg>