<svg id="Layer_1" data-name="Layer 1" xmlns="http://www.w3.org/2000/svg" viewBox="0 0 200 200"><defs><style>.cls-1{fill:#e64747;}</style></defs><title>Artboard 1 copy 7</title><rect class="cls-1" x="70.96" y="93.18" width="27.5" height="6.52"/><path class="cls-1" d="M70.74,120.93H98.68a1.39,1.39,0,1,0,0-2.77H96.79l-1.64-16.64H74.27l-1.63,16.64h-1.9a1.39,1.39,0,1,0,0,2.77Z"/><path class="cls-1" d="M98.68,123.05H70.74a1.39,1.39,0,1,0,0,2.78H98.68a1.39,1.39,0,0,0,0-2.78Z"/><path class="cls-1" d="M98.68,127.94H70.74a1.39,1.39,0,0,0,0,2.78H98.68a1.39,1.39,0,1,0,0-2.78Z"/><path class="cls-1" d="M98.68,132.84H70.74a1.39,1.39,0,1,0,0,2.78h4.43v4a2.17,2.17,0,0,0,2.17,2.17H92.1a2.17,2.17,0,0,0,2.17-2.17v-4h4.41a1.39,1.39,0,1,0,0-2.78Z"/><path class="cls-1" d="M92.89,78.48a4.42,4.42,0,0,0-4.38-3.76H82.59V71.06h5.92a1.68,1.68,0,0,0,0-3.36H80.92a1.68,1.68,0,0,0-1.68,1.68v5.34a1.66,1.66,0,0,0,0,.32,4.42,4.42,0,0,0-2.73,3.44L75.27,91.36H94.16Z"/><path class="cls-1" d="M122.25,62.62a6.14,6.14,0,1,0,6.13,6.14A6.14,6.14,0,0,0,122.25,62.62Zm3.42,6.14a3.42,3.42,0,1,1-3.42-3.43A3.42,3.42,0,0,1,125.67,68.76Z"/><path class="cls-1" d="M113.85,78.9V96.5h1.77V99h-.41a1,1,0,0,0-1,1v.39a1,1,0,0,0,1,1h.41v1.87h-.41a1,1,0,0,0-1,1v.39a1,1,0,0,0,1,1h.41v1.87h-.41a1,1,0,0,0-1,1v.39a1,1,0,0,0,1,1h.41v23.39h2.63a7.51,7.51,0,1,0,8,0h2.63V109.66h.41a1,1,0,0,0,1-1v-.39a1,1,0,0,0-1-1h-.41v-1.87h.41a1,1,0,0,0,1-1v-.39a1,1,0,0,0-1-1h-.41v-1.87h.41a1,1,0,0,0,1-1v-.39a1,1,0,0,0-1-1h-.41V96.5h1.77V78.9a4,4,0,0,0-4-4h-8.77A4,4,0,0,0,113.85,78.9Zm12.59,60.5a4.19,4.19,0,1,1-4.19-4.19A4.2,4.2,0,0,1,126.44,139.4Zm.12-8.67h-8.62V109.66h8.62Zm0-23.4h-8.62v-1.87h8.62Zm0-4.19h-8.62v-1.87h8.62ZM117.94,99V97.66h8.62V99Z"/></svg>