<svg id="Layer_1" data-name="Layer 1" xmlns="http://www.w3.org/2000/svg" viewBox="0 0 200 200"><defs><style>.cls-1{fill:#e64747;}</style></defs><title>Artboard 1 copy 4</title><path class="cls-1" d="M77.59,81.34a7.31,7.31,0,0,1-5.19-2.15l-3.06-3.06a7.47,7.47,0,0,1-2.17-5.77A7.29,7.29,0,0,1,70,65.06a49.78,49.78,0,0,1,60,0,7.29,7.29,0,0,1,2.85,5.3,7.47,7.47,0,0,1-2.17,5.77l-3.06,3.06a7.42,7.42,0,0,1-9.65.69,30.72,30.72,0,0,0-35.9,0A7.62,7.62,0,0,1,77.59,81.34ZM100,57.89a46.31,46.31,0,0,0-28.24,9.46A4.33,4.33,0,0,0,70,70.56a4.53,4.53,0,0,0,1.33,3.54l3.06,3.06a4.55,4.55,0,0,0,5.93.39,33.59,33.59,0,0,1,39.28,0,4.55,4.55,0,0,0,5.93-.39l3.06-3.06A4.53,4.53,0,0,0,130,70.56a4.33,4.33,0,0,0-1.72-3.21A46.31,46.31,0,0,0,100,57.89Z"/><path class="cls-1" d="M100,56.46a49.31,49.31,0,0,0-5.17.3l.46,5.09a3.87,3.87,0,0,0,3.85,3.51h1.72a3.87,3.87,0,0,0,3.85-3.51l.46-5.09A49.31,49.31,0,0,0,100,56.46Z"/><path class="cls-1" d="M83.48,59.37a47.92,47.92,0,0,0-4.75,2.06l2.17,4.62a3.85,3.85,0,0,0,4.82,2l1.61-.58a3.87,3.87,0,0,0,2.41-4.62l-1.3-4.94A48.59,48.59,0,0,0,83.48,59.37Z"/><path class="cls-1" d="M116.52,59.37a47.92,47.92,0,0,1,4.75,2.06l-2.17,4.62a3.85,3.85,0,0,1-4.82,2l-1.61-.58a3.87,3.87,0,0,1-2.41-4.62l1.3-4.94A48.59,48.59,0,0,1,116.52,59.37Z"/><path class="cls-1" d="M100,125.14a20.38,20.38,0,1,1,20.38-20.37A20.4,20.4,0,0,1,100,125.14Zm0-37.88a17.51,17.51,0,1,0,17.51,17.51A17.53,17.53,0,0,0,100,87.26Zm0,32.3a14.8,14.8,0,1,1,14.79-14.79A14.81,14.81,0,0,1,100,119.56Zm0-26.72a11.93,11.93,0,1,0,11.92,11.93A11.93,11.93,0,0,0,100,92.84Z"/><path class="cls-1" d="M128.43,76.33l-1.84,1.85a5.88,5.88,0,0,1-2.15,1.34,22.34,22.34,0,0,1,2.5,1,1.43,1.43,0,0,1-.59,2.74,1.41,1.41,0,0,1-.6-.13,21.7,21.7,0,0,0-10.43-1.93,21.41,21.41,0,0,0-7.54,1.92,1.43,1.43,0,1,1-1.2-2.6,24.32,24.32,0,0,1,8.55-2.19,23.87,23.87,0,0,1,3.05,0,31.64,31.64,0,0,0-10-4.59,21.28,21.28,0,0,0-12.25,8.41,1.44,1.44,0,0,1-1.17.6,1.41,1.41,0,0,1-.83-.26,1.43,1.43,0,0,1-.34-2,24,24,0,0,1,9-7.71c-.84-.07-1.69-.1-2.54-.1a32.21,32.21,0,0,0-8.46,1.14,21.27,21.27,0,0,0-6.41,13.4A1.44,1.44,0,0,1,83.7,88.5h-.13a1.44,1.44,0,0,1-1.3-1.56,24.38,24.38,0,0,1,3.91-11.15,32.55,32.55,0,0,0-5,2.94A6.17,6.17,0,0,1,78,79.87a21.61,21.61,0,0,0-1.57,9.57A21.15,21.15,0,0,0,78.34,97a1.44,1.44,0,1,1-2.61,1.2,24,24,0,0,1-2.18-8.54A24.34,24.34,0,0,1,75.1,79.35a6,6,0,0,1-1.69-1.17l-1.84-1.85a40.21,40.21,0,1,0,56.86,0ZM66.8,92a1.46,1.46,0,0,1,1.57,1.29,21.79,21.79,0,0,0,3.54,10,21.33,21.33,0,0,0,5.44,5.57,1.43,1.43,0,0,1-.83,2.6,1.41,1.41,0,0,1-.83-.26,24.15,24.15,0,0,1-6.16-6.31,24.63,24.63,0,0,1-4-11.32A1.44,1.44,0,0,1,66.8,92Zm-2.27,20.31a1.43,1.43,0,0,1,2.34-1.66,21.72,21.72,0,0,0,8.07,6.88,21.1,21.1,0,0,0,7.49,2.1,1.44,1.44,0,0,1-.13,2.87h-.13a24.08,24.08,0,0,1-8.5-2.38A24.54,24.54,0,0,1,64.53,112.31Zm18.75,19A24.7,24.7,0,0,1,73.06,129a1.44,1.44,0,0,1,1.19-2.62,21.34,21.34,0,0,0,18,0,1.43,1.43,0,0,1,1.2,2.6,24.1,24.1,0,0,1-8.55,2.19C84.34,131.26,83.81,131.27,83.28,131.27Zm16.84,4a24.59,24.59,0,0,1-11.32,4h-.14a1.43,1.43,0,0,1-.13-2.86,21.35,21.35,0,0,0,15.56-9,1.43,1.43,0,1,1,2.34,1.65A24,24,0,0,1,100.12,135.24Zm15.22-4.14a24.49,24.49,0,0,1-7.79,9.13,1.44,1.44,0,0,1-2-.33,1.44,1.44,0,0,1,.34-2,21.82,21.82,0,0,0,6.89-8.07,21.37,21.37,0,0,0,2.1-7.49,1.44,1.44,0,1,1,2.86.26A24.31,24.31,0,0,1,115.34,131.1ZM100,123.71a18.95,18.95,0,1,1,18.94-18.94A18.94,18.94,0,0,1,100,123.71Zm24.27,8a1.43,1.43,0,0,1-1.31.84,1.37,1.37,0,0,1-.59-.13,1.43,1.43,0,0,1-.71-1.9,21.82,21.82,0,0,0,1.93-10.43,21.37,21.37,0,0,0-1.93-7.54,1.44,1.44,0,1,1,2.61-1.2,24,24,0,0,1,2.18,8.55A24.53,24.53,0,0,1,124.27,131.71Zm8.93-14.18h-.14a1.44,1.44,0,0,1-1.43-1.3,21.79,21.79,0,0,0-3.54-10,21.33,21.33,0,0,0-5.44-5.57,1.43,1.43,0,1,1,1.66-2.34,24.15,24.15,0,0,1,6.16,6.31,24.61,24.61,0,0,1,4,11.32A1.44,1.44,0,0,1,133.2,117.53Zm1.1-18a1.42,1.42,0,0,1-1.17-.61A21.63,21.63,0,0,0,125.06,92a21.31,21.31,0,0,0-7.49-2.1,1.44,1.44,0,1,1,.26-2.86,24.08,24.08,0,0,1,8.5,2.38,24.54,24.54,0,0,1,9.14,7.8,1.44,1.44,0,0,1-1.17,2.27Z"/></svg>