<svg id="Layer_1" data-name="Layer 1" xmlns="http://www.w3.org/2000/svg" viewBox="0 0 200 200"><defs><style>.cls-1{fill:#e64747;}</style></defs><title>Artboard 1 copy 5</title><path class="cls-1" d="M117.52,102.77c4.51-1.8,7.22,2,13,1.34a14.32,14.32,0,0,0,10.63-6.85c4.37-7.79-.08-20.87-7.54-24-2.58-1.09-6.59-1.46-9.16.74-3.22,2.76-1,6.78-3.57,11.15s-8,5.71-11.25,6a13.81,13.81,0,0,0-2-1.16,7.34,7.34,0,0,1-.62-2.5c-.31-4.84,4.11-6.25,5.28-11.91A14.3,14.3,0,0,0,109,63.36C103,56.79,89.14,57,83.82,63.1,82,65.22,80.4,68.92,81.69,72c1.63,3.92,6.15,3,9.5,6.85s3,9.34,2.26,12.57A14.78,14.78,0,0,0,91.73,93a7.39,7.39,0,0,1-2.56-.18c-4.71-1.2-4.68-5.84-9.7-8.7a14.28,14.28,0,0,0-12.62-.71c-8.12,3.74-12.2,16.93-8,23.88,1.44,2.41,4.47,5,7.84,4.79,4.23-.34,4.77-4.92,9.45-6.92s9.8,0,12.65,1.73A14.49,14.49,0,0,0,89.7,109a7.38,7.38,0,0,1-1,2.36c-2.59,4.11-7,2.65-11.27,6.54a14.33,14.33,0,0,0-4.57,11.79c1,8.87,12.33,16.83,20.23,15,2.73-.63,6.19-2.69,7-6,1-4.12-3.2-6.05-3.67-11.12s3.09-9.3,5.56-11.5a13.5,13.5,0,0,0,2.31-.23,7.18,7.18,0,0,1,2,1.65c3.1,3.73.36,7.47,2.73,12.74a14.34,14.34,0,0,0,9.8,8c8.76,1.75,19.82-6.53,20.53-14.6.24-2.8-.65-6.72-3.53-8.49-3.62-2.21-6.75,1.18-11.71,0s-7.89-5.79-9.21-8.82a13.37,13.37,0,0,0,.47-2.28A7.51,7.51,0,0,1,117.52,102.77ZM101.73,110a7.59,7.59,0,1,1,7.59-7.59A7.59,7.59,0,0,1,101.73,110Z"/></svg>